<mxfile host="app.diagrams.net" agent="Mozilla/5.0 (Windows NT 10.0; Win64; x64) AppleWebKit/537.36 (KHTML, like Gecko) Chrome/130.0.0.0 Safari/537.36" version="24.9.0">
  <diagram name="Страница — 1" id="UTC3uk1nncpPkk9SzH1_">
    <mxGraphModel dx="1722" dy="990" grid="1" gridSize="10" guides="1" tooltips="1" connect="1" arrows="1" fold="1" page="1" pageScale="1" pageWidth="3339" pageHeight="4300" math="0" shadow="0">
      <root>
        <mxCell id="0" />
        <mxCell id="1" parent="0" />
        <mxCell id="SI14YOLQEWjVCTlQ7veY-13" style="edgeStyle=orthogonalEdgeStyle;rounded=0;orthogonalLoop=1;jettySize=auto;html=1;entryX=0.5;entryY=0;entryDx=0;entryDy=0;" edge="1" parent="1" source="SI14YOLQEWjVCTlQ7veY-2" target="SI14YOLQEWjVCTlQ7veY-12">
          <mxGeometry relative="1" as="geometry" />
        </mxCell>
        <mxCell id="SI14YOLQEWjVCTlQ7veY-14" style="edgeStyle=orthogonalEdgeStyle;rounded=0;orthogonalLoop=1;jettySize=auto;html=1;entryX=0.5;entryY=0;entryDx=0;entryDy=0;" edge="1" parent="1" source="SI14YOLQEWjVCTlQ7veY-2" target="SI14YOLQEWjVCTlQ7veY-5">
          <mxGeometry relative="1" as="geometry" />
        </mxCell>
        <mxCell id="SI14YOLQEWjVCTlQ7veY-2" value="&lt;font style=&quot;font-size: 14px;&quot;&gt;Проект для СУБД&lt;/font&gt;" style="rounded=0;whiteSpace=wrap;html=1;fillColor=#f8cecc;strokeColor=#b85450;" vertex="1" parent="1">
          <mxGeometry x="1038" y="30" width="200" height="70" as="geometry" />
        </mxCell>
        <mxCell id="SI14YOLQEWjVCTlQ7veY-44" style="edgeStyle=orthogonalEdgeStyle;rounded=0;orthogonalLoop=1;jettySize=auto;html=1;exitX=0.5;exitY=1;exitDx=0;exitDy=0;" edge="1" parent="1" source="SI14YOLQEWjVCTlQ7veY-5" target="SI14YOLQEWjVCTlQ7veY-42">
          <mxGeometry relative="1" as="geometry" />
        </mxCell>
        <mxCell id="SI14YOLQEWjVCTlQ7veY-5" value="Базы данных ----- inventory_db" style="swimlane;whiteSpace=wrap;html=1;" vertex="1" parent="1">
          <mxGeometry x="168" y="160" width="330" height="1210" as="geometry" />
        </mxCell>
        <mxCell id="SI14YOLQEWjVCTlQ7veY-9" value="&lt;div&gt;&lt;div&gt;&lt;font style=&quot;font-size: 7px;&quot;&gt;--Категория&amp;nbsp; инвентаря&lt;/font&gt;&lt;/div&gt;&lt;div&gt;&lt;font style=&quot;font-size: 7px;&quot;&gt;CREATE TABLE categories (&lt;/font&gt;&lt;/div&gt;&lt;div&gt;&lt;font style=&quot;font-size: 7px;&quot;&gt;&amp;nbsp; &amp;nbsp; id SERIAL PRIMARY KEY,&lt;/font&gt;&lt;/div&gt;&lt;div&gt;&lt;font style=&quot;font-size: 7px;&quot;&gt;&amp;nbsp; &amp;nbsp; name VARCHAR(100) NOT NULL,&lt;/font&gt;&lt;/div&gt;&lt;div&gt;&lt;font style=&quot;font-size: 7px;&quot;&gt;&amp;nbsp; &amp;nbsp; description TEXT,&lt;/font&gt;&lt;/div&gt;&lt;div&gt;&lt;font style=&quot;font-size: 7px;&quot;&gt;&amp;nbsp; &amp;nbsp; created_time:TIMESTAMP NOT NULL DEFAULT current_timestamp,&lt;/font&gt;&lt;/div&gt;&lt;div&gt;&lt;font style=&quot;font-size: 7px;&quot;&gt;&amp;nbsp; &amp;nbsp; updated_time:TIMESTAMP NOT NULL DEFAULT current_timestamp&lt;/font&gt;&lt;/div&gt;&lt;div&gt;&lt;font style=&quot;font-size: 7px;&quot;&gt;);&lt;/font&gt;&lt;/div&gt;&lt;div&gt;&lt;font style=&quot;font-size: 7px;&quot;&gt;&lt;br&gt;&lt;/font&gt;&lt;/div&gt;&lt;div&gt;&lt;font style=&quot;font-size: 7px;&quot;&gt;-- Таблица для локаций&lt;/font&gt;&lt;/div&gt;&lt;div&gt;&lt;font style=&quot;font-size: 7px;&quot;&gt;CREATE TABLE locations (&lt;/font&gt;&lt;/div&gt;&lt;div&gt;&lt;font style=&quot;font-size: 7px;&quot;&gt;&amp;nbsp; &amp;nbsp; id SERIAL PRIMARY KEY,&lt;/font&gt;&lt;/div&gt;&lt;div&gt;&lt;font style=&quot;font-size: 7px;&quot;&gt;&amp;nbsp; &amp;nbsp; address VARCHAR(255),&lt;/font&gt;&lt;/div&gt;&lt;div&gt;&lt;font style=&quot;font-size: 7px;&quot;&gt;&amp;nbsp; &amp;nbsp; city VARCHAR(100),&lt;/font&gt;&lt;/div&gt;&lt;div&gt;&lt;font style=&quot;font-size: 7px;&quot;&gt;&amp;nbsp; &amp;nbsp; state VARCHAR(100),&lt;/font&gt;&lt;/div&gt;&lt;div&gt;&lt;font style=&quot;font-size: 7px;&quot;&gt;&amp;nbsp; &amp;nbsp; postal_code VARCHAR(20),&lt;/font&gt;&lt;/div&gt;&lt;div&gt;&lt;font style=&quot;font-size: 7px;&quot;&gt;&amp;nbsp; &amp;nbsp; country VARCHAR(100),&lt;/font&gt;&lt;/div&gt;&lt;div&gt;&lt;font style=&quot;font-size: 7px;&quot;&gt;&amp;nbsp; &amp;nbsp; created_time:TIMESTAMP NOT NULL DEFAULT current_timestamp,&lt;/font&gt;&lt;/div&gt;&lt;div&gt;&lt;font style=&quot;font-size: 7px;&quot;&gt;&amp;nbsp; &amp;nbsp; updated_time:TIMESTAMP NOT NULL DEFAULT current_timestamp&lt;/font&gt;&lt;/div&gt;&lt;div&gt;&lt;font style=&quot;font-size: 7px;&quot;&gt;);&lt;/font&gt;&lt;/div&gt;&lt;div&gt;&lt;font style=&quot;font-size: 7px;&quot;&gt;&lt;br&gt;&lt;/font&gt;&lt;/div&gt;&lt;div&gt;&lt;font style=&quot;font-size: 7px;&quot;&gt;-- Статусов инвентаря&lt;/font&gt;&lt;/div&gt;&lt;div&gt;&lt;font style=&quot;font-size: 7px;&quot;&gt;CREATE TABLE statuses (&lt;/font&gt;&lt;/div&gt;&lt;div&gt;&lt;font style=&quot;font-size: 7px;&quot;&gt;&amp;nbsp; &amp;nbsp; id SERIAL PRIMARY KEY,&lt;/font&gt;&lt;/div&gt;&lt;div&gt;&lt;font style=&quot;font-size: 7px;&quot;&gt;&amp;nbsp; &amp;nbsp; status_name VARCHAR(50) NOT NULL,&lt;/font&gt;&lt;/div&gt;&lt;div&gt;&lt;font style=&quot;font-size: 7px;&quot;&gt;&amp;nbsp; &amp;nbsp; description TEXT,&lt;/font&gt;&lt;/div&gt;&lt;div&gt;&lt;font style=&quot;font-size: 7px;&quot;&gt;&amp;nbsp; &amp;nbsp; &amp;nbsp;created_time:TIMESTAMP NOT NULL DEFAULT current_timestamp,&lt;/font&gt;&lt;/div&gt;&lt;div&gt;&lt;font style=&quot;font-size: 7px;&quot;&gt;&amp;nbsp; &amp;nbsp; updated_time:TIMESTAMP NOT NULL DEFAULT current_timestamp&lt;/font&gt;&lt;/div&gt;&lt;div&gt;&lt;font style=&quot;font-size: 7px;&quot;&gt;);&lt;/font&gt;&lt;/div&gt;&lt;div&gt;&lt;font style=&quot;font-size: 7px;&quot;&gt;&lt;br&gt;&lt;/font&gt;&lt;/div&gt;&lt;div&gt;&lt;font style=&quot;font-size: 7px;&quot;&gt;-- Таблица для пользователей&lt;/font&gt;&lt;/div&gt;&lt;div&gt;&lt;font style=&quot;font-size: 7px;&quot;&gt;CREATE TABLE users (&lt;/font&gt;&lt;/div&gt;&lt;div&gt;&lt;font style=&quot;font-size: 7px;&quot;&gt;&amp;nbsp; &amp;nbsp; id SERIAL PRIMARY KEY,&lt;/font&gt;&lt;/div&gt;&lt;div&gt;&lt;font style=&quot;font-size: 7px;&quot;&gt;&amp;nbsp; &amp;nbsp; username VARCHAR(100) NOT NULL UNIQUE,&lt;/font&gt;&lt;/div&gt;&lt;div&gt;&lt;font style=&quot;font-size: 7px;&quot;&gt;&amp;nbsp; &amp;nbsp; email VARCHAR(100) UNIQUE,&lt;/font&gt;&lt;/div&gt;&lt;div&gt;&lt;font style=&quot;font-size: 7px;&quot;&gt;&amp;nbsp; &amp;nbsp; password VARCHAR(255) NOT NULL,&lt;/font&gt;&lt;/div&gt;&lt;div&gt;&lt;font style=&quot;font-size: 7px;&quot;&gt;&amp;nbsp; &amp;nbsp; role VARCHAR(50) DEFAULT &#39;USER&#39;,&lt;/font&gt;&lt;/div&gt;&lt;div&gt;&lt;font style=&quot;font-size: 7px;&quot;&gt;&amp;nbsp; &amp;nbsp; &amp;nbsp;created_time:TIMESTAMP NOT NULL DEFAULT current_timestamp,&lt;/font&gt;&lt;/div&gt;&lt;div&gt;&lt;font style=&quot;font-size: 7px;&quot;&gt;&amp;nbsp; &amp;nbsp; updated_time:TIMESTAMP NOT NULL DEFAULT current_timestamp&amp;nbsp;&lt;/font&gt;&lt;/div&gt;&lt;div&gt;&lt;font style=&quot;font-size: 7px;&quot;&gt;);&lt;/font&gt;&lt;/div&gt;&lt;div&gt;&lt;font style=&quot;font-size: 7px;&quot;&gt;&lt;br&gt;&lt;/font&gt;&lt;/div&gt;&lt;div&gt;&lt;font style=&quot;font-size: 7px;&quot;&gt;-- Таблица для инвентаря&lt;/font&gt;&lt;/div&gt;&lt;div&gt;&lt;font style=&quot;font-size: 7px;&quot;&gt;CREATE TABLE inventory (&lt;/font&gt;&lt;/div&gt;&lt;div&gt;&lt;font style=&quot;font-size: 7px;&quot;&gt;&amp;nbsp; &amp;nbsp; id SERIAL PRIMARY KEY,&lt;/font&gt;&lt;/div&gt;&lt;div&gt;&lt;font style=&quot;font-size: 7px;&quot;&gt;&amp;nbsp; &amp;nbsp; name VARCHAR(100) NOT NULL,&lt;/font&gt;&lt;/div&gt;&lt;div&gt;&lt;font style=&quot;font-size: 7px;&quot;&gt;&amp;nbsp; &amp;nbsp; description TEXT,&lt;/font&gt;&lt;/div&gt;&lt;div&gt;&lt;font style=&quot;font-size: 7px;&quot;&gt;&amp;nbsp; &amp;nbsp; category_id INT REFERENCES categories(id) ON DELETE SET NULL,&lt;/font&gt;&lt;/div&gt;&lt;div&gt;&lt;font style=&quot;font-size: 7px;&quot;&gt;&amp;nbsp; &amp;nbsp; location_id INT REFERENCES locations(id) ON DELETE SET NULL,&lt;/font&gt;&lt;/div&gt;&lt;div&gt;&lt;font style=&quot;font-size: 7px;&quot;&gt;&amp;nbsp; &amp;nbsp; status_id INT REFERENCES statuses(id) ON DELETE SET NULL,&lt;/font&gt;&lt;/div&gt;&lt;div&gt;&lt;font style=&quot;font-size: 7px;&quot;&gt;&amp;nbsp; &amp;nbsp; purchase_date DATE,&lt;/font&gt;&lt;/div&gt;&lt;div&gt;&lt;font style=&quot;font-size: 7px;&quot;&gt;&amp;nbsp; &amp;nbsp; cost NUMERIC(12, 2) CHECK (cost &amp;gt;= 0),&amp;nbsp;&lt;/font&gt;&lt;/div&gt;&lt;div&gt;&lt;font style=&quot;font-size: 7px;&quot;&gt;&amp;nbsp; &amp;nbsp; &amp;nbsp;created_time:TIMESTAMP NOT NULL DEFAULT current_timestamp,&lt;/font&gt;&lt;/div&gt;&lt;div&gt;&lt;font style=&quot;font-size: 7px;&quot;&gt;&amp;nbsp; &amp;nbsp; updated_time:TIMESTAMP NOT NULL DEFAULT current_timestamp&lt;/font&gt;&lt;/div&gt;&lt;div&gt;&lt;font style=&quot;font-size: 7px;&quot;&gt;);&lt;/font&gt;&lt;/div&gt;&lt;div&gt;&lt;font style=&quot;font-size: 7px;&quot;&gt;&lt;br&gt;&lt;/font&gt;&lt;/div&gt;&lt;div&gt;&lt;font style=&quot;font-size: 7px;&quot;&gt;-- Таблица для журналирования действий с инвентарем&lt;/font&gt;&lt;/div&gt;&lt;div&gt;&lt;font style=&quot;font-size: 7px;&quot;&gt;CREATE TABLE actions (&lt;/font&gt;&lt;/div&gt;&lt;div&gt;&lt;font style=&quot;font-size: 7px;&quot;&gt;&amp;nbsp; &amp;nbsp; id SERIAL PRIMARY KEY,&lt;/font&gt;&lt;/div&gt;&lt;div&gt;&lt;font style=&quot;font-size: 7px;&quot;&gt;&amp;nbsp; &amp;nbsp; inventory_id INT REFERENCES inventory(id) ON DELETE CASCADE,&lt;/font&gt;&lt;/div&gt;&lt;div&gt;&lt;font style=&quot;font-size: 7px;&quot;&gt;&amp;nbsp; &amp;nbsp; user_id INT REFERENCES users(id) ON DELETE SET NULL,&lt;/font&gt;&lt;/div&gt;&lt;div&gt;&lt;font style=&quot;font-size: 7px;&quot;&gt;&amp;nbsp; &amp;nbsp; action_type VARCHAR(50) NOT NULL,&amp;nbsp;&amp;nbsp;&lt;/font&gt;&lt;/div&gt;&lt;div&gt;&lt;font style=&quot;font-size: 7px;&quot;&gt;&amp;nbsp; &amp;nbsp; action_date TIMESTAMP DEFAULT CURRENT_TIMESTAMP,&lt;/font&gt;&lt;/div&gt;&lt;div&gt;&lt;font style=&quot;font-size: 7px;&quot;&gt;&amp;nbsp; &amp;nbsp; comments TEXT,&lt;/font&gt;&lt;/div&gt;&lt;div&gt;&lt;font style=&quot;font-size: 7px;&quot;&gt;&amp;nbsp; &amp;nbsp; &amp;nbsp;created_time:TIMESTAMP NOT NULL DEFAULT current_timestamp,&lt;/font&gt;&lt;/div&gt;&lt;div&gt;&lt;font style=&quot;font-size: 7px;&quot;&gt;&amp;nbsp; &amp;nbsp; updated_time:TIMESTAMP NOT NULL DEFAULT current_timestamp&lt;/font&gt;&lt;/div&gt;&lt;div&gt;&lt;font style=&quot;font-size: 7px;&quot;&gt;);&lt;/font&gt;&lt;/div&gt;&lt;div&gt;&lt;font style=&quot;font-size: 7px;&quot;&gt;&lt;br&gt;&lt;/font&gt;&lt;/div&gt;&lt;div&gt;&lt;font style=&quot;font-size: 7px;&quot;&gt;-- Таблица для учета ремонтов&lt;/font&gt;&lt;/div&gt;&lt;div&gt;&lt;font style=&quot;font-size: 7px;&quot;&gt;CREATE TABLE repairs (&lt;/font&gt;&lt;/div&gt;&lt;div&gt;&lt;font style=&quot;font-size: 7px;&quot;&gt;&amp;nbsp; &amp;nbsp; id SERIAL PRIMARY KEY,&lt;/font&gt;&lt;/div&gt;&lt;div&gt;&lt;font style=&quot;font-size: 7px;&quot;&gt;&amp;nbsp; &amp;nbsp; inventory_id INT REFERENCES inventory(id) ON DELETE CASCADE,&lt;/font&gt;&lt;/div&gt;&lt;div&gt;&lt;font style=&quot;font-size: 7px;&quot;&gt;&amp;nbsp; &amp;nbsp; repair_date TIMESTAMP DEFAULT CURRENT_TIMESTAMP,&lt;/font&gt;&lt;/div&gt;&lt;div&gt;&lt;font style=&quot;font-size: 7px;&quot;&gt;&amp;nbsp; &amp;nbsp; repair_cost NUMERIC(12, 2) CHECK (repair_cost &amp;gt;= 0),&amp;nbsp;&lt;/font&gt;&lt;/div&gt;&lt;div&gt;&lt;font style=&quot;font-size: 7px;&quot;&gt;&amp;nbsp; &amp;nbsp; repair_description TEXT,&lt;/font&gt;&lt;/div&gt;&lt;div&gt;&lt;font style=&quot;font-size: 7px;&quot;&gt;&amp;nbsp; &amp;nbsp; &amp;nbsp;created_time:TIMESTAMP NOT NULL DEFAULT current_timestamp,&lt;/font&gt;&lt;/div&gt;&lt;div&gt;&lt;font style=&quot;font-size: 7px;&quot;&gt;&amp;nbsp; &amp;nbsp; updated_time:TIMESTAMP NOT NULL DEFAULT current_timestamp&lt;/font&gt;&lt;/div&gt;&lt;div&gt;&lt;font style=&quot;font-size: 7px;&quot;&gt;);&lt;/font&gt;&lt;/div&gt;&lt;div&gt;&lt;br&gt;&lt;/div&gt;&lt;/div&gt;" style="text;html=1;align=left;verticalAlign=middle;resizable=0;points=[];autosize=1;strokeColor=#d6b656;fillColor=#fff2cc;" vertex="1" parent="SI14YOLQEWjVCTlQ7veY-5">
          <mxGeometry x="12" y="30" width="250" height="1140" as="geometry" />
        </mxCell>
        <mxCell id="SI14YOLQEWjVCTlQ7veY-12" value="Backend(Spring Boot )" style="swimlane;whiteSpace=wrap;html=1;" vertex="1" parent="1">
          <mxGeometry x="1688" y="260" width="383" height="350" as="geometry" />
        </mxCell>
        <mxCell id="SI14YOLQEWjVCTlQ7veY-16" value="1. &lt;span class=&quot;notion-enable-hover&quot; data-token-index=&quot;1&quot; style=&quot;font-weight:600&quot;&gt;Сущность &lt;/span&gt;&lt;span class=&quot;notion-enable-hover&quot; spellcheck=&quot;false&quot; data-token-index=&quot;2&quot; style=&quot;font-family: SFMono-Regular, Menlo, Consolas, &amp;quot;PT Mono&amp;quot;, &amp;quot;Liberation Mono&amp;quot;, Courier, monospace; line-height: normal; background: rgba(135, 131, 120, 0.15); border-radius: 4px; padding: 0.2em 0.4em; font-weight: 600;&quot;&gt;&lt;font color=&quot;#009900&quot;&gt;Category&lt;/font&gt;&lt;/span&gt;&lt;span class=&quot;notion-enable-hover&quot; data-token-index=&quot;3&quot; style=&quot;font-weight:600&quot;&gt;&lt;font color=&quot;#009900&quot;&gt; &lt;/font&gt;(Категория инвентаря):&lt;/span&gt;&lt;div&gt;&lt;span class=&quot;notion-enable-hover&quot; data-token-index=&quot;3&quot; style=&quot;font-weight:600&quot;&gt;&lt;br&gt;&lt;/span&gt;&lt;/div&gt;&lt;div&gt;&lt;span class=&quot;notion-enable-hover&quot; data-token-index=&quot;3&quot; style=&quot;font-weight:600&quot;&gt;2. &lt;span class=&quot;notion-enable-hover&quot; data-token-index=&quot;1&quot;&gt;Сущность &lt;/span&gt;&lt;span class=&quot;notion-enable-hover&quot; spellcheck=&quot;false&quot; data-token-index=&quot;2&quot; style=&quot;font-family: SFMono-Regular, Menlo, Consolas, &amp;quot;PT Mono&amp;quot;, &amp;quot;Liberation Mono&amp;quot;, Courier, monospace; line-height: normal; background: rgba(135, 131, 120, 0.15); border-radius: 4px; padding: 0.2em 0.4em;&quot;&gt;&lt;font color=&quot;#009900&quot;&gt;Location&lt;/font&gt;&lt;/span&gt;&lt;span class=&quot;notion-enable-hover&quot; data-token-index=&quot;3&quot;&gt;&lt;font color=&quot;#009900&quot;&gt; &lt;/font&gt;(Локация):&lt;/span&gt;&lt;/span&gt;&lt;/div&gt;&lt;div&gt;&lt;span class=&quot;notion-enable-hover&quot; data-token-index=&quot;3&quot; style=&quot;font-weight:600&quot;&gt;&lt;span class=&quot;notion-enable-hover&quot; data-token-index=&quot;3&quot;&gt;&lt;br&gt;&lt;/span&gt;&lt;/span&gt;&lt;/div&gt;&lt;div&gt;&lt;span class=&quot;notion-enable-hover&quot; data-token-index=&quot;3&quot; style=&quot;font-weight:600&quot;&gt;&lt;span class=&quot;notion-enable-hover&quot; data-token-index=&quot;3&quot;&gt;3. &lt;span class=&quot;notion-enable-hover&quot; data-token-index=&quot;1&quot;&gt;Сущность &lt;/span&gt;&lt;span class=&quot;notion-enable-hover&quot; spellcheck=&quot;false&quot; data-token-index=&quot;2&quot; style=&quot;font-family: SFMono-Regular, Menlo, Consolas, &amp;quot;PT Mono&amp;quot;, &amp;quot;Liberation Mono&amp;quot;, Courier, monospace; line-height: normal; background: rgba(135, 131, 120, 0.15); color: rgb(235, 87, 87); border-radius: 4px; padding: 0.2em 0.4em;&quot;&gt;Status&lt;/span&gt;&lt;span class=&quot;notion-enable-hover&quot; data-token-index=&quot;3&quot;&gt; (Статус инвентаря):&lt;/span&gt;&lt;/span&gt;&lt;/span&gt;&lt;/div&gt;&lt;div&gt;&lt;span class=&quot;notion-enable-hover&quot; data-token-index=&quot;3&quot; style=&quot;font-weight:600&quot;&gt;&lt;span class=&quot;notion-enable-hover&quot; data-token-index=&quot;3&quot;&gt;&lt;span class=&quot;notion-enable-hover&quot; data-token-index=&quot;3&quot;&gt;&lt;br&gt;&lt;/span&gt;&lt;/span&gt;&lt;/span&gt;&lt;/div&gt;&lt;div&gt;&lt;span class=&quot;notion-enable-hover&quot; data-token-index=&quot;3&quot; style=&quot;font-weight:600&quot;&gt;&lt;span class=&quot;notion-enable-hover&quot; data-token-index=&quot;3&quot;&gt;&lt;span class=&quot;notion-enable-hover&quot; data-token-index=&quot;3&quot;&gt;4. &lt;span class=&quot;notion-enable-hover&quot; data-token-index=&quot;1&quot;&gt;Сущность &lt;/span&gt;&lt;span class=&quot;notion-enable-hover&quot; spellcheck=&quot;false&quot; data-token-index=&quot;2&quot; style=&quot;font-family: SFMono-Regular, Menlo, Consolas, &amp;quot;PT Mono&amp;quot;, &amp;quot;Liberation Mono&amp;quot;, Courier, monospace; line-height: normal; background: rgba(135, 131, 120, 0.15); color: rgb(235, 87, 87); border-radius: 4px; padding: 0.2em 0.4em;&quot;&gt;User&lt;/span&gt;&lt;span class=&quot;notion-enable-hover&quot; data-token-index=&quot;3&quot;&gt; (Пользователь):&lt;/span&gt;&lt;/span&gt;&lt;/span&gt;&lt;/span&gt;&lt;/div&gt;&lt;div&gt;&lt;span class=&quot;notion-enable-hover&quot; data-token-index=&quot;3&quot; style=&quot;font-weight:600&quot;&gt;&lt;span class=&quot;notion-enable-hover&quot; data-token-index=&quot;3&quot;&gt;&lt;span class=&quot;notion-enable-hover&quot; data-token-index=&quot;3&quot;&gt;&lt;span class=&quot;notion-enable-hover&quot; data-token-index=&quot;3&quot;&gt;&lt;br&gt;&lt;/span&gt;&lt;/span&gt;&lt;/span&gt;&lt;/span&gt;&lt;/div&gt;&lt;div&gt;&lt;span class=&quot;notion-enable-hover&quot; data-token-index=&quot;3&quot; style=&quot;font-weight:600&quot;&gt;&lt;span class=&quot;notion-enable-hover&quot; data-token-index=&quot;3&quot;&gt;&lt;span class=&quot;notion-enable-hover&quot; data-token-index=&quot;3&quot;&gt;&lt;span class=&quot;notion-enable-hover&quot; data-token-index=&quot;3&quot;&gt;5. &lt;span class=&quot;notion-enable-hover&quot; data-token-index=&quot;1&quot;&gt;Сущность &lt;/span&gt;&lt;span class=&quot;notion-enable-hover&quot; spellcheck=&quot;false&quot; data-token-index=&quot;2&quot; style=&quot;font-family: SFMono-Regular, Menlo, Consolas, &amp;quot;PT Mono&amp;quot;, &amp;quot;Liberation Mono&amp;quot;, Courier, monospace; line-height: normal; background: rgba(135, 131, 120, 0.15); color: rgb(235, 87, 87); border-radius: 4px; padding: 0.2em 0.4em;&quot;&gt;Inventory&lt;/span&gt;&lt;span class=&quot;notion-enable-hover&quot; data-token-index=&quot;3&quot;&gt; (Инвентарь):&lt;/span&gt;&lt;/span&gt;&lt;/span&gt;&lt;/span&gt;&lt;/span&gt;&lt;/div&gt;&lt;div&gt;&lt;span class=&quot;notion-enable-hover&quot; data-token-index=&quot;3&quot; style=&quot;font-weight:600&quot;&gt;&lt;span class=&quot;notion-enable-hover&quot; data-token-index=&quot;3&quot;&gt;&lt;span class=&quot;notion-enable-hover&quot; data-token-index=&quot;3&quot;&gt;&lt;span class=&quot;notion-enable-hover&quot; data-token-index=&quot;3&quot;&gt;&lt;span class=&quot;notion-enable-hover&quot; data-token-index=&quot;3&quot;&gt;&lt;br&gt;&lt;/span&gt;&lt;/span&gt;&lt;/span&gt;&lt;/span&gt;&lt;/span&gt;&lt;/div&gt;&lt;div&gt;&lt;span class=&quot;notion-enable-hover&quot; data-token-index=&quot;3&quot; style=&quot;font-weight:600&quot;&gt;&lt;span class=&quot;notion-enable-hover&quot; data-token-index=&quot;3&quot;&gt;&lt;span class=&quot;notion-enable-hover&quot; data-token-index=&quot;3&quot;&gt;&lt;span class=&quot;notion-enable-hover&quot; data-token-index=&quot;3&quot;&gt;&lt;span class=&quot;notion-enable-hover&quot; data-token-index=&quot;3&quot;&gt;6.Сущность &lt;span class=&quot;notion-enable-hover&quot; spellcheck=&quot;false&quot; data-token-index=&quot;1&quot; style=&quot;font-family: SFMono-Regular, Menlo, Consolas, &amp;quot;PT Mono&amp;quot;, &amp;quot;Liberation Mono&amp;quot;, Courier, monospace; line-height: normal; background: rgba(135, 131, 120, 0.15); color: rgb(235, 87, 87); border-radius: 4px; padding: 0.2em 0.4em;&quot;&gt;Action&lt;/span&gt; (Действие):&lt;/span&gt;&lt;/span&gt;&lt;/span&gt;&lt;/span&gt;&lt;/span&gt;&lt;/div&gt;&lt;div&gt;&lt;span class=&quot;notion-enable-hover&quot; data-token-index=&quot;3&quot; style=&quot;font-weight:600&quot;&gt;&lt;span class=&quot;notion-enable-hover&quot; data-token-index=&quot;3&quot;&gt;&lt;span class=&quot;notion-enable-hover&quot; data-token-index=&quot;3&quot;&gt;&lt;span class=&quot;notion-enable-hover&quot; data-token-index=&quot;3&quot;&gt;&lt;span class=&quot;notion-enable-hover&quot; data-token-index=&quot;3&quot;&gt;&lt;br&gt;&lt;/span&gt;&lt;/span&gt;&lt;/span&gt;&lt;/span&gt;&lt;/span&gt;&lt;/div&gt;&lt;div&gt;&lt;span class=&quot;notion-enable-hover&quot; data-token-index=&quot;3&quot; style=&quot;font-weight:600&quot;&gt;&lt;span class=&quot;notion-enable-hover&quot; data-token-index=&quot;3&quot;&gt;&lt;span class=&quot;notion-enable-hover&quot; data-token-index=&quot;3&quot;&gt;&lt;span class=&quot;notion-enable-hover&quot; data-token-index=&quot;3&quot;&gt;&lt;span class=&quot;notion-enable-hover&quot; data-token-index=&quot;3&quot;&gt;7. &lt;span class=&quot;notion-enable-hover&quot; data-token-index=&quot;1&quot;&gt;Сущность &lt;/span&gt;&lt;span class=&quot;notion-enable-hover&quot; spellcheck=&quot;false&quot; data-token-index=&quot;2&quot; style=&quot;font-family: SFMono-Regular, Menlo, Consolas, &amp;quot;PT Mono&amp;quot;, &amp;quot;Liberation Mono&amp;quot;, Courier, monospace; line-height: normal; background: rgba(135, 131, 120, 0.15); color: rgb(235, 87, 87); border-radius: 4px; padding: 0.2em 0.4em;&quot;&gt;Repair&lt;/span&gt;&lt;span class=&quot;notion-enable-hover&quot; data-token-index=&quot;3&quot;&gt; (Ремонт):&lt;/span&gt;&lt;/span&gt;&lt;/span&gt;&lt;/span&gt;&lt;/span&gt;&lt;/span&gt;&lt;/div&gt;" style="text;html=1;align=left;verticalAlign=middle;resizable=0;points=[];autosize=1;strokeColor=none;fillColor=none;fontSize=15;" vertex="1" parent="SI14YOLQEWjVCTlQ7veY-12">
          <mxGeometry x="13" y="61" width="370" height="250" as="geometry" />
        </mxCell>
        <mxCell id="SI14YOLQEWjVCTlQ7veY-38" style="edgeStyle=orthogonalEdgeStyle;rounded=0;orthogonalLoop=1;jettySize=auto;html=1;" edge="1" parent="1" source="SI14YOLQEWjVCTlQ7veY-33" target="SI14YOLQEWjVCTlQ7veY-16">
          <mxGeometry relative="1" as="geometry" />
        </mxCell>
        <UserObject label="&lt;div style=&quot;background-color:#282c34;color:#abb2bf&quot;&gt;&lt;pre style=&quot;font-family:&#39;JetBrains Mono&#39;,monospace;font-size:9.8pt;&quot;&gt;&lt;span style=&quot;color:#d19a66;&quot;&gt;spring.datasource.url&lt;/span&gt;=&lt;span style=&quot;color:#98c379;&quot;&gt;jdbc:postgresql://localhost:5432/inventory_db&lt;br&gt;&lt;/span&gt;&lt;span style=&quot;color:#d19a66;&quot;&gt;spring.datasource.username&lt;/span&gt;=&lt;span style=&quot;color:#98c379;&quot;&gt;postgres&lt;br&gt;&lt;/span&gt;&lt;span style=&quot;color:#d19a66;&quot;&gt;spring.datasource.password&lt;/span&gt;=&lt;span style=&quot;color:#98c379;&quot;&gt;admin&lt;br&gt;&lt;/span&gt;&lt;span style=&quot;color:#d19a66;&quot;&gt;spring.datasource.driver-class-name&lt;/span&gt;=&lt;span style=&quot;color:#e5c07b;&quot;&gt;org&lt;/span&gt;&lt;span style=&quot;color:#98c379;&quot;&gt;.&lt;/span&gt;&lt;span style=&quot;color:#e5c07b;&quot;&gt;postgresql&lt;/span&gt;&lt;span style=&quot;color:#98c379;&quot;&gt;.&lt;/span&gt;&lt;span style=&quot;color:#e5c07b;&quot;&gt;Driver&lt;br&gt;&lt;/span&gt;&lt;span style=&quot;color:#d19a66;&quot;&gt;spring.jpa.hibernate.naming.physical-strategy&lt;/span&gt;=&lt;span style=&quot;color:#e5c07b;&quot;&gt;org&lt;/span&gt;&lt;span style=&quot;color:#98c379;&quot;&gt;.&lt;/span&gt;&lt;span style=&quot;color:#e5c07b;&quot;&gt;hibernate&lt;/span&gt;&lt;span style=&quot;color:#98c379;&quot;&gt;.&lt;/span&gt;&lt;span style=&quot;color:#e5c07b;&quot;&gt;boot&lt;/span&gt;&lt;span style=&quot;color:#98c379;&quot;&gt;.&lt;/span&gt;&lt;span style=&quot;color:#e5c07b;&quot;&gt;model&lt;/span&gt;&lt;span style=&quot;color:#98c379;&quot;&gt;.&lt;/span&gt;&lt;span style=&quot;color:#e5c07b;&quot;&gt;naming&lt;/span&gt;&lt;span style=&quot;color:#98c379;&quot;&gt;.&lt;/span&gt;&lt;span style=&quot;color:#e5c07b;&quot;&gt;PhysicalNamingStrategyStandardImpl&lt;br&gt;&lt;/span&gt;&lt;span style=&quot;color:#e5c07b;&quot;&gt;&lt;br&gt;&lt;/span&gt;&lt;span style=&quot;color:#d19a66;&quot;&gt;spring.jpa.database-platform&lt;/span&gt;=&lt;span style=&quot;color:#98c379;&quot;&gt;org.hibernate.dialect.PostgreSQLDialect&lt;br&gt;&lt;/span&gt;&lt;span style=&quot;color:#d19a66;&quot;&gt;spring.jpa.hibernate.ddl-auto&lt;/span&gt;=&lt;span style=&quot;color:#61afef;&quot;&gt;none&lt;br&gt;&lt;/span&gt;&lt;span style=&quot;color:#d19a66;&quot;&gt;spring.jpa.show-sql&lt;/span&gt;=&lt;span style=&quot;color:#c678dd;&quot;&gt;true&lt;br&gt;&lt;/span&gt;&lt;/pre&gt;&lt;/div&gt;" link="&lt;div style=&quot;background-color:#282c34;color:#abb2bf&quot;&gt;&lt;pre style=&quot;font-family:&#39;JetBrains Mono&#39;,monospace;font-size:9.8pt;&quot;&gt;&lt;span style=&quot;color:#d19a66;&quot;&gt;spring.datasource.url&lt;/span&gt;=&lt;span style=&quot;color:#98c379;&quot;&gt;jdbc:postgresql://localhost:5432/inventory_db&lt;br&gt;&lt;/span&gt;&lt;span style=&quot;color:#d19a66;&quot;&gt;spring.datasource.username&lt;/span&gt;=&lt;span style=&quot;color:#98c379;&quot;&gt;postgres&lt;br&gt;&lt;/span&gt;&lt;span style=&quot;color:#d19a66;&quot;&gt;spring.datasource.password&lt;/span&gt;=&lt;span style=&quot;color:#98c379;&quot;&gt;admin&lt;br&gt;&lt;/span&gt;&lt;span style=&quot;color:#d19a66;&quot;&gt;spring.datasource.driver-class-name&lt;/span&gt;=&lt;span style=&quot;color:#e5c07b;&quot;&gt;org&lt;/span&gt;&lt;span style=&quot;color:#98c379;&quot;&gt;.&lt;/span&gt;&lt;span style=&quot;color:#e5c07b;&quot;&gt;postgresql&lt;/span&gt;&lt;span style=&quot;color:#98c379;&quot;&gt;.&lt;/span&gt;&lt;span style=&quot;color:#e5c07b;&quot;&gt;Driver&lt;br&gt;&lt;/span&gt;&lt;span style=&quot;color:#d19a66;&quot;&gt;spring.jpa.hibernate.naming.physical-strategy&lt;/span&gt;=&lt;span style=&quot;color:#e5c07b;&quot;&gt;org&lt;/span&gt;&lt;span style=&quot;color:#98c379;&quot;&gt;.&lt;/span&gt;&lt;span style=&quot;color:#e5c07b;&quot;&gt;hibernate&lt;/span&gt;&lt;span style=&quot;color:#98c379;&quot;&gt;.&lt;/span&gt;&lt;span style=&quot;color:#e5c07b;&quot;&gt;boot&lt;/span&gt;&lt;span style=&quot;color:#98c379;&quot;&gt;.&lt;/span&gt;&lt;span style=&quot;color:#e5c07b;&quot;&gt;model&lt;/span&gt;&lt;span style=&quot;color:#98c379;&quot;&gt;.&lt;/span&gt;&lt;span style=&quot;color:#e5c07b;&quot;&gt;naming&lt;/span&gt;&lt;span style=&quot;color:#98c379;&quot;&gt;.&lt;/span&gt;&lt;span style=&quot;color:#e5c07b;&quot;&gt;PhysicalNamingStrategyStandardImpl&lt;br&gt;&lt;/span&gt;&lt;span style=&quot;color:#e5c07b;&quot;&gt;&lt;br&gt;&lt;/span&gt;&lt;span style=&quot;color:#d19a66;&quot;&gt;spring.jpa.database-platform&lt;/span&gt;=&lt;span style=&quot;color:#98c379;&quot;&gt;org.hibernate.dialect.PostgreSQLDialect&lt;br&gt;&lt;/span&gt;&lt;span style=&quot;color:#d19a66;&quot;&gt;spring.jpa.hibernate.ddl-auto&lt;/span&gt;=&lt;span style=&quot;color:#61afef;&quot;&gt;none&lt;br&gt;&lt;/span&gt;&lt;span style=&quot;color:#d19a66;&quot;&gt;spring.jpa.show-sql&lt;/span&gt;=&lt;span style=&quot;color:#c678dd;&quot;&gt;true&lt;br&gt;&lt;/span&gt;&lt;/pre&gt;&lt;/div&gt;" id="SI14YOLQEWjVCTlQ7veY-33">
          <mxCell style="text;whiteSpace=wrap;html=1;" vertex="1" parent="1">
            <mxGeometry x="718" y="270" width="810" height="190" as="geometry" />
          </mxCell>
        </UserObject>
        <mxCell id="SI14YOLQEWjVCTlQ7veY-39" style="edgeStyle=orthogonalEdgeStyle;rounded=0;orthogonalLoop=1;jettySize=auto;html=1;exitX=0.5;exitY=1;exitDx=0;exitDy=0;" edge="1" parent="1">
          <mxGeometry relative="1" as="geometry">
            <mxPoint x="1123" y="250" as="sourcePoint" />
            <mxPoint x="1123" y="250" as="targetPoint" />
          </mxGeometry>
        </mxCell>
        <mxCell id="SI14YOLQEWjVCTlQ7veY-40" value="&#xa;&lt;span style=&quot;color: rgb(0, 0, 0); font-family: Verdana; font-size: 31px; font-style: normal; font-variant-ligatures: normal; font-variant-caps: normal; font-weight: 400; letter-spacing: normal; orphans: 2; text-align: left; text-indent: 0px; text-transform: none; widows: 2; word-spacing: 0px; -webkit-text-stroke-width: 0px; white-space: normal; background-color: rgb(251, 251, 251); text-decoration-thickness: initial; text-decoration-style: initial; text-decoration-color: initial; display: inline !important; float: none;&quot;&gt;Связь между backend and БД&lt;/span&gt;&#xa;&#xa;" style="rounded=0;whiteSpace=wrap;html=1;" vertex="1" parent="1">
          <mxGeometry x="828" y="210" width="570" height="60" as="geometry" />
        </mxCell>
        <mxCell id="SI14YOLQEWjVCTlQ7veY-41" style="edgeStyle=orthogonalEdgeStyle;rounded=0;orthogonalLoop=1;jettySize=auto;html=1;entryX=0.995;entryY=0.258;entryDx=0;entryDy=0;entryPerimeter=0;" edge="1" parent="1" source="SI14YOLQEWjVCTlQ7veY-33" target="SI14YOLQEWjVCTlQ7veY-9">
          <mxGeometry relative="1" as="geometry" />
        </mxCell>
        <mxCell id="SI14YOLQEWjVCTlQ7veY-78" style="edgeStyle=orthogonalEdgeStyle;rounded=0;orthogonalLoop=1;jettySize=auto;html=1;" edge="1" parent="1" source="SI14YOLQEWjVCTlQ7veY-42" target="SI14YOLQEWjVCTlQ7veY-77">
          <mxGeometry relative="1" as="geometry" />
        </mxCell>
        <mxCell id="SI14YOLQEWjVCTlQ7veY-42" value="" style="shape=image;verticalLabelPosition=bottom;labelBackgroundColor=default;verticalAlign=top;aspect=fixed;imageAspect=0;image=data:image/png,iVBORw0KGgoAAAANSUhEUgAAAycAAAH0CAYAAAAnnFIBAAAAAXNSR0IArs4c6QAAAARnQU1BAACxjwv8YQUAAAAJcEhZcwAAFiUAABYlAUlSJPAAAM2qSURBVHhe7P1BTCLrnj9wf++b6AYzkWSiC9nIhj6JbOibSOaN3gVnkmahnTe4OHQyTc89dHLF5OCiNTk6N12duXoSvQv5J403sc6dgyfTnIUstBe6uCymTSY4GdnQyWk2uMGFZhJcwAYX930KCkUFpYoCEb+fxG6rAKvqqV/9nnqop+r5zfDw8N+h+uqrr0r///rrr6X/6aFwYHHzHSyJP2A6fKzOo/ZwYE5+B1v6DfyraXUeEREREenx/1H/pwfM5PPC0ZPCNhsm9yCJVf8EGyZEREREBuCVkwfJh9DHKVjVqSsyW5gIRtQJIiIiIqKHg40TIiIiIiLqCGycPAKhjx9rX2W5xcTEhPobEREREVF7sHFCREREREQdgTfEExERERFRR2DjhIiIiIiIOgIbJ0RERERE1BHYOCEiIiIioo7AxgkREREREXUENk6IiIiIiKgj8FHCRB3p9wh9/P9h8H/+jG/+/b/UeY+NCSOeOcxMPYWlT50lFItFFJJhvFyKq3M6mQtSdBZPq9Y/f7gCr7SvTnUKxhsREXUGXjkhMphjcRMfP36s+RPyqW+6d35xMipjbkSd7EAmj4R3r6zIbb3Fv0xMlAYGVX48Hs8DaZgo4pC8l+u+cphX57dC5+9TIiKiu7BxQmSw5NLLi5PR7Uz5m/LKdDCivulOf0VQvL+132KbYDKrv3Yg7/gTFA8jWIglcabOo7vo3aftiDciIqK7sXFCRB2sqP5PREREjwHvOSFqIX/oI1y5Ru8x+Ge8/c/v8Nt/UCeFQiP3APSPwT/7AuN2C8y9yowi8idZpBMp9LrGUVh7iaWD0jsx4F/Hj88t5Yl6cgm8fbmEpDrZFNMIPLMzeO6orJtQzCGb3Mb7tRg+F9R5Fb4QPk5Z1Ynacom3eLnU3NopXe/eOSuXGDLYnghCFuUYWPRh7MkglFtE8tlPkN+sIl61jrZJCbPea/fA5E+Q2Y9gKbx/5xWeMSmKAMJ3xIMJQ65neOH6GnbbZbkV81mktt5jNfYZ1cWmf5/qjDcN+/Ry3fI4XJlG3P4Or91WlEu+iFwmjvcLYRxcjwOFhrgmIqLuwcYJUQtpa5xc9bs//oJprN9xsjiGxc15OAqfEPnpA+IHx+LEVZzcjrow9cKLr8V5/uGKFzcXr9yf4EKu5msGMbmwuO6H5VDGn+Q4jisnoKYhuHzz8DsLiC4tYCetzr+mmbJr2JiE6LwZ++9P4fDZUBCNjPB2Aulji1j+sli+0pAo399i84cguUw4ikcR2VXeIzZIbIvN6YbP64atsIuFoIw6m1PSUONkdBGb/zaC4pckdve2EI8f4UwsZ/TZDGZe2ZDb/g5B+Vh9c7Xm9mlD8aZrnyrr5YbppCgiM42t8BpiyTP0OzyYDbyAvWa56Y1rIiJ66Niti+ghG3NhxJzB7vQqdkoncIoCjg92EApGkMqf4/xeekYNwb8cwPChhOlQ1UmsonCMeDgIKWGGby4Imzr7/ljh9vVjf2kawXC83OgQp8py0HPRMMGQHwG3CQnJjwVxUl5+jyC2JR2XseBfwC7cmJtzlOc342AJLye88M+tIqY0TJR5YjkHsQWsJQqw2t2lt7VfM/u0F6bcHiS/VGqYKM6SMUhv4zi1jmNqtDTrUsfGNRERtRobJ0QPWTKJo7wF9sAoRob71ZkVe1jw3lPXF8crjFvEyWWo/nWEdHgXabMT3jF1xr3JipPgOURu9DG7NDTlhDWbgFx3c0RjZisFk2MSrdyc5ElO/e0eNLVP80jvRG5eVTpO4STfg55K97CKTo1rIiJqOTZOiB6ywg4WpteQHn6NxT//rD6yOIZYbBPrkg8jJvV97eYYgDmXRUKdrC2O7GkfzPd+6aSI4h03i1jNoiCtz/HLtUdDX/mZf4q+PrMBV4L6MRZYhRyNXf37sRiirjvuLWmldu7TTo1rIiJqOTZOiO7JUGAdsVWPOtWEs32E5/zweirjaXjgefk9tnJOLK4vY/L++011heKXny4eCV3/JwhZfb8+NvhDP2LeZcZpPIw3f/jm4m9/890C1pL3eOWk3RjXRESPEhsnRPfEOtCP3t4WDTSi3AMQeoNo1gaf34AGkFbJU+TMFjjVydpcsAzkkavfS6hj7KeyYoc9xWSrv7H3+OG2pLHx8tq9LULhOI2DXP2uZy3XCfv0vuOaiIhajo0TogdMeaKVXHdI8AZOZK/39Vf1Dw2hqfPw5E/4lLXCHaz/9bYt4IYtl0D0ITxxKRZFImfH1JyruXK5i7kXvbkcMrV2Xf8zLDob6NbVBfu06bgmIqIHi40TogducPwd5GU/XLbqk89+OAIh+OwFJHdi6rxqu0hlemH3SvA4yjccm4ZsGJ0MQFqP4ue/zMM7UJqt0zHkhTCOnkqQJQ9Ghy7XzDQ0Co8kQ3LmEFkN3bxJuiMlsbq6hRPbLDblZfhdw6KEK/oxPOKCf1lGLLaMSXWuLrspZMxOzIoyU3cL+odHMRkMIfrzDGy9tz2iqrv2qb64JiKih47jnBAZ7OoAf3fIbGMiqNyl8Ft8/x9v8U//WJ5d1//9N9796w/4X3VS+YbZnn6LeM8U3PZhDAz2qV+cF5HLJrH9fg2xek+hMo0iIL2+GHRQUcxlkT7cxVZkB+oTX5ujcRDGRsouszWBYESd0MOxiM13TnUgwDoyW2K/1FhIre2pDA6YjGPnQ3W5ObC4+Q53hsK1ARJNo6Ix8XoMT8S+LFP2ZQqfPqxBtr3Dx+flQSqz299iWj4t/X6h4X2qL95KNOxTn4jPK2NqVm/r9QE3q8q8qbgmIqIHjY0TIiIiIiLqCOzWRUREREREHYGNEyIiIiIi6ghsnBARERERUUdg44SIiIiIiDoCGydERERERNQR2DghIiIiIqKOwMYJERERERF1BDZOiIiIiIioI7BxQkREREREHYGNEyIiIiIi6ghsnBARERERUUdg44SIiIiIiDrCA2ucuCBFP+LjR/ETlTCmziVgdHETm4uj6hQRPWbMB6QXY4eI7ttvhoeH/67+jq+++qr0/6+//lr6Xx8bngUDeDFuhblXnZU/wZf9CD4Pz8J1toKXSwfqCzr5Q/joymHFK2FfnfXYjUlRBBCGV2KJ3CufiM0pqzqRx+GKF5e7xIHFzXdwmtXJkiwmJqbV34mM8ZDzgbLu80/71KnbXD++yAgdFzumEXhmZ/DcYbk4pyjmskhuv8da7DMK5VlE1EUMvnJiE+2GZfisGWyt/AHfTEyIE69/wXdyEr1j85h60ouenkqLhagLRYIi5iewnREVaB546guKo6IiiaWXyjExgZVD8WJmmw0Tohryhyul46T8s4Ly4VKZVn62IQ4x6nY2H1blH/BiOIdP4e/wL8q+/5fvEP6Uw/CLH7AZ8lflVyLqFsY2Tjx+uAfS4vwshJ2DY/UbjTMcxcMI+n/Cl2JpBtGjUEzHcWgaR8A/pM4hIqKGmFyQFqdgPd3Ggn8BcvxInE0IZ0eIywvwL2wja3mOxUV28CbqNoZ261L6qv7bwCdMBGV1zlX+0EeMn/6pRrcuE0Y8s5h57oDloi9YEfmTDPYjR7DNO5D93o/Vz+pLlW5d03HY372Gy2pG+VM5ZP/2Ad+H9spJ7BrbpIRZ71NYqnoMFPMnyOxHsBTev/iMf/0jnlvEL/kUdj+bMea0QPlI7ssWlqRDOCXlKpDSNyeP7CcZb1bjVZeWTRhyPcML19ew26ouQ+ezSG29x2qLLkOzW1dnUWLdlVuBPzWJzalzRETlulO140tdV8zxa8dK47HTXIw2fizQw/TQu3VdXfcxSNF5mOMTuDxc/Ah9dCGndusaCKzjR7dyQJRltsR7I+qEMOAXr5cOmLKJrcxF90vlKo1/awBzM1OwiwOifNgVkcsmsf1+DbHPNzN2Nx8/nRI7Q2Kf/mUsh41rubOaaXIZ8msz9v8wjcSrTbyr6jOb3f4W0/KpOqW60u1WxMHERFVsKN0EpxG3v8NrtxXlvyTiIBPH+4UwDmqsg9Y4cIhzpMt1zGB7Igi5fwyBRR/GngyWcng++wnym1XE62wz0WNg6JWTgy8nKFps8JjUGdfIwYkaDRMbfKsyfpgaQCqygD98U75s/80fFiAnCrAH3LCKkzbTZc4p67Xi9fprWD6t4dvSZf5v8Ic/bSP3dAbry5PiE1fZRING8lqQi6/hzR++KXcN+OYPWJATOHfM4seqy8PytHhN6ZfTZ4fbASRW/gXffL+LnHUSkvwOk+Y03ou/8S/v0zCN+7H4TP2gYnQWP8xOwdYjEk/lMrRYzspWDtZX77DMb9EflUJMRvzMhsmACKS7aIidZmJUy7FA1G7F83Ocn991mT2LQr6AQq48dRqexjc/fREnhilsiDqkumGiOJWnMfGHXfGpHBJvJ650v0SvC8vvXsBysoWVyvEw8S3W/tYD97t1SK6rtQmPn3YYwQuHBSfJD3UbJorCzhY+5yxwTA0hufSynBNzCfxJ7JMbDRNFab9/g92s8rY/lWaVYqPUTbAXFt86Ao4ctt/+S2m//svbD8iYXJhfvrlP9cRBaR2V960ciqaQCL1ni5DFeYztKAqp9DfeIF50wj/nKn+A6JEytluXOBHbzVrxalPGcmASo8P96gv12YJzmBpMY80fRDiexrGaiArHacRlCdNvlArlshK60GsSSWEJC7Gk+u1EAccHMSyIE7Qz+yQCI6WZZUN+BNwmJCS/SBxxpC8XgnRcLl0y3oUbc3PXTyBP8LeFaYT2z1D4HMZOqog+pBAOLmFP/I2zvVUksn0YsFct7GAJLye8IrmsIla5DC2WcxBbwJpobFnt7tLb6LFII7yRAJyvEbjrjEVX7GiMUd3HAlF7HIgTuLsfmrKHBW/V1XShEIsiUbBj0l/7QBt7PYaBzCf8lFRnqPrsNhQ2voVfiuGgcjyIoy8Zk+BfSsESkC6/cOPx0yZOWAbzyCardnBNSSQyeZgtzvLkbgYnZgue1vmCtOwZhgeKyKaux1gvTLk9SH4JsWT5rOIsGYP0No5T6zimqh9gZkgcWOH29WN/aRrBcOVvpCEHPfBK8fJbiB4pg2+IVw6sb/E2kgLsU5j/fz+XHvsbi8oILXowOnQ9Y4zB6zTjS/yWS5jHYUxPXK2ESvIpbMlpdaLKcQon+atXWoamnLBmE6j19jKx3lspmByTVx9PnM8iWfWZ0nd5p9mqdS2gKGaablzWqS15cr2FRY9CUjQa0v1w+T03rug1qm7saIxR3ccCUcdLIrz7BWanT5x+XmPyYdIuontXxrE660ImjqW96x1wVOLYTZ4+wde+8lVLHj9tdtcFNEF5S2+vWgcfJ5HND8ByceFhCEH5Iz5uLuKimTD6BIO9p8jeOP/PI70TEXvwmtI5RQ+qn+VjTBxksTs9h0iNboNEj53BjRPFGZI7ISxMv4RHuXz5L9/hrbyLbP9zzP9FxqqnuluTDeY+5T6R1h6cVrM4JbQ+xy/K+Cj1fuafoq/PbMDl+H6MBVYhR2NX/34shqjrss8zPSYF7LyPI2udwtytZyytj532HgtE7aVcPUme2/E8cLX7rGPWhSen+3i/p86oks+lxRFaTwGpkzwGLE9LUzx+Oo/SZigWK1/e7COVBQZs6pVixys8HRT/m22l7q+KIecwzCcZfGritMOYOCiiWKdNTPTYtaBxcs3ZET7HY1ide4kF0Qh54n6B6h5X7VL88lO5r+etP0HUvpW/UcqjlH/EvMuM03j4sh+q+PnmuwWsJXnl5NE6lhEWteHVRwtXa1/stOdYILoPSazFv2BgbOby6onJA6+jB6ndyM2rJjrw+GmHBLInfbA47rpH0wGntQ+5bEKdBvaOTjGodvNyuG0wfdnC1hcTRibL3ww5LWYUT9O4q8PYXRgHRK1jYOPEg9XYJm4bWDadzCJvMqlPwVAoNzWaYflab2eXxuwrX6VYn2KytYspP0rZksbGy2v9UAXlHpqDHC/fPmbpUKT+o4XbFDttOxaI7kkhcvXqiSPgxpNcElt17qzuM4sTWPX3m0ywD/bhNHtYmuLx0y6f8UGcLww6X+Pa8wiuME1OYcScRXLrstlZOMwiN2CBSzRPp0ZMyHwWjZPPGfTa3GLOGOyWXmQzzd3TwTggai0DGyfmUr/PEberbqIfsg+i7+y0avCsPWwlc3jimqufgEwjCIRiiC7f6EXcOOVGyZwdU3P1180Q5l705nLI1KoD+59h0dnabl1KJUudbB+rWxlYXDOX/Z8r2hU77ToW6N493nxQdfXENIkphxlfdsNibh3WcSw+q/PwFkcAjoEv+FtEPfl9JMdPJ8TOcWQLh+dPEajxpKwSmx/LPjvOEx8Qrr4kdpBCtteCEc84hnszSEQKosGaQKZ3GOMeByx9J8gmmvyyh3mUqKUM7tZVRK99FnIoiMnRYVTSff/wCFz+Zbwb68GnD+Erl9aTq6vYFgd5ICTBMzp0caD3D49iMrAMefMH0XBJIrJSo7Nww5JYXd3CiW0Wm/Iy/K7LdVP6+Q+PuOBflhGLLWNSnavLbgoZsxOzkgcOdQGl7QiGEP15BrbeBu7uo66mPFr4U8GOcXvV3ZWKtsVOm44FontUuXoyFZqE/TyJaKz+yWg+lUaPbx2yOPYuH9rSD4dHgjxnx1FYwuXHefy0TSEOaWkLmYHn+HM0hEClrPuHS+cT8vJzWLLbWFq6Ph5LHJmsGc4pG3rT+4iV5sWwn+6FbcoJc/EU6Wb7dDEOiFrKwEEYlW5dz3G29h5Z1yu47JeDyKGYx0kmgS05hL2aT7dQbgRehG/MisG+iw+VBmFMbEUg71UGn3NBis7iadWAR7nEW7xcKn8ndnWAIyF/iAmvpE4IphF4Zmfw3FG1bqXlZJFOxrHzYQfKEwQvBrgrUZ6L/xLKIkoD55UWnsHWRBDKo/SVwfaeW8uDOSlMowFIr8fwZLCykspgXinRKFuDbHuHj8qbhZoDRDWh9qB+1H4+hD5O4XKYLyGXwNuXS5ff3DrmIL8bx2Bm+8r+0hI7h09/1B2jJQ0eC/QwPfx84MDi5jtUp/NqjeRPk28Vm1NWZLZeYi5Su3FSGSzVu4YrA+GVj736gzB28/HTcbFTo6yLuSyS2++xVmdQ45E5GT+Mm5B678VC5XvNZ8uIztjRdy3v+kQMVI3LeDVfXxu0UQST+GzVIDpa4sCxiM13onGkTtZ0/e8TPVKGjhBP94eNEyKqYD4Ahvwh/D9XDmteCfXGOr9onNzzaOidhLFDRPet9U/rIiIiaisHXo1bcbq/UbdhQkREnYmNky5RPD+vetY7ET1mjz0fmHxeOHpS2L5ypzQ1gnUJEd03dusiIqIHrsa9XhW1+vFfv5dAldmaALv8ExHdLzZOiIiIiIioI7BbFxERERERdQQ2ToiIiIiIqCOwcUJERERERB2BjRMiIiIiIuoIbJwQEREREVFHYOOEiIiIiIg6AhsnRERERETUEdg4ISIiIiKijsDGCRERERERdQQ2ToiIiIiIqCOwcdIlRhc3sbk4qk4R0WPGfEB6MXaI6L6xcdIlent60NPTq04R0WPGfEB6MXaI6L6xcUJERERERB2BjRMiIiIiIuoIbJwQEREREVFH+M3w8PDf1d/x1Vdflf7/9df/L0Ifn8NamrpNBtsTQcil3/38TLs+4wvh49Tdn1BktiYQjCi/sdz4GQU/03WfYT4Q+Bldn2HsCPyMvs8QtU6dxsmvpf/p4RiTogggDK+0r84hoseK+YD0YuwQ0X1jty4iIiIiIuoIbJwQEREREVFHYOOEiIiIiIg6AhsnXaJ4fo7z86I6RUSPGfMB6cXYIaL7xhviiYiIiIioI/DKCRERERERdQQ2ToiIiIiIqCOwcUJERERERB2BjRMiIiIiIuoIbJwQEREREVFHYOOEiIiIiIg6AhsnRERERETUEdg4ISIiIiKijsDGCRERERERdQQ2ToiIiIiIqCOwcUJERERERB2BjRMiIiIiIuoIbJwQEREREVFHeFiNE18IHz9+LP1EpTF1ZqNckKLlz+r7G79HSHzmlz/+Tp3uLKOLm9hcHFWnHqPO3j9E7fRg88G95nhSsC4hovv2sBonkSAmJiawnVGnNYlD8k6UPq/8rBzm1fndobenBz09verUQ+UXDQwZcyPqJBHp0tp80MLjlDn+3nVHXaIH6x+iTsFuXQ37K4Kiwvvm3/9LnabWMMFkVn/VhPuHqH30HqdEnYxxTdQJ2DghIiIiIqKO8Jvh4eG/q7/jq6++Kv3/66+/lv5vmNJPeMpa+jV/uAL/1gDmZqZgt/ShfHG4iFw2ie33a4h9LpTmlPsHz+Jpn/g1f4gVr4T98gviJQnR2adQXhIv4nDFC+niRcAf+ghXbgXeNSCw6MPYk0H1vbWWU9uYFEUAYXir//AN/4y3//kdfvsP6qRQ+J8/N/DtvAkjnlnMPHfAYq5cHi8if5LBfuQItnkHst/7sfpZfckAjW2PHiYMuZ7hhetr2G0WVDanmM8itfUeq7HPqF3SjZfBgH8dPz63qO+pI5fA25dLSKqTZTr3j2kEntkZPHdcbg+KOWST23i/FkN16FyumxKH04jb3+G124ryl2si3jJxvF8I46BWIfSPwT/7AuP2ynKU7c8inUih1zWOwtpLLB2U3klkqFbkA/3HqfYc0r4cD9gmJcx6n0JUVxeK+RNk9iNYCu/jTJ33WBgeO7rOD6poyNcXNORe/XEtVm00AOn1GJ4MqsEjYvpQienTKcjz6jlMZgsTwUjpZcfiJt45K5dmMtieCEIW61od4/nsJ8hvVhGv2i5dMcr6hx4wYxonqlKFUjjEqc0OU+oDNjb2cHCsHGH9cIgT1cALK7LhaUjVR51fJC5X7mrj5MKYaMAEgHCNxkllOeldRDe2ED86Q/+wC1OvvXDbe5Fau7aca/Qk4N/98RdMY/2Ok18bfKsSpiyn2JXD2E6koRSBacgGp9uLKZeSYG42uJrVssbJ6CI2/20ExS9J7O6Jco4f4cw0hNFnM5h5ZUNu+zsE5WP1zRV6y0Dp8+tCTmfZNLR/TC4srvthOZTxJzleWq/y/CG4fPPwOwuILi1gJ63OL1HWyw3TSVGcZqWxFRaVaFLEm8OD2cAL2Au7WAjK4pVqY1jcnIej8AmRnz4gfnAsTsDESdqoiNEXXnwt6mqjY4CoomX5oETjcaojh7Qrx9tE/SO5TDiKRxHZTSBdTlSwOd3wed2w1Ty2u1urYkfX+YGufK0392qLa5NLwnrAgsyHDWzsHZTWrVwnTMFaOEOPtYi40vhQ33/FmITovBn770/h8NlQEI2M8LYSfxZRTsuiYa6Uf7z0Vn0xyvqHHjbDu3X12cWBtvEt/FJMTTyKMyRjEvxLKVgCEjwmdXYT+ux2YHcB/gW5VGkpzo7ikBf8WNjOwW7QcrSyBecwNZjGmj+IcLx8Uq4oHKcRlyVMv9lFVqSJQq48v+MdLOHlhBf+uVXElJMKZV7hGAexBawlCrDa3aW3VevcMhiCfzmA4UOxDqGqik4htikeDkJKmOGbC4rm1XW9MOX2IPmlUsNEcZaMQXobx6l1HFPXH24z5sKIOYPd6VXslCoGRQHHBzsIBSNI5c9xXizNJOpuOnKIouU5fsiPgNuEhCT+njjxLZ30KcS6peMyFvwL2IUbc3OO8nxqmrbzA535uh251+SBFLAho6xDrNwwUZTqBNFQyJgt6pW+21jh9vVjf2kawXAl/tKQg56LhonuGGX9Qw+c8fecZOJY2itXJDckw0iePsHXviF1RhOycazItb/PSssr+JR7ArffgOVoMgav04wv8auXZK84DmN6wtguXfcleVKrddHBZeB4hXGLSNih+t+DpsO7SJud8N54Amke6Z3IzW9Qj1M4yffgxsNtkkkc5S3iBGoUI8P96syKPSx4eUmdqHYOUbU4xw9NOWHNJlBnEYI4UdxKweSYFFmNDKHl/EBvvm5D7jV5x/Ekl8BGrUquEMfqp0YeN5cVjYc5RG7pnqg7Rln/0ANneOMkn0urrfRaCkid5DFgeapO65c/SeF6Z6JLx0hm8zBbnOp0u9hg7ssh+7f6JfDw9GMssAo5GrsyfsDHWAxRV61+uh1cBo4BmHNZJNTJ2uLInvbBfPPSiTaFHSxMryE9/BqLf/5ZLbcYYrFNrEs+jNzDVT2i+6E1h5S1OsdbzeIgtD7HL9XrdP1HuW+gz1zjSirpoen8QG++bkPudVgGkM9+rhufhXQOdz/IuohinXZahe4YZf1DD1x3P63r/Fz9hfSxwR/6EfMuM07jYbz5wzcXYwh8890C1pIPpW/aPTnbR3jOD6+nMvaCB56X32Mr58Ti+jImecZDXa/FOaTJHF/88tPF+tT/qXPfAHWuLsq9umOU9Q89YMbfc2K2oX6j3AT7YB9Os4fqtH59g3bUv6A/BIfFmOVok0Uhb4bl6y75WsLjh9uSxsbLa/1dBeX+kYNcre/AOrgMkqfImS24/btWFywDeeTq9yRojtJXOvQG0awNPr9HnUnUpXTlkLJW5/j9VBawPsUkv0VuG03nB0bnawNzbzJ7ij7LSN34HLJXni7XHMNjlPUPPRDGXzmxjmPx2fU+jipHAI6BL/hbpOpiqHr583qXfYVpxI7BWi8oLC7M+2s3/fufzcBpvracttjDVjKHJ645uOolE9MIAqEYosvP1BnGURK/ocy96M3lkKl1/tD/DIvOWl0yDCiDOvu8f2joloqtAcmf8ClrhTtYv5xsATdsuQSiTT7FRHkyjVx3qOH6J2RERjE8H1zXyHGqK4eoWp3jY1EkcnZMzbmayytdqGWxo+X8QGe+bjr3NhDXhegnfDE78bpWJWdy4fXYHY8mbpTOGGX9Qw+d8fecpNLo8a1DljwYHaocTsqjAiVxsNhxFJYQqz429hM4gh2TAYd4l6rfgclgCOvzDvSos67Lp1KAexnysh8u9YYv5TGT/mUZP85Y8Pn6ctokubqKbZFMAiEJntHLZNY/PCq2Uazv5g/ipD2JyMqe+koH200hIxLwrNiXDnXnlLZD7JvozzOw9dZ+3If+MthFKtMLu1d8Tl2g8vjh0ckApPUofv7LPLwDpdk6HUNeCOPoqYjFK/GpLGcUHkmG5Mwhshq6eeO7DoPj78rxaatuVIljIRCCz15AciemziN6SDQcpzpziKL1OT6J1dUtnNhmsSkvw+8avqyDxG/DI+VlxWLLmFTnUnO0nR/oz9f6cq+GuC7EIIXTsIq/J3kuz12URwkvrwdgPc02cM9JI/THKOsfesiMH+dEx8BZykBGyzNuWCtjE+VP8CWxhYhcwJQ8Xx6oURnIKOm4MphT48txYHHzHS7GPqrnykBLv8X3//EW//SPpYn6/u+/8e5ff8D/qpNlyg2gi/CNWTHYV/kapjwAYWIrAnmv3sCF+inPpp83xzERNLZ39I1BpkplnMKnD2uQbe/w8Xl5f2S3v8W0fFr6vUxnGZhGEZBeV+1T8alcFunDXWxFdqA+xVdoYv9oGNTLJ2JaDbmy6hipGlyspGqwLeVYsKffIt4zBbd9GAOi/MqLanwQOSK9WpUPLjR8nGrMIeeLbczxqlr5oJSrxPYk49j5cHV7ul2rYkfv+YGWfK1oKvdqiGvF7YMwmq+Oc+JYxOY7pzqAbx1VdcgVGmOU9Q89dK1pnHBkn7Zr+ckIET0YzAekV8sbJ4/h/EAdZLHuIIxEdKvufloXERERURuZrCb0ntz1GGQiqoeNky5RPD9HschH+xIR8wHpx9hpRvn+mdDkIFLRMLpgrGWie2FMt67rfe9Vma0J1Oo+SURERI9AN58f1Nq2XAa77xcQPuA9HUR6GXrPCRERERERkV7s1kVERERERB2BjRMiIiIiIuoIbJwQEREREVFHYOOEiIiIiIg6AhsnRERERETUEdg4ISIiIiKijsDGCRERERERdQQ2ToiIiIiIqCM8rMaJMhrrx4+ln6g0ps5slAtStPxZfX/j9wiJz/zyx9+p051ldHETm4uj6tRj1Nn7pz2aLAPHIjbVY+NjyK/OpIeI+YD0YuwQ0X17WI2TSBATExPYzqjTmsQheSdKn1d+Vg7z6vzu0NvTg56eXnXqofKLk2sZcyPqJLVXcgkvu/DYeIy6Ix/QfXi8scP6h6hTsFtXw/6KoDhx++bf/0udptYwwWRWf9WE+4dlQETUDL31DxEZiY0TIiIiIiLqCL8ZHh7+u/o7vvrqq9L/v/76a+n/hin3gkxZS7/mD1fg3xrA3MwU7JY+lC8OF5HLJrH9fg2xz4XSnPI9ILN42id+zR9ixSthv/yCeElCdPYplJfEizhc8UK6eBHwhz7ClVuBdw0ILPow9mRQfW+t5dQ2JkURQBje6j98wz/j7X9+h9/+gzopFP7nzw18M23CiGcWM88dsJgrl8eLyJ9ksB85gm3egez3fqx+Vl8yQGPbo4cJQ65neOH6GnabBZXNKeazSG29x2rsM2qXdONlMOBfx4/PLep76sgl8PblEpLqZJnO/WMagWd2Bs8dl9uDYg7Z5Dber8VQHTqX66bE4TTi9nd47bai/OWaiLdMHO8XwjioVQj9Y/DPvsC4vbIcZfuzSCdS6HWNo7D2EksHpXc2QV8ZmEY8mJ15DofFfHmMZj7hQziEgjeKeXMcE0G59EpTdJSBbVLCrPcpRPq4UMyfILMfwVJ4H2fqvGq1tyeOjbdhYFZsTynRoNSl8zFoXT4QOm6frumuSxRa1q2pfKCjXtBTbs0yPHZ0nR9U0ZCvL2iIUf31j1i10QCk12N4MqjuIFEvHir14ukU5Hk17jJbIpdGSi87Fjfxzlm5NJPB9kQQsljX6vOYfPYT5DeriFdtl644aEv9Q9QaxjROVKVGQ+EQpzY7TKkP2NjYw8GxcoT1wyGScuCFFdnwNKTqo84vEpcrd7VCuTAmKp0AEK7ROKksJ72L6MYW4kdn6B92Yeq1F257L1Jr15ZzjZ4E/Ls//oJprN9x4meDb1XClOUUu3IY24k0lCIwDdngdHsx5VISTO1KshktOxkZXcTmv42g+CWJ3T1RzvEjnJmGMPpsBjOvbMhtf4egfKy+uUJvGSh9fl3I6SybhvaPyYXFdT8shzL+JMdL61WePwSXbx5+ZwHRpQXspNX5Jcp6uWE6KYrTizS2wqISTYp4c4iTp8AL2Au7WBAn8lc+ImJ3cXMejsInRH76gPjBsWjEiYbeqIjRF158Lepqo2NA0UgZmFyLWPcPIxuP4n20XAamoVE8e/UKU44eZE9NeFI0onGivQxsIh9ILhOOxLpFdhNIl1cONqcbPq8bthplXd4eCw7lP0GOK8sob49r6gW840A6PYCnJoMaWw9E6xonHbxPddQletZNXz7QnhP1rVvzWhU7us4PdOVrvblXW/1jEg3f9YAFmQ8b2Ng7KK1bOQamYC2cocdaRFxpfKjvv2JMNJrnzdh/fwqHz4aCaGSEt5V9bBHltAxXTin/eOmt+uLgfuofIqMY3q2rzy4OtI1v4ZdiauJRnCEZk+BfSsESkOAxqbOb0Ge3A7sL8C/IpYaJ4uwoDnnBj4XtHOwGLUcrW3AOU4NprPmDCMfLFZCicJxGXJYw/WYXWZEmCrny/I53oNwk7YV/bhUxpWGizCsc4yC2gLVEAVa7u/S2ap1bBkPwLwcwfCjWIVRV0SnENsXDQUgJM3xzQXEqcV0vTLk9SH6pdCKiOEvGIL2N49Q6jqnrD7cZc2HEnMHu9Cp2ShWDooDjgx2EghGk8uc4L5ZmtpfJAykwjPRaEAtVlX3h+ACxpWn4w1kMVn891wytZTDkR8BtQkISx7BYt1IlrBD7Jh2XseBfwC7cmJtzlOcr1O1JrU4jpJ7EKpTt2QkFxfbkRIwatD3UXftUz7pd0JYPNOfEptatc2k7P9CZr9uRe0sxakNGWYdYuWGiKMWAaChkzBb1at1trHD7+rEv8m4wXNnHachBz0XDRHccdGr9Q9Qg4+85ycSxtFfzIiOQDCN5+gRf+4bUGU3IxrEi1/7OKC2v4FPuCdx+A5ajyRi8TjO+xK9ekr3iOIzpCWO7dN2X5Emt1kUHl4HjFcYtImGH6n/XmA7vIm12wnvjKdN5pHciN7+lPE7hJN+DGw+3SSZxlLeIRvIoRob71ZkVe1jw3s8l9ZGAG9bMPtZq9ztBQey3T7qehleDxjIYmnLCmk2gzmEtiIp7KwWTY1JEWZnJO44nuRQ+XO9voTJ0e6ir9qmedbukJR9oz4nNrVsH03J+oDdftyH3lmM0gY1aO7QQx2pDAZoVjYc5RG7pgq47Djq0/iFqlOGNk3wurbbSaykgdZLHgOWpOq1f/iSF652JLh0jmc3DbHGq0+1ig7kvh+zf6pfAw9OPscAq5GjsyhgxH2MxRF21+ul2cBk4BmDOZZFQJ2uLI3vaB/PNSyfaFHawML2G9PBrLP75Z7XcYojFNrEu+TByD1f1FE7LIIqFzK3HaDpn0KOENZaB1SxmWJ/jl+o4u/6j9OPuM198U+qwDCCf/XxLLjBwe6ir9qmeddNHe05s37q1l6bzA735ug25964YLaRzovl6lyKKddppFbrjoEPrH6JGdffTus7P1V9IHxv8oR8x7zLjNB7Gmz98czFOzDffLWAt+VD6pt2Ts32E5/zweirj63jgefk9tnJOLK4vY/IhnVXopbEMil9+Ut9320+dftzUHl20T7luXaqLcq/uOGD9Qw+Y8fecmG2o3yg3wT7Yh9PsoTqtX9+gHfU7bQ3BYTFmOdpkUcibYfm6S76W8PjhtqSx8fJaf1dB6St9kKv1HVgHl0HyFDmzBbdfT3PBMpBHrn5PguYofaVDbxDN2uDze9SZ7ZPInqDXZL31GLWZW3yPRp0y2E9lAetTTGoInWT2FH2WkVtyQRu2hx7kPtWzbvpoz4ntW7f20nR+YHS+NjD33hWjQ/bKE0SbY3gc3HP9Q9Qo46+cWMex+Ox6H0eVIwDHwBf8LVJ1MVS9/Hm9y77CNGLHYK0XFBYX5v21m/79z2bgNF9bTlvsYSuZwxPXHFz1kolpBIFQDNHlZ+oM4yiJ31DmXvTmcsjUaoP0P8Ois1a3LgPKoM4+7x8auqVia0DyJ3zKWuEO1i8nW8ANWy6BaJNPMVGeTCPXHWq48e4dRvsc3kXG6sJcnZ1jUvabVZ1okuYyiEWRyNkxNedqeD8XonGkTE68rtPx3sjteWgMzwdCR+9TrXWJjnXTR0dObNu61daK2CnRcn6gM183nXsbqH8K0U/4YhYxWmuHmlwidu94NHGjdMZBp9Y/RI0y/p6TVBo9vnXIkgejQ5XDSXlUoCQOFjuOwhJi1cfGfgJHsGMy4BDvUvU7MBkMYX3egR511nX5VApwL0Ne9sOl3vClPErYvyzjxxmLOAm7tpw2Sa6uYlskk0BIgmf0Mpn1D4+KbRTru/mDqKCSiKzsqa90sN0UMiIBz4p96VB3Tmk7xL6J/jwDW2/tx33oL4NdpDK9sHvF59QFKo/aHJ0MQFqP4ue/zMM7UJqt0zHkhTCOnopYvBKfynJG4ZFkSM4cIquhmze66jA4/q4cn7bqRpU4FgIh+OwFJHdi6rw2KsQghdOw+kNY9rtQKYLK9m8GLMhmjbtHQ1sZJLG6uoUT2yw25WX4XcOXOUH8NjxSPr5jsWVMqnOVvtVL8mdYA+sIui6XoWyPEqdywIx0yrjtoQ7ep5rrEh3rppP2nNi+dWsnbecH+vO1vtyrof6p5FHx9yTPZbwpjxJeXg/Aeppt4J6TRuiPg46sf4gaZPw4JzoGR1QGMlqeccNaGZsof4IviS1E5AKm5Pny4FrKQEZJx5XBnBpfjgOLm+9wMfZRPVcGWvotvv+Pt/infyxN1Pd//413//oD/ledLFNuIl+Eb8yKwb7K1zDlwbYSWxHIe/UGLtRPeTa9YQPnVbkxyFSpjFP49GENsu0dPj4v74/s9reYlk9Lv5fpLAPTKALS66p9Kj6VyyJ9uIutyA7Up3YKTewfDYN6+URMqyFXVh0jVYOLlVQNtqUcC/b0W8R7puC2D2NAlF95UXcMOKaJ/jK4cxBGAwYt1F0GtfZPKXZEHCTj2PlQHQdldw7Y14Jjo5O1Kh90+j5tuC5Rj9MSDeumNx+U6ciJOsqtWa2MHV2DJ2vI14qmcm/D9U/Z7YMwmq+Oc+JYxOY7pzpgZx03YkalMQ7aU/8QtU5rGicc2aftWlWhED10j/HY6PZtZr5rnZY3Th7D+YE6yGLdQRiJ6Fbd/bQuIiIiojYyWU3oPbnrMchEVA8bJ12ieH6OYpGP9iUi5gPSj7HTjPL9M6HJQaSiYXTBWMtE98KYbl3X+9qqMlsTqNV9koioperkpGbuoaF7xn36MHXz+UGtbctlsPt+AeED3tNBpJeh95wQERERERHpxcYJ0T0LffyIm98r3q5d3xZ38roRERFR92HjhIiIiIiIOgJviCciIiIioo7AxgkREREREXUENk6IiIiIiKgjsHFCREREREQdgY0TIiIiIiLqCGycEBERERFRR3hYjRNlNNaPH0s/UWlMndkoF6Ro+bP6/sbvS2M+/PLH36nTnWV0cRObi6PqFD18nR1v1NkebD641xxPCtYlRHTfHlbjJBIsDfC2nVGnNYlD8k6UPq/8rBzm1fndobenBz09verUQ+UXJ+Qy5kbUSSLSpbX5oIXHKXP8veuOukQP1j9EnYLduhr2VwRFhffNv/+XOk2tYYLJrP76qDHeqJPxOKVuxLgm6gRsnBARERERUUf4zfDw8N/V3/HVV1+V/v/1119L/zdM6Sc8ZS39mj9cgX9rAHMzU7Bb+lC+OFxELpvE9vs1xD4XSnPK/YNn8bRP/Jo/xIpXwn75BfGShOjsUygviRdxuOKFdPEi4A99hCu3Au8aEFj0YezJoPreWsupbUyKIoAwvNV/+IZ/xtv//A6//Qd1Uij8z58b+DbbhBHPLGaeO2AxVy6PF5E/yWA/cgTbvAPZ7/1Y/ay+ZIDGtkcvrdtjwpDrGV64vobdZkHlI8V8Fqmt91iNfUb13hnwr+PH5xZ1qo5cAm9fLiGpTlbYJiXMep9ChNqFYv4Emf0IlsL7OFPnVTONBiC9HsOTQfVDYr0OlfU6nYI8r8ZdZgsTwUjp5RLTCDyzM3juuNweFHPIJrfxfi2G6+HmWNzEO2flK7gMtieCkPvHrsRrPvsJ8ptVxC8+qy/e9JQBxLr4Z19g3F7ZHmV/ZpFOpNDrGkdh7SWWDkrvpAeoFflA/3GqLR8o2pfjdR4/Xczw2NF1flBFY+4t0ZDfmql/tNYl+uoF5nh6fIxpnKhKFUrhEKc2O0ypD9jY2MPBsXKE9cMhTm4DL6zIhqchVR91fpG4XLmrjZMLY6IBEwDCNRonleWkdxHd2EL86Az9wy5MvfbCbe9Fau3acq7Rk4B/98dfMI31O04WbfCtSpiynGJXDmM7kYZSBKYhG5xuL6ZcSoK52eBqVusaJzq2Z3QRm/82guKXJHb3xL6JH+HMNITRZzOYeWVDbvs7BOVj9c3VlD6/LuQaLBubiB3JZcJRPIrIbgLp8orB5nTD53XDVtjFQlBGWn2/wiQavusBCzIfNrCxd1Daln6HB7OBKVgLZ+ixFhFXKgz1/SUmFxbX/bAcyviTHC99pjx/CC7fPPzOAqJLC9ipXlDFmGhoz5ux//4UDp8NBVGZhLeVdbWIOF4WJ2DKPourb76qkXjTUwbKcbW4OQ9H4RMiP31A/OBYnByKE8hRcfy88OJrcR5hdHxSe7UuHyi0Had68kG7cry+46e7tSp2dJ0f6Mq9evObtrjWVZdUaKgXmOPpMTK8W1efXRxoG9/CL8XUxKM4QzImwb+UgiUgwWNSZzehz24HdhfgX5BLlZbi7CgOecGPhe0c7AYtRytbcA5Tg2ms+YMIx8sn8orCcRpxWcL0m11kRZoo5MrzO52u7TlYwssJL/xzq4gpJyLKvMIxDmILWEsUYLW7S29rypAfAbcJCUnsb1FplRK2QiwnHZex4F/ALtyYm3OU5ytMHkgBGzLhIKRYuTJRnCVjkERyz5gt6rez1YbgXw5g+FBsa6iqclSIZcWVv5UwwzcXFM24eqxw+/qxvzSNYLiyrmnIQU/dhklD9JSBYsyFEXMGu9Or2ClVWooCjg92EApGkMqf47xYmknUPJ35oOU5Xu/xQ7ppOz/QmXvbkd901SXXNVAvMMfTI2X8PSeZOJb2al5kBJJhJE+f4GvfkDqjCdk4VuTa32el5RV8yj2B22/AcjQZg9dpxpf41UuyVxyHMT1hbJeu1jF+e5InxrTKhqacsGYTqBMCgkjyWymYHJNiK8pM3nE8ySWwUWtjCnGsfqrxiCDHK4xbRJIP1f/uNB3eRdrshLfuU0uzopKYQ+SObiha6SmDkmQSR3mLOLkbxchwvzqzYg8LXl7up/a4NR+0OMfrPn5IPy3nB3pzbxvym6665Ia76wXmeHqsDG+c5HNptZVeSwGpkzwGLE/Vaf3yJynU6hhUdoxkNg+zxalOt4sN5r4csn8z9iT0/ujdnn6MBVYhR2NXxhz4GIsh6rqjb2+DrGaT+Oc5fqn++9d/lD6/feaLb9UclgHks5/rxk0hncONh486BmDOZZFQJ2uLI3vaB3PdSydFFOvUx83QUwYlhR0sTK8hPfwai3/+WX1vDLHYJtYlH0bu4YojdTN9+aDVOV738UO6aTo/0Jt725DfdNUlN9xdLzDH02PV3U/rOj9Xf6H2scEf+hHzLjNO42G8+cM3F+MOfPPdAtaSxvVnK3756eJv1/+p0+e3S+gug7N9hOf88Hoq7/HA8/J7bOWcWFxfxiTPxsgQLc4HTeZ45pAu1UX5jTmeHiPj7zkx21C/UW6CfbAPp9lDdVq/vkE76l/QH4LDYsxytMmikDfD8nW3fC2hY3s8frgtaWy8vNZHVlDuUznIGXNVaT+VBaxPMalh1ZLZU/RZRurGzZC98kSgKslT5MwW3P79rAuWgTxy9XsftISeMriV0o879AbRrA0+v0edSdSEJvJBq3O84ccP3UnT+YHRudfA/KarLtGBOZ4eK+OvnFjHsfjseh9HlSMAx8AX/C1SdTFUvfxZeUJgNdOIHYO1XlBYXJj312769z+bgdN8bTltsYetZA5PXHNw1UsmphEEQjFEl5+pM4yjJH5j6dgecy96czlkap1z9D/DorOBbl119nn/0NBlxRaLIpGzY2rOdUtld1Uh+glfzE68rrUxJhdej9VYt+RP+JS1wh2sX7a2gBu2XALRdj/5REcZKJSn5sh1h0E2pvFI98/4fHBNI8dpM/mg1Tle5/HzGLQsdrScH+jMvU3ntwbiWlddogdzPD1Sxt9zkkqjx7cOWfJgdKhyOCmPCpTEwWLHUVhCrPrY2E/gCHZMBhziXap+ByaDIazPO9Cjzroun0oB7mXIy3641Bu+lMdM+pdl/Dhjwefry2mT5OoqtkUyCYQkeEYvk1n/8KjYRrG+mz+IE/0kIit76iudTfP27KaQEUl7Vux/h7pDS+8V+zP68wxsvbc9ImQXqUwv7F6xLPXDyiOLRycDkNaj+Pkv8/AOlGYLSayubuHENotNeRl+1/Bl/IjfhkfKsRCLLWNSnYtCDFI4DWsgBMlzGW/K4x+X1wOwnmZr9BM+hrwQxtFTEb9XYlpZt1F4JBmSM4fIaghtvnAi6CgD1eD4u/KxY6s6kRSfcYiy8dkLSO7E1HlE12k4TpvIB63P8fqPH9JH2/mB/tyrL79piGtddYkezPH0OBk/zomOgbOUgYyWZ9ywVsYmyp/gS2ILEbmAKXm+PFCjMpBR0nFlMKfGl+PA4uY7XIx9VM+VgZZ+i+//4y3+6R9LE/X933/j3b/+gP9VJ8uUG0AX4RuzYrCv8jVMedDCxFYE8t7NQceapTybft4cx0SwFb2jtW3PjYGpSvslhU8f1iDb3uHj8/I+zG5/i2n5tPT7BdMoAtLrqn0qPp3LIn24i63IDpLXbyCsNUBXad3EZ5Jx7Hy4+ZnbB84y1342vZaBwByL2HznxK3hdn2Qx2biTWMZKMepPf0W8Z4puO3DGBDlUP5Y4wPcUWdrbT4QNBynmvLB+WIbc7xKRw7pZq2KHb3nB5pyr9BUftNY/2iqS3TVCyrmeHpkWtM44cg+bdfyk5HHQB0Yq+7AWUQPBPMB6dXyxsljOD9gXULUlO5+WheRBiarCb0ndz26koiIqD7WJUTNYeOkSxTPz1EsGveY3sel3Oc5NDmIVDSMBzE+JtEtmA9IL8ZOM1iXEBnBmG5dvtBFP+Fqma0J1Oo+SXSvasVrLoPd9wsIH7AfLhGRYbr5/IB1CVFLGHrPCRERERERkV7s1kVERERERB2BjRMiIiIiIuoIbJwQEREREVFHYOOEiIiIiIg6AhsnRERERETUEdg4ISIiIiKijsDGCRERERERdQQ2ToiIiIiIqCM8rMaJMhrrx4+ln6g0ps5slAtStPxZfX/j9wiJz/zyx9+p051ldHETm4uj6hQ9fJ0db9o1uT2ORWyqx+3HkF+dSfUwH5BejB0ium8Pq3ESCWJiYgLbGXVakzgk70Tp88rPymFend8dent60NPTq049VH5xAitjbkSdJKpILuFlFx63rdId+YDuw+ONHdY/RJ2C3boa9lcExcnRN//+X+o0tYYJJrP666PWbfHG44eIOh3rH6JOwMYJERERERF1hN8MDw//Xf0dX331Ven/X3/9tfR/w5R7QaaspV/zhyvwbw1gbmYKdksfyheHi8hlk9h+v4bY50JpTvkekFk87RO/5g+x4pWwX35BvCQhOvsUykviRRyueCFdvAj4Qx/hyq3AuwYEFn0YezKovrfWcmobk6IIIAxv9R++4Z/x9j+/w2//QZ0UCv/z5wa+/TVhxDOLmecOWMyVy+NF5E8y2I8cwTbvQPZ7P1Y/qy8ZoLHt0Uvr9pgw5HqGF66vYbdZUPlIMZ9Faus9VmOfUb13Bvzr+PG5RZ2qI5fA25dLSKqTFbZJCbPepxChdqGYP0FmP4Kl8D7O1HnVTKMBSK/H8GRQ/ZBYr0NlvU6nIM+rcZfZwkQwUnq5xDQCz+wMnjsutwfFHLLJbbxfi+F6uDkWN/HOWfkKLoPtiSDk/rEr8ZrPfoL8ZhXxi8/qizc9ZQCxLv7ZFxi3V7ZH2Z9ZpBMp9LrGUVh7iaWD0juboG97TCMezM48h8NivswfmU/4EA6h4I1i3hwX+0YuvdIUHWWgK95qbk8cG2/DwKzYnlISRKm7qVFamg86rtzWdNclCi3rdpmrlL81jbj9HV67rSgf6eX1e78QxkHN6kd7vaDr2G6S4bGj6/ygisbcW6IhRpupf7TWJfrqhU7O8UStYUzjRFVqNBQOcWqzw5T6gI2NPRwcK0dYPxwiKQdeWJENT0OqPur8InG5clcrlAtjotIJAOEajZPKctK7iG5sIX50hv5hF6Zee+G29yK1dm051+hJwL/74y+YxvodJ1c2+FYlTFlOsSuHsZ1IQykC05ANTrcXUy4lwdSuJJvRupMRHdszuojNfxtB8UsSu3ti38SPcGYawuizGcy8siG3/R2C8rH65mpKn18Xcg2WjU3EjuQy4SgeRWQ3gXR5xWBzuuHzumEr7GJBnMSm1fcrTOJkZT1gQebDBjb2Dkrb0u8QJ0GBKVgLZ+ixFhFXKgz1/SUmFxbX/bAcyviTHC99pjx/CC7fPPzOAqJLC9ipXlDFmDg5mjdj//0pHD4bCqIyCW8r62oRcbwsGtnKPourb76qkXjTUwbKcbW4OQ9H4RMiP31A/OBYNBZFg3JUHD8vvPhanEcYHZ+KRrbH5FrEun8YWbE976PlsjYNjeLZq1eYcvQge2rCk6IRjRPtZaAv3pTtseBQ/hPkuLKM8va4pl7AOw6k0wN4ajKosVWldfmgg8tNR12i7/hR8pQbppOi2PI0tsLipDop6p9SHnkBe83PaM+j+tatea2KHV3nB7pyr978pq3+0VWXVGioFx5SjicyiuHduvrs4kDb+BZ+KaYmHsUZkjEJ/qUULAEJHpM6uwl9djuwuwD/glxqmCjOjuKQF/xY2M7BbtBytLIF5zA1mMaaP4hwvFwBKQrHacRlCdNvdpEVaaKQK8/vdLq250C5edkL/9wqYkrDRJlXOMZBbAFriQKsdnfpbU0Z8iPgNiEhif0tKq1SwlaI5aTjMhb8C9iFG3NzjvJ8hckDKWBDJhyEFCtXJoqzZAySSO4Zs0X9hrXaEPzLAQwfim0NVVWOCrGsuPK3Emb45oLi9KMeK9y+fuwvTSMYrqxrGnLQU7dh0hA9ZaAYc2HEnMHu9Cp2SpWWooDjgx2EghGk8uc4L5Zmtldp/wwjvRYsbc/l5hwgJsrOH85isPqrw2ZoLQPd8TaM1Oo0QuoJtkLZnp1QUGxPThwLBm1Pu3RTuek9fkp6YcrtQfJLpYaJopRH3sZxah3H1LWHXWnOo02tW+fSdn6gM/e2I7/pqkuua6Be6LYcT9Qg4+85ycSxtFfnYnMyjOTpE3ztG1JnNCEbx4pc+zujtLyCT7kncPsNWI4mY/A6zfgSv3pJ9orjMKYnjO3S1TrGb0/yxJhW2dCUE9ZsAnVCQBBJfisFk2NSbEWZyTuOJ7kENmptTCGO1U81HgPneIVxi0jyofrfT6bDu0ibnfDWfTJ1VlQSc4jc0dVQKz1lUJJM4ihvEQ34UYwM96szK/aw4L2fy/0jATesmX2s1e4TI3bRKmrtIl00loH+eEvhw/W+ICpDt6dduqjcdB8/JXmkdyLiHdccp3CS78HVh11pz6PNrVsH03J+oDf3tiG/6apLbri7Xui2HE/UKMMbJ/lcWm2l11JA6iSPActTdVq//EkKtToGlR0jmc3DbHGq0+1ig7kvh+zf6pfAw6J3e/oxFliFHI1dGVfmYyyGqOuOvr0NsppN4p/n+KX671//Ufr89pkvvlVzWAaQz36uGzeFdE6cclzjGIA5l0VCnawtjuxpH8x1L50UUaxTHzdDTxmUFHawML2G9PBrLP75Z/W9McRim1iXfBi5hyuOCqdlEMVC5tb8kc4Z9ChhjWXQingzdHvapYvKTffxo5n2PNq+dWsvTecHenNvG/KbrrrkhrvrhW7L8USN6u6ndZ2fq79Q+9jgD/2IeZcZp/Ew3vzhm4uxZb75bgFrSeP6sxW//HTxt+v/1Onz2yV0l8HZPsJzfng9lfd44Hn5PbZyTiyuL2PyIZ3x6KWxDBhvqi4qN65bl+qi/MYcT4+R8fecmG2o3yg3wT7Yh9PsoTqtX9+gHfU7bQ3BYTFmOdpkUcibYfm6W76W0LE9Hj/cljQ2Xl7rIyso/asPclqvwtS2n8oC1qeY1LBqyewp+iwjdeNmyF556luV5ClyZgtuvwbngmUgj1z93gctoacMbqX04w69QTRrg8/vUWe2TyJ7gl6T9db8YTO3+B6NOmXQinhry/a0ywMsN8OPn7q059H2rVt7aTo/MDr3GpjfdNUlOnRbjidqlPFXTqzjWHx2vY+jyhGAY+AL/hapuhiqXv680kVXZRqxY7DWCwqLC/P+2k3//mczcJqvLact9rCVzOGJaw6uesnENIJAKIbo8jN1hnGUxG8sHdtj7kVvLodMrTZI/zMsOhvo1lVnn/cPDV1WbLEoEjk7puZct1R2VxWin/DF7MTrWhtjcuH1WI11S/6ET1kr3MH6ZWsLuGHLJRBt95NPdJSBQnlqjlx3GGRjGo96fA7vImN1Ya5OsJmUOLSqE03SXAa64i2OlEnEW52bAozcnlqMzwcdXm5a6xKdx492OvJo29attlbETomW8wOdubfp/NZA/aOrLtGjy3I8UaOMv+cklUaPbx2y5MHoUOVwUh4VKImDxY6jsIRY9bGxn8AR7JgMOMS7VP0OTAZDWJ93oEeddV0+lQLcy5CX/XCpN3wpjxL2L8v4ccYiTnSuLadNkqur2BbJJBCS4Bm9TGb9w6NiG8X6bv4gKqgkIit76iudTfP27KaQEUl7Vux/h7pDS+8V+zP68wxsvbc9ImQXqUwv7F6xLPXDyqM2RycDkNaj+Pkv8/AOlGYLSayubuHENotNeRl+1/Bl/IjfhkfKsRCLLWNSnYtCDFI4DWsgBMlzGW/K4x+X1wOwnmZr9BM+hrwQxtFTEb9XYlpZt1F4JBmSM4fIaujmzbEtp6MMVIPj78rHjq2qwSc+4xBl47MXkNyJqfPaqLJ//CEs+12oFHWlnDcDFmSzzd9rUKGtDPTE2w6W5M8i3tYRdF0uQ9ke5XiQA2akU8ZtT7t0bLlprkv0Hz9aaa8X2rdu7aTt/EB/7tWX3zTUP7rqEj26LMcTNcj4cU50DI6oDGS0POOGtTI2Uf4EXxJbiMgFTMnz5cG1lIGMko4rgzk1vhwHFjff4WLso3quDLT0W3z/H2/xT/9Ymqjv//4b7/71B/yvOlmm3BC+CN+YFYN9la9hyoNtJbYikPeuDkJoBOXZ9IYNTneDtu25MTBVab+k8OnDGmTbO3x8Xt6H2e1vMS2fln6/YBpFQHpdtU/Fp3NZpA93sRXZgfrUzku1BugqrZv4TDKOnQ83P3P7wFnm2s+m1zIQmGMRm++c6sBsdVwf5LGZeNNYBspxak+/RbxnCm77MAZEOZQ/dsdgaJro3547B2E0YNBC3WWgJ97uGkywBcdtq/JBp5dbw3VJ9bGnYd18YvvVKqisus6oGmyw5MYxrqNe0FFuzWpl7OgaPLlWGdwyCGNT+U1j/aOpLtFVL6g0xkF7cjxR67SmccKRfdqutY2TR0IdGKvuwFlEBmvVcdvt+YD5rnVa3jh5DOcHrEuImtLdT+si0sBkNaH35K5HVxIREdXHuoSoOWycdIni+TmKxQcy7HzHKfd5Dk0OIhUN40GMj0l0C+YD0oux0wzWJURGMKZb1/W+tqrM1gRqdZ8kule14jWXwe77BYTrjE5OZJg6+bKZe2geBZbbw9TN5wesS4hawtB7ToiIiIiIiPRi44SI6gp9/Iib33nerl3fZHfyuhEREZE+bJwQEREREVFH4A3xRERERETUEdg4ISIiIiKijsDGCRERERERdQQ2ToiIiIiIqCOwcUJERERERB2BjRMiIiIiIuoID6txoozG+vFj6ScqjakzG+WCFC1/Vt/f+H1pXIVf/vg7dbqzjC5uYnNxVJ1qlc4uAyIqa08+aIF7zfGkeLCxQ0Rd42E1TiLB0iBq2xl1WpM4JO9E6fPKz8phXp3fHXp7etDT06tOkfH8omEmY25EnSTqYK3NBy08Fpjj793jrUuY44k6Bbt1NeyvCIoK75t//y91+jF67GVggsms/kr0qPFYoG7EuCbqBGycEBERERFRR/jN8PDw39Xf8dVXX5X+//XXX0v/N0zpJzxlLf2aP1yBf2sAczNTsFv6UL44XEQum8T2+zXEPhdKc8r9g2fxtE/8mj/EilfCfvkF8ZKE6OxTKC+JF3G44oV08SLgD32EK7cC7xoQWPRh7Mmg+t5ay6ltTIoigDC81X/4hn/G2//8Dr/9B3VSKPzPnxu4cmDCiGcWM88dsJgrl8eLyJ9ksB85gm3egez3fqx+Vl8yQGPbo4e2Mhjwr+PH5xbxm7LfphG3v8NrtxXlL6PE/snE8X4hjIPK7nEsYvOdU31dlUvg7cslJMWvPrGv1dC6oHTZqLBNSpj1PoUItQvF/Aky+xEshfdxps5TaF434fIzt6ha3ytMI/DMzuC5w4LLMMghm9zG+7UYroeoY3ET75yVkshgeyIIuX/sSozns58gv1lFXHx2ICDWzX25bpmtCQQj6oRwfd2ry426Wyvygf5jwYQh1zO8cH0Nu+3yWCjms0htvcdq7DOuZ+v25XhtOeQxMDx2dJ0fVNGYR0tE3vTPvsC4vfIZpf7NIp1Iodc1jsLaSywdlN7ZVI43jQYgvR7Dk0E1eERMHyoxfToFeV49h8lsYUJNzFpzfIWuGNVQBkSdxpjGiapUoRQOcWqzw5T6gI2NPRwcK0dYPxziZD3wwopseBpS9VHnF4nLlbvaOLkwJhowASBco3FSWU56F9GNLcSPztA/7MLUay/c9l6k1q4t5xo9Cfh3f/wF01i/o3Fig29VwpTlFLtyGNuJNJQiMA3Z4HR7MeVSEszNBlezWtc4uaqxMlD67rphOimK05I0tsKi0kmK/ePwYDbwAvbCLhaCsnjlksm3is1n59jwLmBPnXfJJMp0E66zJbxcuqwebCJ2JJcJR/EoIrsJpMsFDZvTDZ/XDVuN5ehZtzLlcy7kGt1vJhcW1/2wHMr4kxwvxUB5/hBcvnn4nQVElxawc3NBys5EdN6M/fencPhsKIgKKLytbJ9FxP6yOGlT9nO89FaTR5Tb1DkifvG3aoX7UADrf3Ei+1ZURDdaT9StWpsPNB4Lo4vY/LcRFL8ksbsncnX8CGfiOBh9NoOZVzbktr9DUD5W31zWrhyvL4d0t1bFjq7zA115dAyLm/NwFD4h8tMHxA+OReNXNJBHRey88OJr0U6qXf9qi2uTS8J6wILMhw1s7B2U1q1cj0zBWjhDj7WIuNL4UN9/hYYcry9G9ZYBUWcwvFtXn10caBvfwi/F1MSjOEMyJsG/lIIlIMFjUmc3oc9uB3YX4F+QS5WW4uwoDnnBj4XtHOwGLUcrW3AOU4NprPmDCMfLDRNF4TiNuCxh+s0usiJNFHLl+d2rF6bcHiS/VDr5V5wlY5DexnFqHcfUtYfBFCJxkVxtosKpsdOGfHA+OUXip6qz6yE/Am4TEpLY36LSKiVsReEY6biMBXGyvgs35uYc5flXaFs37YbgXw5g+FDs71BVhaoQ6xcPByElzPDNBcUW12OF29eP/aVpBMOV7UtDDnouKi1FIRZFomDHpL/2Xxp7PYaBzCdUFx1RWx0s4eWEF/65VcSUhokyTxwHB7EFrCUKsNrdpbdd1/Ic31QOIT20nR/ozKNjLoyYM9idXsVO6aRcUcDxwQ5CwQhS+XOcF0sz9TN5IAVsyCjrECs3TBSlekQ0FDJmi3ql7zYN5Hi9MdqOMiBqIePvOcnEsbRXrkhuSIaRPH2Cr31D6owmZONYkWt/n5WWV/Ap9wRuvwHL0WQMXqcZX+JXL8lecRzG9ISxXbo6Ux7pnci1b3OE4xRO8j24+TCYPWx9LuCJ0yeqpKscr5wY+JJApOrL1aEpJ6zZBOqEgCCS/FYKJsek2CvXaV03jRyvMG4RFUOo7sohHd5F2uyEt+6TTrOiYplD5I6uK+KgQnj3C8yi3J6pcy6YfJgU53fpXRlXv5cm6gzJk1u+pWlxjm8uh5AuWs4P9ObRZBJHeYtovI5iZLhfnVmxhwVv892ZTN5xPMklsFGroi/EsfqpkcfN3Z3jdcdoG8qAqJUMb5zkc2m1lV5LAamTPAYsT9Vp/fInqVtOuI6RzOZhtjjV6XaxwdyXQ/Zvd51QUi3JtTi+DDjx6sqXQM8wNdKDdDxyJa6sZpP45zl+qRrT4MaP0ue3z3zL1YkWcQzAnMsioU7WFkf2tA/muitXRLFOHX6dcvUkeW7H88DVEzXHrAtPTvfx/mY/OaI26sdYYBVyNHb1+IzFEHXV7+vf6hzf0TmkS2k6P9CbRws7WJheQ3r4NRb//LO6L2OIxTaxLvkw0szVNpXDMoB89nPd+Cykc7j7QdZ353jdMdqGMiBqpe5+Wtf5ufoLPQiFCOLpHoxMXV4DGAo8h/38M7ZqnGAXv/x0MaZB/Z86fX67ShJr8S8YGJu5vHpi8sDr6EFqN3LLCR5Rq9ngD/2IeZcZp/Ew3vzhm4tj85vvFrCWbLJ/a5M5njmkS53tIzznh9dT2YceeF5+j62cE4vry5h8QK1N3THaRWVAj4/x95yYbajfKDfBPtiH0+yhOq1f36D9RvefS0NwWIxZjjZZFPJmWL7m1xJ67W19xrnNhfKtJw68clqQTfx04ykp+6ksYH2KyU4s6uQpcmYLbv9O1wXLQB65+j0WNClErl49cQTceJJLYqvmXfJEbeLxw21JY+PltT7zgnIf3kGufny2Osd3dA7pUprOD4zOo8p9KqE3iGZt8Pk96kx9ktlT9FlG6sbnkL3ydLnmGB6jBpYBUSsZf+XEOo7FZ9f7OKocATgGvuBv1TcPqJc/a3XzN43YMViv/7/Fhfk6NwH3P5uB03xtOW2xh61kDk9cc3DVSyamEQRCMUSXb9wh0DQl8T94yZ+QOH0Cp9Lv+NkURkxfkKi1H5UbwXN2TM25bqnsWqBOPPYPDV2uh9iGT1kr3MH6+8MmGg+2XAJRw56WUnX1xDSJKYcZX3bDNxp19Hi0PB80ciyYe9GbyyFTqw3S/wyLzlse4drqHH9fOeQBaFnsaDk/0JlHlaeCyXWHeW/gy5oG4roQ/YQvZide16roTS68Hrvj0cSN0hmjTZcB0T0z/p6TVBo9vnXIkgejQ5XDSXlUoCQOFjuOwhJi1cfGfgJHsGMy4BDvUvU7MBkMYX3egR511nX5VApwL0Ne9sOl3vClPGbSvyzjxxkLPl9fTpskV1exLZJJICTBM3qZzPqHR8U2ivXd/EE0XJKIrPBGgNqOEUmIk2znKwRdolJKxxGpuR+TWF3dwoltFpvyMvyu4cv4Eb8Nj5RjIRZbxqQ6tzm7SGV6YfeK/eooL0l5PPToZADSehQ//2Ue3oHSbOEY8kIYR09FzF85DpTPjMIjyZCcOURWQzdvym9C5erJVGgS9vMkovdxANAjoOFY2E0hI07iZsVxoL61nAtFfo/+PANbb/1HBrU+x7c7h5C28wP9eXRw/F05bmxVDWVlOYEQfPYCkjsxdV41DXFdiEEKp2EVf0/yXJ67KI8SXl4PwHqabeCek0boj1F9ZUDUGYwf50THwFnKQEbLM25YK2MT5U/wJbGFiFzAlDxfHqhRGcgo6bgymFPjy3FgcfMdLsY+qufKQEu/xff/8Rb/9I+lifr+77/x7l9/wP+qk2XKDaCL8I1ZMdhX+RqmPAhjYisCee/moGPNUp5NP2+OYyJoZO9o7WVwY9DE6jKtGoyrpGpwqqueYTk6A3tfDom7xueoNUBXqayzSCfj2PmwA/Vpwc2vm2kUAel1VbyJJeXEcg53sRW5XM4FLYOH1RqM8rq65XWpNF6M2I7M1kvM1W7V0SPQmnxQRcOxcGOgulKeTuHThzXItnf4+Lx83GW3v8X0+WIbc7xKQw55DFoVO3rPDzTlUUFZjj39FvGeKbjtwxgQcVf+2B3LUWjM8bcPwmi+Os5JMzleY4w2VQZEHaA1jROO7NN2LT8ZoQdhyB/C/3PlsFZzUFN6LJgPSK+WN04ew/mBOshi3UEYiehW3f20LqJHxYFX41ac7m+wYUJEdE9MVhN6T+56DDIR1cPGSZconp+jWOz6YefpFiafF46eFLbD7X4QBHUa5gPSi7HTjPL9M6HJQaSiYXT9WMtELWJMt67r/fVVma0J3NFFnoh08yH0cQo3jzyhgftTiIharpvPD2ptWy6D3fcLCB/wng4ivQy954SIiIiIiEgvdusiIiIiIqKOwMYJERERERF1BDZOiIiIiIioI7BxQkREREREHYGNEyIiIiIi6ghsnBARERERUUdg44SIiIiIiDoCGydERERERNQRHlbjRBmN9ePH0k9UGlNnNsoFKVr+rL6/8XuExGd++ePv1OnOMrq4ic3FUXWqVTq7DKhdmowDxyI21WPwY8ivziQjtScfUDdi7BDRfXtYjZNIEBMTE9jOqNOaxCF5J0qfV35WDvPq/O7Q29ODnp5edYqM5xcn5DLmRtRJ0i+5hJddeAx2EuYD0uvxxg5zPFGnYLeuhv0VQXFC9c2//5c6/Rg99jIwwWRWf33UeCwQUTdijifqBGycEBERERFRR/jN8PDw39Xf8dVXX5X+//XXX0v/N0y5F2TKWvo1f7gC/9YA5mamYLf0oXxxuIhcNont92uIfS6U5pTvAZnF0z7xa/4QK14J++UXxEsSorNPobwkXsThihfSxYuAP/QRrtwKvGtAYNGHsSeD6ntrLae2MSmKAMLwVv/hG/4Zb//zO/z2H9RJofA/f27gG2MTRjyzmHnugMVcuTxeRP4kg/3IEWzzDmS/92P1s/qSARrbHj20lcGAfx0/PreI35T9No24/R1eu60ofxkl9k8mjvcLYRxUdo9y/8E7p/q6KpfA25dLSIpffWJfq6F1QemWV2GblDDrfQoRaheK+RNk9iNYCu/jTJ2n0LxuwuVnblG1vleYRuCZncFzhwWXYZBDNrmN92sxXA9Rx+Im3jkrJZHB9kQQcv/YlRjPZz9BfrOKuPjsQECsm/ty3TJbEwhG1Anh+rpXl5t2+o4F04gHszPP4bCYL3NB5hM+hEMoeKOYN8cxEZRLrzRFlJN/9gXG7ZWyVo63LNKJFHpd4yisvcTSQemdF7TETkXt7Ylj420YmBXbU0pozZZ181qXD4SOK+s13XWJotU55JL2ekFPuTXL8NjRdX5QRWMeLdEQo83keNNoANLrMTwZVHdQPovDrfdYPZ2CPK/GXWZL5LhyYtaa4yt0xYGO45SoUxjTOFGVGg2FQ5za7DClPmBjYw8Hx8oR1g+HSMqBF1Zkw9OQqo86v0hcrtzVCuXCmKh0AkC4RuOkspz0LqIbW4gfnaF/2IWp11647b1IrV1bzjV6EvDv/vgLprF+xwmZDb5VCVOWU+zKYWwn0lCKwDRkg9PtxZRLSTC1K8lmtPRkpEpjZaD03XXDdFIU1XEaW2FR6STF/nGIk43AC9gLu1gQJ6Rp9d0Kk28Vm8/OseFdwJ4675JJlOkmXGdLeLl0WT3YROxILhOO4lFEdhNIlwsaNqcbPq8bthrL0bNuZcrnXMg1ut9MLiyu+2E5lPEnOV6KgfL8Ibh88/A7C4guLWDn5oKUnYnovBn770/h8NlQEBVQeFvZPouI/WXRMFf2c7z0VpNHlNvUOSJ+8bdqhftQAOt/cSL7VlREN1pP+jUSBybXItb9w8iK/fM+Wi4D09Aonr16hSlHD7KnJjwpGtE4GcPi5jwchU+I/PQB8YNjFMTeHRoV+eCFF1+L86Lrx5ue2ClvjwWH8p8gx5VllLfHNfUC3nEgnR7AU5NBja0mtS4fdHBZ66hL2pdDtNcL+tatea2KHV3nB7ryqPYYLdOW402i4bsesCDzYQMbeweldSvHwBSshTP0WIuIK40P9f1XaMjx+uJAbxkQdQbDu3X12cWBtvEt/FJMTTyKMyRjEvxLKVgCEjwmdXYT+ux2YHcB/gW51DBRnB3FIS/4sbCdg92g5WhlC85hajCNNX8Q4Xi5AlIUjtOIyxKm3+wiK9JEIVee3716YcrtQfJLpYpbcZaMQXobx6l1HFPXHgZTiMRFcrWJCqfGThvywfnkFImfqs6uh/wIuE1ISGJ/i0qrlLAVhWOk4zIWxMn6LtyYm3OU51+hbd20G4J/OYDhQ7G/Q1UVqkKsXzwchJQwwzcXFFtcjxVuXz/2l6YRDFe2Lw056LmotBSFWBSJgh2T/tp/aez1GAYyn1BddG1h8kAKDCO9Fiztn8vdc4CY2CZ/OIvB6q8BmzHmwog5g93pVeyUKmFFAccHOwgFI0jlz3FeLM0s0xM76vakVqcRUk+WFcr27ISCYntysNoN2p5O1k1l3cYcorleaGrdOpe28wOdeVRrjOpRilEbMso6xMoNE0UpBkRDIWO2qFfrbtNAjtcbB+0oA6IWMv6ek0wcS3s1LzICyTCSp0/wtW9IndGEbBwrcu3vjNLyCj7lnsDtN2A5mozB6zTjS/zqJdkrjsOYnjC2S1dnyiO9E7n2bY5wnMJJvgc3Hwazh63PBTxx+kSVdJXjlRMDXxKIHKszhKEpJ6zZBOqEgCCS/FYKJsek2CvXaV03jRyvMG4RFUOo7sohHd5F2uyEt+7TrLOiYplD5I7uieKgQnj3C8yi3J6pcy6YfJgUbfj0royqomuLkYAb1sw+1mr3b0FBHCOfdD11r4ZkEkd5C+yBUYwM96szK/aw4L3afUFP7Ji843iSS+FDnUaeodvTybqorNuXQ7TXC82tWwfTcn6gN49qjFE9yjGawEatHVqIY7WhAL07x+uOgzaUAVErGd44yefSaiu9lgJSJ3kMWJ6q0/rlT1K3nHAdI5nNw2xxqtPtYoO5L4fs3+qXANWXXIvjy4ATr658CfQMUyM9SMcjV+LKajaJf57jl8p4GbV+lD6/feZbrk60iGMA5lwWCXWytjiyp30w1125Iop16vDrlKsnyXM7ngeuNuscsy48Od3H+5v95FrOaRlEsZC5NRekcwY9Sriwg4XpNaSHX2Pxzz+r+z+GWGwT65IPI9cuxumJHYdlAPns51tyjoHb08m6qKzbl0O01wsdnd+aoOn8QG8e1RijetwVo4V0TjRf73J3jtcdB20oA6JW6u6ndZ2fq7/Qg1CIIJ7uwcjU5TWAocBz2M8/Y6vGCXbxy0+lG49v/6nT57erJLEW/4KBsZnLqycmD7yOHqR2I7ec5HWRs32E5/zweir73QPPy++xlXNicX0Zk9fO4Bg7Teiisua6dSmNMdrJdMdBF5UBPT7G33NitqF+o9wE+2AfTrOH6rR+fYP2G91/Lg3BYTFmOdpkUcibYfmaX0votbf1Gec2F8q3njjwymlBNvHTjaek7KeygPUpJjuxqJOnyJktuP26nQuWgTxy9XssaFKIXL164gi48SSXxFbNu+RbL5E9Qa/JemsusJlbfI+G0i899AbRrA0+v0edqS92ktlT9FlGbsk5bdieTvYAy7p9OUR7vdDR+a0Jms4PjM6jdWJUj7tidMheeYJocwyPAwPLgKiVjL9yYh3H4rPrfRxVjgAcA1/wt+qbB9TLn7W6+ZtG7Bis1//f4sJ8nZuA+5/NwGm+tpy22MNWMocnrjm46iUT0wgCoRiiyzfuEGiakvgfvORPSJw+gVPpd/xsCiOmL0jU2o/KjeA5O6bmXLdUdi1QJx77h4Yu10Nsw6esFe5g/f1hE40HWy6BqGFPS6m6emKaxJTDjC+74RuNunb5HN5FxurCXJ0DwaQcI+WnizZNeQqQXHdY5xqNMx2xU4jGkTI58bpOB38jt8corcgHHV3WWuuStuUQHfXCfeU3VcvqEi3nBzrzqOYYva6BHF+IfsIXs4jRWjvU5BKxe8ejiRulMw6aLgOie2b8PSepNHp865AlD0aHKoeT8qhASRwsdhyFJcSqj439BI5gx2TAId6l6ndgMhjC+rwDPeqs6/KpFOBehrzsh0u94Ut5lLB/WcaPMxZxcnRtOW2SXF3FtkgmgZAEz+hlMusfHhXbKNZ38wdRQSURWbmHGwEehGNEEuIk2/kKQZeolNJxRGruxyRWV7dwYpvFprwMv2v4Mn7Eb8Mj5ViIxZYxqc5tzi5SmV7YvWK/OspLUh4DOjoZgLQexc9/mYd3oDRbOIa8EMbRUxHzV44D5TOj8EgyJGcOkdXQzRtqm1C5ejIVmoT9PInofRwAFYUYpHAaVn8Iy34XKkVQ2f7NgAXZrHH3aAyOvyvnAltVI1HJO4EQfPYCkjsxdZ5CR+wUdrAkf4Y1sC7i8nIZyvYouUoOmJFOGbc9naxjy1pzXdK+HKK9Xmh3fmsPbecH+vOothit0JDjK/lN/D3JcxlvyqOEl9cDsJ5mG7jnpBH640BfGRB1BuPHOdExOKIykNHyjBvWythE+RN8SWwhIhcwJc+XB9dSBjJKOq4M5tT4chxY3HyHi7GP6rky0NJv8f1/vMU//WNpor7/+2+8+9cf8L/qZFk/xgKL8I1ZMdhX+RqmPNhWYisCee+z4d9dKM+mN2xAuwvay+DGoInVZVo1GFdJ1eBUVz3DcnQG9r4cEneNz1FrgK5SWWeRTsax82EH6pM+m1830ygC0uuqeBNLyonlHO5iK3K5nAtaBg+rNRjldXXL61JpvBixHZmtl5ir3arTQf+xcOcgjAYMWqjkHXv6LeI9U3DbhzEw2MTgbnVip+LOgQENPwb1aU0+6PyybrguqT6O2pZDdNQLOsqtWa2MHV2DJ2vJo4LuGFVozPG3D8JovjrOSTM5XmMcNFUGRB2gNY0TjuzTdq2qUOhhGfKH8P9cOazVHIiOWqmTjsFuzwfMd63T8sbJYzg/UAdZrDsIIxHdqruf1kX0qDjwatyK0/0NNkyIiO6JyWpC78ldj0EmonrYOOkSxfNzFItdP+w83cLk88LRk8J2+FE8PJhuwXxAejF2mlG+fyY0OYhUNIyuH2uZqEWM6dZ1va+tKrM1gTu6yBORbj6EPk7h5pEnNHB/ChmgTu5r5h4aqoNl/TB18/lBrW3LZbD7fgHhA97TQaSXofecEBERERER6cXGCdEjEfr4sfZVllu061vpTl43IiIiah82ToiIiIiIqCPwhngiIiIiIuoIbJwQEREREVFHYOOEiIiIiIg6AhsnRERERETUEdg4ISIiIiKijsDGCRERERERdYSH9SjhqtFY84cr8Er7pd8b44IUncXTPnVS0PY3fo/Qx/8fBv/nz/jm3/9Lndc5Rhc3MYP3eLl0oM4xSrPl1m06Ow6IFK3LBy12rzmeFA82doioazysKyeRYGngte2MOq1JHJJ3ovR55WflMK/O7w69PT3o6elVp4zUjeXmFw0MGXMj6iRRl2ldPlC08Phhjr93rY2dTsZ6gahTsFtXw/6KoKjw+G15tzDBZFZ/1YRxQKT/+CHqZIxrok7AxgkREREREXUEY+45udZP2L81gLmZKdgtfShfHC4il01i+/0aYp8LpTlX+gfnD7HilXDRM9glITr7FOWuw3kcrnhR3W3YH/oIV24F3jUgsOjD2JNB9b21llPbmBRFAOE7+iP/M97+53f47T+ok0KhoXsNTBjxzGLmuQMWc+XyeBH5kwz2I0ewzTuQ/d6P1c/qSwZobHua1/ByTCPwzM7gucOCyyLIIZvcxvu1GGrvHq3lZsKQ6xleuL6G3Xa5nGI+i9TWe6zGPqN6MQP+dfz43KJO1ZFL4O3LJSTVyTKdcaChDC7XTYn3acTt7/DabUX5SzwR15k43i+EcVCr3PrH4J99gXF7ZTlKmWWRTqTQ6xpHYe0l2H38cWlFPtB//Gg7ThXty/GAbVLCrPcpRHV1oZg/QWY/gqXwPs7UeY+F4bGj6/ygip66RENO1B/XYtVGA5Bej+HJoBo8IqYPlZg+nYI8r57DZLYwEYyUXnYsbuKds3JpJoPtiSBksa7VMZ7PfoL8ZhXxqu3SFaOsF+gBM/SG+FKFUjjEqc0OU+oDNjb2cHCsHGH9cIiTzsALK7LhaUjVR51fJC5X7mrj5MKYaMAEgHCNxkllOeldRDe2ED86Q/+wC1OvvXDbe5Fau7aca/Qk4N/98RdMY/2Ok1IbfKsSpiyn2JXD2E6koRSBacgGp9uLKZeSYG42uJrVipORWhpajsmFxXU/LIcy/iTHS9tfnj8El28efmcB0aUF7KTV+SU6ym10EZv/NoLilyR290QMxI9wJpYx+mwGM69syG1/h6B8rL65mtK32IWczn3QUBzoKgNlvdwwnRTF6VwaW2FRWSdFXDs8mA28gL2wi4WgLF6pNobFzXk4Cp8Q+ekD4gfH4kRPnAyOimPhhRdfi3MCo2ONOl9r84HG40fHcdquHG8T9Y/kMuEoHkVkN4F0OenA5nTD53XDVvOY626tih1d5we68qjenKgtrk0uCesBCzIfNrCxd1Bat3KunoK1cIYeaxFxpfGhvv+KMQnReTP235/C4bOhIBoZ4W0l/iyinJZFw1wp/3jprfpilPUCPWyGd+vqs4sDbeNb+KWYmngUZ0jGJPiXUrAEJHhM6uwm9NntwO4C/AtyqdJSnB3FIS/4sbCdg92g5WhlC85hajCNNX8Q4Xj5BFtROE4jLkuYfrOLrEgThVx5fvcZgn85gOFDsa2hqspEUThGPByElDDDNxcUzZFLusrtYAkvJ7zwz60ippzwKPPEMg5iC1hLFGC1u0tvaz99ZVDWC1NuD5JfKjVMFGfJGKS3cZxaxzE1Wpp1acyFEXMGu9Or2ClVQIoCjg92EApGkMqf47xYmkl0P3Qepy3P8UN+BNwmJCTx98SJb+mkTyHWLR2XseBfwC7cmJtzlOdT07SdH+jMo+3IiSYPpIANGWUdYuWGiaKUq0VDIWO2qFf6bmOF29eP/aVpBMOV+EtDDnouGia6Y5T1Aj1wxt9zkoljaa9ckdyQDCN5+gRf+4bUGU3IxrEi1/4+Ky2v4FPuCdx+A5ajyRi8TjO+xK9ekr3iOIzpCWO7dHUUxyuMW0RSDNX/rjEd3kXa7IR3TJ3RgnJLntxj609XGVTkkd6J3Pym9jiFk3wPbjxEJ5nEUd4iTtRGMTLcr86s2MOCl5fuqXPdepy2OMcPTTlhzSZQZxGCOFHcSsHkmBQZigyh5fxAbx5tQ040ecfxJJfARq0KqxDH6qdGHjeXFY2HOURu6Z6oO0ZZL9ADZ3jjJJ9Lq630WgpIneQxYHmqTuuXP0mhVoedsmMks3mYLU51ul1sMPflkP1b/RLoeo4BmHNZJNTJ2uLInvbBfPF1l95y68dYYBVyNIaPHz9e/sRiiLru6EPcSrrKQKfCDham15Aefo3FP/+slkEMsdgm1iUfRu7h6iHRVfqO01bneKtZHBzW5/ilep2u/yj3DfSZa1zhJD00nR/ozaNtyIkOywDy2c9147OQzuHuB1kXUazTTqvQHaOsF+iB6+6ndZ2fq79Q97HBH/oR8y4zTuNhvPnDNxfjG3zz3QLWkl3bb+6ms32E5/zweipjPHjgefk9tnJOLK4vY5JnVnRvWnycNpnji19+ulif+j917hugztVFOVF3jLJeoAfM+HtOzDbUb5SbYB/sw2n2UJ3Wr2/QjvoX9IfgsBizHG2yKOTNsHz9iL+WSJ4iZ7bg9u8zXbAM5JG7uFSto9w8frgtaWy8vNYXV1DuUznI3ePVK11lYDClT3boDaJZG3x+jzqTqM2aOE5bneP3U1nA+hST/Ba5bTSdHxidRw3MicnsKfosI3Xjc8heebpccwyPUdYL9EAYf+XEOo7FZ9f7OKocATgGvuBvkaqLoerlz+td6RWmETsGa72gsLgw76/d9O9/NgOn+dpy2mIPW8kcnrjm4KqXTEwjCIRiiC4/U2cYR0n89y75Ez5lrXAH66+LLeCGLZdA9OJJITrKzdyL3lwOmVrnNv3PsOhsoFtXndjqHxq6pQJtgK4y0Ed5Ao5cd0jje2yg0b1reT5o5Php5jhtdY6PRZHI2TE152rueO9CLYsdLecHOvNo0zmxgbguRD/hi9mJ17UqLJMLr8cM6lasM0ZZL9BDZ/w9J6k0enzrkCUPRocqh5PyqEBJHCx2HIUlxKqPjf0EjmDHZMAh3qXqd2AyGML6vAM96qzr8qkU4F6GvOyHS73hS3nMpH9Zxo8zFny+vpw2Sa6uYlskk0BIgmf0Mpn1D4+KbRTru/mDOAFPIrKyp77SbY4hL4Rx9FTs7ysxIHL20Cg8kgzJmUNkNXTlpm/N5babQkZUDrNiGQ41cErvFXET/XkGtt7bHkWyi1SmF3avWJb6YeWRxaOTAUjrUfz8l3l4B0qzddJXBnoNjr8rHwe26kaVOOYCIfjsBSR3Yuo8IiNoOH6aOE5bn+OTWF3dwoltFpvyMvyu4cs6SPw2PFJeViy2jEl1LjVH2/mB/jyqLydqiOtCDFI4Dav4e5Ln8txFeZTw8noA1tNsA/ecNEJ/jLJeoIfM+HFOdAycpQxktDzjhrUyNlH+BF8SW4jIBUzJ8+WBGpWBjJKOK4M5Nb4cBxY33+Fi7KN6rgy09Ft8/x9v8U//WJqo7//+G+/+9Qf8rzpZptwAugjfmBWDfZWvYcqDCSa2IpD3bg461izl2fTz5jgmgkb2jtZTbipdgzBqK7cbA2CV9n8Knz6sQba9w8fn5VjJbn+Lafm09PsF0ygC0uuq2FFWL4v04S62IjtQn+IrNBEHGsrAJ44dNbTLqsu0ahCzkqpBvZRjzp5+i3jPFNz2YQyIsigvqvHB6qj7tCYfVGn4+NF4nJ4vtjHHq2odp6W8I7YnGcfOh6vb0+1aFTt6zw+01iVN5UQNca24fRBG89VxThyL2HznVAfWraMqt1+hMUZZL9BD15rGCUf2abuWn4wQ0YPBfEB6tbxx8hjOD9RBFusOwkhEt+rup3URERERtZHJakLvyV2PQSaietg46RLF83MUi4/o8blEVBfzAenF2GlG+f6Z0OQgUtEwunWsZaJWM6Zb1/U+8arM1gRqdZ8kIiKiR6Cbzw9qbVsug933Cwgf8J4OIr0MveeEiIiIiIhIL3brIiIiIiKijsDGCRERERERdQQ2ToiIiIiIqCOwcUJERERERB2BjRMiIiIiIuoIbJwQEREREVFHYOOEiIiIiIg6AhsnRERERETUER5W40QZjfXjx9JPVBpTZzbKBSla/qy+v/F7hMRnfvnj79TpzjK6uInNxVF1ykjNllu36ew4aI8my8CxiM1KPIX86kwyUuvyAXU7xg4R3beH1TiJBDExMYHtjDqtSRySd6L0eeVn5TCvzu8OvT096OnpVaeM1I3l5hcn1zLmRtRJaq/kEl524THYSVqXD6jbPd7YYb1A1CnYrathf0VQnFB98+//pU7Tw2aCyaz+qgnjgGVARN1Jb71AREZi44SIiIiIiDrCb4aHh/+u/o6vvvqq9P+vv/5a+r9hyr0gU9bSr/nDFfi3BjA3MwW7pQ/li8NF5LJJbL9fQ+xzoTSnfC/DLJ72iV/zh1jxStgvvyBekhCdfQrlJfEiDle8kC5eBPyhj3DlVuBdAwKLPow9GVTfW2s5tY1JUQQQhrf6D9/wz3j7n9/ht/+gTgqF//lzA98YmzDimcXMcwcs5srl8SLyJxnsR45gm3cg+70fq5/VlwzQ2PY0r+HlmEbgmZ3Bc4cFl0WQQza5jfdrMdTePVrLzYQh1zO8cH0Nu+1yOcV8Fqmt91iNfUb1Ygb86/jxuUWdqiOXwNuXS0iqk2U640BDGVyumxLv04jb3+G124ryl3girjNxvF8I46BWufWPwT/7AuP2ynKUMssinUih1zWOwtpLLB2U3tkEfWVgGvFgduY5HBbzZS7IfMKHcAgFbxTz5jgmgnLplaboKAPbpIRZ71OINHWhmD9BZj+CpfA+ztR51WpvTxwbb8PArNieUkJDqQvkfWppPui4sl7TXZcotKxbU8epjnpBT7k1y/DY0XV+UEVPXaIhRvXXC2LVRgOQXo/hyaC6g0Tdc6jUPadTkOfVuMtsiRwXKb3sWNzEO2fl0kwG2xNByGJdq89j8tlPkN+sIl61XbrioC31AlFrGNM4UZUaDYVDnNrsMKU+YGNjDwfHyhHWD4dIyoEXVmTD05Cqjzq/SFyu3NUK5cKYqHQCQLhG46SynPQuohtbiB+doX/YhanXXrjtvUitXVvONXoS8O/++AumsX7HCZkNvlUJU5ZT7MphbCfSUIrANGSD0+3FlEtJMLUryWZ0VOPE5MLiuh+WQxl/kuOl7S/PH4LLNw+/s4Do0gJ20ur8Eh3lNrqIzX8bQfFLErt7IgbiRzgTyxh9NoOZVzbktr9DUD5W31xN6VvsQk7nPmgoDnSVgbJebphOiuI0Jo2tsKiskyKuHeIkLfAC9sIuFsSJ/JWPiGNkcXMejsInRH76gPjBsWiQiUbbqDgWXnjxtTgnMDrWFI2Ugcm1iHX/MLLxKN5Hy2VgGhrFs1evMOXoQfbUhCdFIxon2svAJvKO5DLhSKxbZDeBdHnlYHO64fO6YatR1uXtseBQ/hPkuLKM8va4pl7AOw6k0wN4ajKosdWk1uWDDi5rHXWJnnXTd5xqz2/61q15rYodXecHuvKo3pyorV4wiYbvesCCzIcNbOwdlNatHANTsBbO0GMtIq40PtT3XzEmGs3zZuy/P4XDZ0NBNDLC28o+tohyWoYrp5R/vPRWfXFwP/UCkVEM79bVZxcH2sa38EsxNfEozpCMSfAvpWAJSPCY1NlN6LPbgd0F+BfkUsNEcXYUh7zgx8J2DnaDlqOVLTiHqcE01vxBhOPlCkhROE4jLkuYfrOLrEgThVx5fvcZgn85gOFDsa2hqspEUThGPByElDDDNxcU1fUlXeV2oNxY7YV/bhUxpWGizBPLOIgtYC1RgNXuLr2t/fSVQVkvTLk9SH6pdMKjOEvGIL2N49Q6jqnrD9EZc2HEnMHu9Cp2ShWQooDjgx2EghGk8uc4L5ZmtpfJAykwjPRaEAtVJxWF4wPElqbhD2cxWP01YDO0lsGQHwG3CQlJ5AqxbqXKXiH2TTouY8G/gF24MTfnKM9XqNuTWp1GSD1ZVijbsxMKiu3JiXgzaHs6WTeVtZ51u6DtONWc35pat86l7fxAZx5tR04sxagNGWUdYuWGiaIUA6KhkDFb1Kt1t7HC7evHvsiHwXBlH6chBz0XDRPdcdCp9QJRg4y/5yQTx9JezYuMQDKM5OkTfO0bUmc0IRvHilz7O6O0vIJPuSdw+w1YjiZj8DrN+BK/ekn2iuMwpieM7dLVURyvMG4RSTFU//u8dHgXabMT3osnEhtfbsmTe2z96SqDijzSO5Gb34Yep3CS78GNh+gkkzjKW0RjfBQjw/3qzIo9LHjv59L9SMANa2Yfa7X7t6Ag9vUnXU/dq0FjGQxNOWHNJlAnfQjiBGErBZNjUkRmmck7jie5FD5c79ehMnR7OlkXlbWedbuk5TjVnt+aW7cOpuX8QG8ebUNOLMdoAhu1dmghjtWGAjQrGg9ziNzSBV13HHRovUDUKMMbJ/lcWm2l11JA6iSPActTdVq//EkKtTrslB0jmc3DbHGq0+1ig7kvh+zf6pdA13MMwJzLIqFO1hZH9rQP5ouvu/SWWz/GAquQo7Er47B8jMUQdd3Rh7iVdJWBToUdLEyvIT38Got//lktgxhisU2sSz6M3MPVQ4XTMohiIXNrLkjnDHqUsMYysJrFDOtz/FIdM9d/lP7ifeaLb2QdlgHks59vyTkGbk8n66Ky1rNu+mjPb+1bt/bSdH6gN4+2ISfeFaOFdE40X+9SRLFOO61Cdxx0aL1A1KjuflrX+bn6C3UfG/yhHzHvMuM0HsabP3xzMRbLN98tYC3Ztf3mbjrbR3jOD6+nMh6NB56X32Mr58Ti+jImH9LZi14ay6D45Sf1fbf91Okv/th1UVlz3bpUF+VE3XHAeoEeMOPvOTHbUL9RboJ9sA+n2UN1Wr++QTvqd9oagsNizHK0yaKQN8Py9SP+WiJ5ipzZgtuvWblgGcgjd3GpWke5efxwW9LYeHmtL66g9OM+yGm9CmMgXWVgMKVPdugNolkbfH6POrN9EtkT9Jqst+YCm7nF92jUKYP9VBawPsWkhnBLZk/RZxm5Jee0YXs62QMsaz3rpo/2/Na+dWsvTecHRudRA3PiXTE6ZK88QbQ5hsfBPdcLRI0y/sqJdRyLz673cVQ5AnAMfMHfIlUXQ9XLn9e70itMI3YM1npBYXFh3l+76d//bAZO87XltMUetpI5PHHNwVUvmZhGEAjFEF1+ps4wjpL4713yJ3zKWuEO1l8XW8ANWy6B6MWTQnSUm7kXvbkcMrXaIP3PsOhsoFtXndjqHxq6pQJtgK4y0Ed5Ao5cd0jj+2ugfQ7vImN1Ya7ODjUp+9qqTjRJcxnEokjk7JiaczW8nwvROFImJ17X6eBv5PYYpRX5oKPLWmtdomPd9NGR39q2brW1rC7Rcn6gM482nRMbqBcK0U/4YhYxWmuHmlwidg3qVqwzDjq1XiBqlPH3nKTS6PGtQ5Y8GB2qHE7KowIlcbDYcRSWEKs+NvYTOIIdkwGHeJeq34HJYAjr8w70qLOuy6dSgHsZ8rIfLvWGL+VRwv5lGT/OWMTJ0bXltElydRXbIpkEQhI8o5fJrH94VGyjWN/NH0QFlURkZU99pdscQ14I4+ip2N9XYkDk7KFReCQZkjOHyGroys2kmsttN4WMqBxmxTIcauCU3iviJvrzDGy9tz2KZBepTC/sXrEs9cPKIz1HJwOQ1qP4+S/z8A6UZuukrwz0Ghx/Vz4ObNWNKnHMBULw2QtI7sTUeW1UiEEKp2H1h7Dsd6FSBJXt3wxYkM0ad4+GtjJIYnV1Cye2WWzKy/C7hi9zj/hteKScR2KxZUyqc5U+3EvyZ1gD6wi6LpehbI8Sc3LAjHTKuO3pZB1b1prrEh3rppP2eqF969ZO2s4P9OdRfTlRQ71QyW/i70mey3hTHiW8vB6A9TTbwD0njdAfBx1ZLxA1yPhxTnQMjqgMZLQ844a1MjZR/gRfEluIyAVMyfPlwbWUgYySjiuDOTW+HAcWN9/hYuyjeq4MtPRbfP8fb/FP/1iaqO///hvv/vUH/K86WabcqL0I35gVg32Vr2HKg20ltiKQ964ODmgE5dn0hg1od0FPuan0DJylsdxuDIBV2v8pfPqwBtn2Dh+fl2Mlu/0tpuXT0u8XTKMISK+rYkdZvSzSh7vYiuxAfTqo0EQcaCgDnzh21NAuqy7TqkHMSqoG9VKOOXv6LeI9U3DbhzEgyqK8qDsGNtNEfxncOQijAYMW6i6DWvunFG8iDpJx7HyojoOyOwcGNPwY1Kc1+aDzy7rhukQ9fko0rJve47RMR72go9ya1crY0TV4soY8qmgqJzZcL5TdPgij+eo4J45FbL5zqgN21nEjZlQa46A99QJR67SmccKRfdquVRUKETWmk47Bbs8HzHet0/LGyWM4P1AHWaw7CCMR3aq7n9ZFRERE1EYmqwm9J3c9BpmI6mHjpEsUz89RLD6ix+cSUV3MB6QXY6cZ5ftnQpODSEXD6NaxlolazZhuXdf72qoyWxOo1X2SiKgr1Ml9zdxDQ3WwrB+mbj4/qLVtuQx23y8gfMB7Ooj0MvSeEyIiIiIiIr3YOCF6JEIfP+Lm95e3a9e30p28bkRERNQ+bJwQEREREVFH4A3xRERERETUEdg4ISIiIiKijsDGCRERERERdQQ2ToiIiIiIqCOwcUJERERERB2BjRMiIiIiIuoID6txoozG+vFj6ScqjakzG+WCFC1/Vt/f+H1pLIZf/vg7dbqzjC5uYnNxVJ2ixnT2PiXS68Hmg3vN8aRgXUJE9+1hNU4iwdLAa9sZdVqTOCTvROnzys/KYV6d3x16e3rQ09OrThHRY9bafOAXjXoZcyPqpJGY4+/d461LWhjXRKQJu3U17K8Iigrvm3//L3WaHj7uUyJ9TDCZ1V+JugbjmqgTsHFCREREREQd4TfDw8N/V3/HV199Vfr/119/Lf3fMKWf8JS19Gv+cAX+rQHMzUzBbulD+eJwEblsEtvv1xD7XCjNKfcPnsXTPvFr/hArXgn75RfESxKis0+hvCRexOGKF9LFi4A/9BGu3Aq8a0Bg0YexJ4Pqe2stp7YxKYoAwvBW/+Eb/hlv//M7/PYf1Emh8D9/buCbdhNGPLOYee6AxVy5PF5E/iSD/cgRbPMOZL/3Y/Wz+pIBGtse7RyLm3jnrHyVlMH2RBBy/9iVcs9nP0F+s4p4VZHbJiXMep9ChMCFYv4Emf0IlsL7OFPn6YudChOGXM/wwvU17DYLKkVdzGeR2nqP1dhn3IwC7ftUbxlAvMc/+wLj9sq6KTGQRTqRQq9rHIW1l1g6KL2TyFCtyAcD/nX8+NyiTtWRS+DtyyUk1cky7cdp+3K8hlz1SBgeO03leME0As/sDJ47LmMHxRyyyW28X4uhZhhoyL3641qs2mgA0usxPBlUg0fE9KES06dTkOfVc5jMFiaCkdLLLa9Pq7H+oQfMmMaJqlShFA5xarPDlPqAjY09HBwrR1g/HOJkPfDCimx4GlL1UecXicuVu9o4uTAmGjABIFyjcVJZTnoX0Y0txI/O0D/swtRrL9z2XqTWri3nGj0J+Hd//AXTWL+jcWKDb1XClOUUu3IY24k0lCIwDdngdHsx5VISzM0GV7Na1Ti5MCYajPNm7L8/hcNnQ0EkxfB2Aulji9gfy+JEQll2vPRWm9inksuEo3gUkV3lPaUCgM3phs/rhq2wi4WgjHTp3WW6Ymd0EZv/NoLilyR290QMxI9wJpYz+mwGM69syG1/h6B8rL65tsb2qUpDGSixu7g5D0fhEyI/fUD84FicgImTtFERoy+8+FrU1UbHAFFFa/OB0jffhVyj8avjOG1XjteTq7pdq2JHV443ubC47oflUMaf5HipLi3PH4LLNw+/s4Do0gJ2ruwgvblXW1ybXBLWAxZkPmxgY++gtG79Dg9mA1OwFs7QYy0irjQ+1Pdf0eL6VH8ZEHUGw7t19dnFgbbxLfxSTE08ijMkYxL8SylYAhI8JnV2E/rsdmB3Af4FuVRpKc6O4pAX/FjYzsFu0HK0sgXnMDWYxpo/iHC83DBRFI7TiMsSpt/sIivSRCFXnv+wWOH29WN/aRrBcLycJEVKlIOey5PyIT8CbhMSktgPojIpv0coHCMdl7HgX8Au3Jibc5TnV9EcOwdLeDnhhX9uFTHlhEeZJ5ZzEFvAWqIAq91depuxGigDxZgLI+YMdqdXsVOqGBQFHB/sIBSMIJU/x3mxNJOou+k8Tlue45vIVaSPthw/BP9yAMOHot4MVTVMFGIfxcNBSAkzfHNB2NTZJe3IvSYPpIANGWUdYuWGieIsGYMkGgoZs0W90nebFtanrH/ogTP+npNMHEt7NS8yAskwkqdP8LVvSJ3RhGwcK3Lt77PS8go+5Z7A7TdgOZqMwes040v8WveeasdhTE8Y26WrfbIi2c0hckt3iqEpJ6zZBOrsGkEk360UTI5JUVrXGBg7yZNWtf7uLoOSZBJHeYs4gRrFyHC/OrNiDwteXlInuvU4bXGObypXkT5acrzjFcYt4gQ7VHcHIR3eRdrshLd6B7Uh95q843iSS2CjVkVfiGP1UyOPm2thfcr6hx44wxsn+VxabaXXUkDqJI8By1N1Wr/8SQr1O+wcI5nNw2xxqtPtYoO5L4fs3+44cX2wiijWqVcqrGaT+Oc5fqkaa+DGj9IXt8989dsuQXvs9GMssAo5Grv692MxRF139CHW7e4yKCnsYGF6Denh11j888/qusUQi21iXfJh5B6u6hHdD33HaatzfDO5ivTRlOMdAzDnskiUp+qII3vaB3P1DmpD7nVYBpDPfq4bn4V0Dnc/yLqF9SnrH3rguvtpXefn6i/UTsUvP12MNVD/p05f3IbZ4A/9iHmXGafxMN784ZuLv/3NdwtYS3ZAv7mzfYTn/PB6Ktvsgefl99jKObG4voxJnvFQ12vxcdpkjm9PrqK266LcqztGWf/QA2b8PSdmG+o3yk2wD/bhNHuoTuvXN2hH/Qv6Q3BYjFmONlkU8mZYvn68X0vsp7KA9SkmdRSBptjx+OG2pLHx8lpfXEG5v+cg16FXr5S+0qE3iGZt8Pk96kyiLtXEcdrqHN9MriJ9NOX45ClyZgtuvzbmgmUgj1z9nl+XDMy9yewp+iwjdeNzyF55ulxzDI9R1j/0QBh/5cQ6jsVn1/s4qhwBOAa+4G+Rqouh6uXPyhMCq5lG7Bis9YLC4sK8v3bTv//ZDJzma8tpiz1sJXN44pqDq14yMY0gEIohuvxMnWEcJfHfu1gUiZwdU3OuWyqhOrTEjrkXvbkcMrXObfqfYdHZqm5djVGeTCPXHWq4QxtO1FVang/q5Ob+oaHLY7+Z47TVOb6ZXNXlWhY7WnJ88id8ylrhDtZfF1vADVsugWjVU6eazr0NxHUh+glfzE68rlXRm1x4PWZQ/aMzRln/0ENn/D0nqTR6fOuQJQ9GhyqHk/KoQEkcLHYchSXEqo+N/QSOYMdkwCHepep3YDIYwvq8Az3qrOvyqRTgXoa87IdLveFLecykf1nGjzMWfL6+nDZJrq5iWySTQEiCZ/QymfUPj4ptFOu7+YNouCQRWdlTX+k2SayubuHENotNeRl+1/DlfhW/DY+U91EstoxJdW6FptjZTSEjKodZ8V6HuoBSGYu4if48A1vv/T+KZHD8XTk+bVUna8r2BELw2QtI7sTUeUQPyS5SmV7YvSLHqQef8qj00ckApPUofv7LPLwDpdlNHaetz/H6cxXpo+384BjyQhhHT8VrV96vxNsoPJIMyZlDZDWE6xdO9OVeDXFdiEEKp2EVf0/yXJ67KI8SXl4PwHqabeCek0boj1HWP/SQGT/OiY6Bs5SBjJZn3LBWxibKn+BLYgsRuYApeb48UKMykFHScWUwp8aX48Di5jtcjH1Uz5WBln6L7//jLf7pH0sT9f3ff+Pdv/6A/1Uny5QbQBfhG7NisK/yNUx5EMbEVgTyXq3BAZujPJt+3hzHRNDA3tGORWy+c+LWYqsaYOqKWgNnlcogi3Qyjp0PO0hW3QyoJ3ZuDIBVem8Knz6sQba9w8fn5VjJbn+LaflU/KZjn+osA2V77Om3iPdMwW0fxoBYx3Ix3DHgGJEBWpIPqplGEZBeVx2nIrJz4tg+3MVW5Oqxrek4PV9sY45XacxV3a5VsaP3/EDrIIxN5V4Nca24fRBG89VxTtpcn7L+oYesNY0TjuzTdi0/GWkxxg6RcR56PqD70/LGyWPI8eogi3UHYSSiW3X307qIiIiI2shkNaH35K7HIBNRPWycdIni+TmKxQc57DwRGYz5gPRi7DSjfP9MaHIQqWgYD3KsZaIOYEy3Ll/oop9wtczWBGp1nyS6wNghIupe3Zzja21bLoPd9wsIH/CeDiK9DL3nhIiIiIiISC926yIiIiIioo7AxgkREREREXUENk6IiIiIiKgjsHFCREREREQdgY0TIiIiIiLqCGycEBERERFRR2DjhIiIiIiIOgIbJ0RERERE1BEeVuNEGY3148fST1QaU2c2ygUpWv6svr/xe4TEZ3754+/U6c4yuriJzcVRdYoa09n7VLsmt8exiE312PgY8qsz6SFiPiC9GDtEdN8eVuMkEsTExAS2M+q0JnFI3onS55WflcO8Or879Pb0oKenV50i0iG5hJddeGw8RswHpNfjjR0/Qh9lzI2ok0R0b9itq2F/RVCcuH3z7/+lTtPD1237lDFKRKSfCSaz+isR3Rs2ToiIiIiIqCP8Znh4+O/q7/jqq69K///666+l/xum3AsyZS39mj9cgX9rAHMzU7Bb+lC+OFxELpvE9vs1xD4XSnPK94DM4mmf+DV/iBWvhP3yC+IlCdHZp1BeEi/icMUL6eJFwB/6CFduBd41ILDow9iTQfW9tZZT25gURQBheKv/8A3/jLf/+R1++w/qpFD4nz838M20CSOeWcw8d8BirlweLyJ/ksF+5Ai2eQey3/ux+ll9yQCNbY92jsVNvHNWvkrKYHsiCLl/7Eq557OfIL9ZRbyqyG2TEma9TyFC4EIxf4LMfgRL4X2cqfP0xU6FCUOuZ3jh+hp2mwWVoi7ms0htvcdq7DNuRoH2faq3DCDe4599gXF7Zd2UGMginUih1zWOwtpLLB2U3tkEfTFqGvFgduY5HBbzZTlnPuFDOISCN4p5cxwTQbn0SlN0lEHDsVOl9vbEsfE2DMyK7SklGpS6dD4GrcoHJR23T9d01yUKLes24F/Hj88t4jflb00jbn+H124rytmhvH7vF8I4qFn9aK8X9JRbswyPnaZyvGAagWd2Bs8dlzkexRyyyW28X4uhZlWvIUYv9+ktcgm8fbmEpDpZYRoNQHo9hieD6g4Sdc+hUvecTkGeV+MusyVyaaT0csvr02ptqX+IWsOYxomq1GgoHOLUZocp9QEbG3s4OFaOsH44RFIOvLAiG56GVH3U+UXicuWuVigXxkSlEwDCNRonleWkdxHd2EL86Az9wy5MvfbCbe9Fau3acq7Rk4B/98dfMI31O078bPCtSpiynGJXDmM7kYZSBKYhG5xuL6ZcSoKpXUk2o6UnI4oxUcnPm7H//hQOnw0FkRTD2wmkjy1ifyyLxqKy7HjprTaxTyWXCUfxKCK7yntKBQCb0w2f1w1bYRcL4sQ3XXp3ma7YGV3E5r+NoPglid09EQPxI5yJ5Yw+m8HMKxty298hKB+rb66tsX2q0lAGSuwubs7DUfiEyE8fED84Fg0l0ZgaFTH6wouvRV1tdAwoGtkek2sR6/5hZMX+eR+Nq/E5imevXmHK0YPsqQlPikY0TrSXgZ7YKW+PBYfynyDHlWWUt8c19QLecSCdHsBTk0GNrQeidfmgg/epjrpEz7qJBSH00Q3TSVFseRpbYXFSnRT1j0M0pgIvYK/5Ge31gr51a16rYkdXjje5sLjuh+VQxp/kcq4qzx+CyzcPv7OA6NICdq4Ugt7cq+xXF3IN5mWTaPiuByzIfNjAxt5Bad3KMTAFa+EMPdYi4krjQ33/FS2uT/WXAVFnMLxbV59dHGgb38IvxdTEozhDMibBv5SCJSDBY1JnN6HPbgd2F+BfkEsNE8XZURzygh8L2znYDVqOVrbgHKYG01jzBxGOlysgReE4jbgsYfrNLrIiTRRy5fkPixVuXz/2l6YRDMfLSVKkRDnouTwpH/Ij4DYhIYn9ICqT8nuEwjHScRkL/gXswo25OUd5fhXNsXOg3MDthX9uFTGlYaLME8s5iC1gLVGA1e4uvc1YDZSBYsyFEXMGu9Or2ClVDIoCjg92EApGkMqf47xYmtleJg+kwDDSa8HS/rncPQeIiW3yh7MYrP56rhlay0BP7Kjbk1qdRkg9iVUo27MTCortyYk4MGh7qLv2aRO5CuiFKbcHyS+VGiaKs2QM0ts4Tq3jmLr2sCvN9UJT69a5tOX4IfiXAxg+FOUTqmqYKEQ5xMNBSAkzfHNB0fSr0o7cW4pRGzLKOsTKDRNFKQZEQyFjtqhX627Twvq0U+sfogYZf89JJo6lvToXm5NhJE+f4GvfkDqjCdk4VuTa3xml5RV8yj2B22/AcjQZg9dpxpf4te491Y7DmJ4wtktX+2RFsptD5JYuc0NTTlizCdTZNYJIvlspmByTorSuMTB2kietav3dXQYlySSO8hbRSB7FyHC/OrNiDwve+7mkPhJww5rZx1rtficoiNj9pOtpeDVoLAM9sWPyjuNJLoUP1/tbqAzdHuqqfdpUrkIe6Z2IeMc1xymc5Htw9WFX2uuF5tatg2nJ8Y5XGLeIE+xQ3UJAOryLtNkJb3UhtCH3lmM0gY1aO7QQx2pDAdrC+rRD6x+iRhneOMnn0morvZYCUid5DFieqtP65U9SqN9h5xjJbB5mi1OdbhcbzH05ZP9WvwQetiKKdeqVCqvZJP55jl8q42XU+lH64vaZr37bJWiPnX6MBVYhR2NX/34shqjrjj7Eut1dBiWFHSxMryE9/BqLf/5ZXbcYYrFNrEs+jNzDVT2F0zKIYiFzazmncwY9SlhjGeiJHYdlAPns51tygYHbQ121T5vJVdporxfat27tpSnHOwZgzmWRKE/VEUf2tA/m6kJoQ+69K0YL6Zxovt6lhfVph9Y/RI3q7qd1nZ+rv1A7Fb/8dDGeTP2fOn1xG2aDP/Qj5l1mnMbDePOHby7+9jffLWAt2QH95s72EZ7zw+upbLMHnpffYyvnxOL6MiYf0lmFXhrLoD2xQ03pon3KdetSXZR7dccB6x96wIy/58RsQ/1GuQn2wT6cZg/Vaf36Bu2o38FnCA6LMcvRJotC3gzL14/3a4n9VBawPsWkjiLQFDseP9yWNDZeXuuLKyj9uA9yjX9L2VZKX+nQG0SzNvj8HnVm+ySyJ+g1WW8tZ5u5xfdo1CkDPbGTzJ6izzJySy5ow/bQg9ynzeQqbbTXC+1bt/bSlOOTp8iZLbi9/4MLloE8cvV7fl0yMPfeFaND9soTRJtjeBzcc/1D1Cjjr5xYx7H47HofR5UjAMfAF/wtUnUxVL38eaWLrso0YsdgrRcUFhfm/bWb/v3PZuA0X1tOW+xhK5nDE9ccXPWSiWkEgVAM0eVn6gzjKIn/3sWiSOTsmJpz3VIJ1aEldsy96M3lkKnVBul/hkVnq7p1NUZ5Mo1cd6jh+2s4fQ7vImN1Ya5OgJqU2LWqE03SXAY6YqcQjSNlcuJ1nY73Rm7PQ9OKfNDR+1RrXdJMrtJER73QtnWrrWV1iZYcn/wJn7JWuIP118UWcMOWSyBa9dSppnNvnXOO/qGhi31RiH7CF7OI0Vo71OQSsWtQ/aMzDjq1/iFqlPH3nKTS6PGtQ5Y8GB2qHE7KowIlcbDYcRSWEKs+NvYTOIIdkwGHeJeq34HJYAjr8w70qLOuy6dSgHsZ8rIfLvWGL+VRwv5lGT/OWMRJ2LXltElydRXbIpkEQhI8o5fJrH94VGyjWN/NH0QFlURkZU99pdsksbq6hRPbLDblZfhdw5f7Vfw2PFLeR7HYMibVuRWaYmc3hYyoHGbFex3qAkplLOIm+vMMbL33/yiSwfF35fi0XcZBaXsCIfjsBSR3Yuq8NirEIIXTsPpDWPa7UClm5TGtHknGZsCCbNa4ezS0lYGO2CnsYEn+DGtgHUHX5TKU7VFiQQ6YkU4Ztz3UwftUc12iP1dppb1eaN+6tZO284NjyAthHD0Vr115/2W+kpw5RFZDNx5MoC/37iKV6YXdK/aRWqkoj3oenQxAWo/i57/MwztQmn2ZR8XfkzyX8aY8Snh5PQDrabaBe04aoT8OOrL+IWqQ8eOc6BgcURnIaHnGDWtlbKL8Cb4kthCRC5iS58uDaykDGSUdVwZzanw5DixuvsPF2Ef1XBlo6bf4/j/e4p/+sTRR3//9N9796w/4X3WyTLlRexG+MSsG+ypfw5QH20psRSDv1RocsDnKs+kNGzivwrGIzXdOdYCxOqoGmLqi1sBZpTLIIp2MY+fDDtQncJboiZ0bA2CV3pvCpw9rkG3v8PF5OVay299iWj4Vv+nYpzrLQNkee/ot4j1TcNuHMSDWsVwMdww4pon+GL1zEEYDBi3UXQYaY0dx54B9Rh8bHa4l+UDo9H3acF1SfbxqWDef2H61CiqrrjOqBhssuZEXdNQLOsqtWa2MHV2DJ9cqg1sGYWwq95pGEZBeV62bsihR1oe72IrUiNFbB2E0Xx3npM31aevrH6LWaU3jhCP7tF2rKpR2YexQqzz0Y0OPbt/mx7hP26XljZPHkOPVQRbrDsJIRLfq7qd1EREREbWRyWpC78ldj0EmonrYOOkSxfNzFIsPcth5IjIY8wHpxdhpRvn+mdDkIFLRMB7kWMtEHcCYbl3X+9qqMlsTqNV9kugCY4daoU5cNXMPDd0z7tOHqZtzfK1ty2Ww+34B4QPe00Gkl6H3nBAREREREenFxgnRPQt9/Iib3yverl3fFnfyuhEREVH3YeOEiIiIiIg6Am+IJyIiIiKijsDGCRERERERdQQ2ToiIiIiIqCOwcUJERERERB2BjRMiIiIiIuoIbJwQEREREVFHeFiNE2U01o8fSz9RaUyd2SgXpGj5s/r+xu9LYz788sffqdOdZXRxE5uLo+oUET1mDzYf3GuOJwXrEiK6bw+rcRIJlgZ4286o05rEIXknSp9XflYO8+r87tDb04Oenl51qhP4RWNOxtyIOtky7VoO0cPR2nzQwmOOOf7edV5d0i6sS4g6Bbt1Neyv///27himkSzPH/h3A0iMTlg6QYATnLhHwolZCesk2MBzUjuADkww7qA9e+uWFiONCRqkwbfqat3CSDAB/kttVqLmbmC07QlwAB1AMA62kVbmdDhxS9NOTGIC0EomsBN3sP9Xdhls2gZXuew25vuREK5XBVX16tXv1XO9qoegqPC++q+/qdN0NxNMZvVjW3VqPURUxnOOehHLNVE3YOOEiIiIiIi6wm9GR0f/qX7GF198Ufr966+/ln43TeknPGstfcyfrMG/O4TF+VnYLQMo3xwuIpdNYu/1BmLvC6WUcv/gBYwPiI/5E6x5JRyVZ4hZEqIL41BmiZk4WfNCupoJ+MNv4cqtwbsBBEI+TD4aVpett576JqUoAojAW/2PP/HvePnXb/Dbf1EnhcL/ft/E3RMTxjwLmH/igMVcuT1eRP48g6PtU9iWHMh+68f6e3WWAZrbH50GJ+FfeIopuwXl3VH2JYt0IoV+1xQKG8+wclxaEkP+TfzwxFKeaCSXwMtnK0iqk2UmjLge46nrS9htlfWINeWzSO2+xnrsPaqPqPb16C9vJRryoMI2I2HBOw5xGlwp5s+ROdrGSuQIl2paDR3rIbqpHfGgU+e2onMxXud52sMMLzu6rg+qmMbgWZjHE8d12UExh2xyD683YqhbDDpSZ4lNmwhAej6JR8Nq4RFl+kQp0xezkJfUOiWzi+ngdmm2I7SDV87KrZkM9qaDkMW2VpfxfPYd5BfriFftF+sSemiMaZyoShVK4QQXNjtMqTfY2jrE8Zlyhg3CIS7WA0+tyEbmIFWfdX4RuFy52ovFK5PigjIAROo0TirrSR8gurWL+OklBkddmH3uhdvej9TGjfXcoCcA/+5PP2MOm3c0TmzwrUuYtVzgQI5gL5GGkgWmERucbi9mXUqAaXAB3IL2NU4mEdpZgqPwDts/vkH8+ExcSIiLjQmR10+9+FLUOfX3Rem/60Ku2f2cCGHnP8dQ/JDEwaE4nvFTXJpGMPF4HvNf25Db+wZB+UxduJrG9egob3rywCbWI7lMOI1HsX2QQLpcCGBzuuHzumErHGA5KCOtLl+mN6+JarUvHijaf253KsbrO097W7vKjq7rA5MLoU0/LCcy/izHS3VpOX0ELt8S/M4CoivL2K85QJ2ps0wuCZsBCzJvtrB1eFzatkGHBwuBWVgLl+izFhFXGh/q8jUmJUSXzDh6fQGHz4aCaGRE9pTyZxH5tCoa5kr+x0uLsi6hh8jwbl0DdnGibf0BfimmBh7FJZIxCf6VFCwBCR6TmtyCAbsdOFiGf1kuVVqKy9M45GU/lvdysBu0Hq1swUXMDqex4Q8iEi83TBSFszTisoS5FwfIijBRyJXTu96kC2PmDA7m1rFfCnCKAs6O9xEObiOV/4iPxVJia45X8GzaC//iOmLKxYuSVjjDcWwZG4kCrHZ3abHPQmsejPgRcJuQkERZFBVqqTJRiP1Jx2Us+5dxADcWFx3l9IpO5TVRJ+k8t9se4/Wep6SbtuuDEfhXAxg9EfVmuKphohDHKB4JQkqY4VsMwqYml3Qijpo8kAI2ZJRtiJUbJorLZAySaChkzBb1Tt9trHD7BnG0ModgpFL+0pCDnquGCesSeqiMf+YkE8fKYd2bjEAyguTFI3zpG1ETWpCNY02u/31WWl7Du9wjuP0GrEeTSXidZnyI196SrXEWwdy0sV262iqZxGneIi4EJjA2OqgmVhxi2dv+W8PJ88/cktOYByOzTlizCTQonoKogHZTMDlmRImp0gV5TdRJt57bbY7xus9T0k/L9YHja0xZxAV2uOEBQjpygLTZCW/1AepAHDV5p/Aol8BWvYq+EMf6u2ZeN5cVjYdFbN/SPZF1CT1UhjdO8rm02kqvp4DUeR5DlnF1Wr/8eQr1OvmUnSGZzcNscarTnWKDeSCH7C+Nc+DeKexjeW4D6dHnCH3/kzp+QAyx2A42JR/GDLs7NYjJwDrkaKxmnIK3sRiirjv6A7ebxjywmkWC9Ql+rt6Pmz9Kf+QBc+03fh3La6JO0ndutzvG6z5PSTdN1weOIZhzWSTKUw3Ekb0YgLn6AHUgjjosQ8hn3zcsn4V0Dne/yLqIYoN2WgXrEnqoevttXR8/qh+oJZdHiCz64fVUxhDwwPPsW+zmnAhtrmKm5ZrbBn/4Byy5zLiIR/Dij19djVXw1TfL2Eh2QR84jXlQ/PDj1T40/qnTH7nteU3USW0+t1uM8brPU+puPRRHWZfQQ2T8MydmGxo3yk2wDw/gInuiTus3MGxH4xv6I3BYjFmPNlkU8mZYvnwAX0sofX7DLxDN2uDze9REnTx+uC1pbD270a9WUJ7VOc516Z2oBnlwlMoC1nHMGFUMjMxrok5q4dxud4w3/DylO2m6PkheIGe24PZ7Yy5YhvLINe75dc3AOJrMXmDAMtawfI7YK2+Xaw3rEnqojL9zYp1C6PHNPo4qRwCOoQ/4ZbvqZqh6+7PyhsBqpjE7huvNUFhcWPLXb/oPPp6H03xjPR1xiN1kDo9ci3A1CiamMQTCMURXH6sJxlECv9GUN6zIDYfMbaLR0OD4DY6MXFdS5n7053LI1Pt3g48RcjbRrauZ9Sh0lDfNeRCLIpGzY3bRdUtF/KmW85qoSjviQY12n9vtjvE6z9OHoG1lR8v1QfJHvMta4Q423hZbwA1bLoFo1VunOlFnFaLv8MHsxPN6Fb3JheeTBnVFZl1CD5Txz5yk0ujzbUKWPJgYqZxOyqsCJXGy2HEakRCrPjeOEjiFHTMBh1hKNejATDCMzSUH+tSkm/KpFOBehbzqh0t94Et5zaR/VcYP8xa8v7meDkmur2NPBJNAWIJn4jqYDY5OiH0U27vznWi4JLG9dqjO6X7DU6/K+WyrvtAXxzQQhs9eQHI/pqZVO0Aq0w+7V+SDo3x8lNcpT8wEIG1G8dNfluAdKiWLRVPIiEC/IMqMumg5v0QZiP40D1v/ba8V0bAehc7ypi0Pklhf38W5bQE78ir8rtHrdYlPo2PlchqLrWJGTa3Ql9dEndSZc7v9MV7/eUr6aLs+OIO8HMHpuJhXs7xS3ibgkWRIzhy218O4eeOk7XVWIQYpkoZV/D/Jc12XKK8SXt0MwHqRbeKZk2awLqGHyfhxTnQMnKUMZLQ674a1MjZR/hwfErvYlguYlZfKA+cpAxklHTWDOTW/HgdCO69wNfZRIzUDLf0W3/7PS/zbv5YmGvvH3/Hq99/h/9TJMuUB0BB8k1YMD1S+hlEGQMogsbsN+fDTQcdapbybfskcx3TQ2N7RyjG1p18i3jcLt30UQ8NNDpylME0gID2vOj7ir3JZpE8OsLu9j2TVw4CfDGZV+v8pvHuzAdn2Cm+flI97du8PmJMvSp+vaFiPounyFiwPnKU7D+oNHlYqB2LbknHsv6ndtpbymqhKu+LBlXad2x9DHYzxKo3naa9rZ12ia2BNjYMwdqrOUtw+CKO5dpwTRwg7r5y4tYhW1Ts1WJfQA9OexglH9um4tl+MENG9wXhAerW9cfIQrg/UQRYbDsJIRLfq7bd1EREREXWQyWpC//ldr0EmokbYOOkRxY8fUSzel2HniaidGA9IL5adVpSfnwnPDCMVjeC+jLVM1G2M6dblC1/1E66W2Z1Gve6TRERE9AD08vVBvX3LZXDwehmRYz7TQaSXoc+cEBERERER6cVuXURERERE1BXYOCEiIiIioq7AxgkREREREXUFNk6IiIiIiKgrsHFCRERERERdgY0TIiIiIiLqCmycEBERERFRV2DjhIiIiIiIusL9apwoo7G+fVv6iUqTamKzXJCi5b/V9z/+A2HxNz//6XfqdHeZCO1gJzShThE1q8Vy7Qhhp3JOhf1qIn1ujAekF8sOEX1u96txsh3E9PQ09jLqtCZxSN7p0t8rP2sneTW9N/T39aGvr1+d6gZ+cdErY3FMnWybTq2H6kqu4FkPnk/3XffFA7ovHm7ZYV1C1C3Yratp/42guAj76r/+pk7T3UwwmdWPbdWp9fQilmsiojLWJUTdgI0TIiIiIiLqCr8ZHR39p/oZX3zxRen3r7/+WvrdNOVZkFlr6WP+ZA3+3SEszs/CbhlA+eZwEblsEnuvNxB7XyillJ8BWcD4gPiYP8GaV8JReYaYJSG6MA5llpiJkzUvpKuZgD/8Fq7cGrwbQCDkw+SjYXXZeuupb1KKIoAIvNX/+BP/jpd//Qa//Rd1Uij87/dNfMtswphnAfNPHLCYK7fHi8ifZ3C0fQrbkgPZb/1Yf6/OMkBz+6PT4CT8C08xZbegvDvKvmSRTqTQ75pCYeMZVo5LS2LIv4kfnljKE43kEnj5bAVJdbLMhBHXYzx1fQm7rbIesaZ8Fqnd11iPvUf1EdW+Hv3lrURDHlTYZiQseMchToMrxfw5MkfbWIkc4VJNq6FjPdrpK9emMQ8W5p/AYTFfn9eZd3gTCaPgjWLJHMd0UC7NaUmH8rr+/sSx9TICLIj9KRUWlLqB3jfdEg8q2nt8Nlo6t7Vs23XcUf7XHOL2V3jutqL8ZXt5+14vR3Bct/rRXi/oiiEtMrzs6Lo+qGIag2dhHk8c1/UCijlkk3t4vRFD3aq+I3WW2LSJAKTnk3g0rB4gUV+dKPXVxSzkJbXcZXZFXNwuzXaEdvDKWbk1k8HedBCy2Nbq65h89h3kF+uIV+1X99YlRO1hTONEVWo0FE5wYbPDlHqDra1DHJ8pZ9ggHCIoB55akY3MQao+6/wicLlytRXKlUlR6QSASJ3GSWU96QNEt3YRP73E4KgLs8+9cNv7kdq4sZ4b9ATg3/3pZ8xh846LOBt86xJmLRc4kCPYS6ShZIFpxAan24tZlxJgGlwAt6B9FyOTCO0swVF4h+0f3yB+fCYaCaIhMSHy+qkXX4o6p/6+KP13Xcg1u58TIez85xiKH5I4OBTHM36KS9MIJh7PY/5rG3J73yAon6kLV9O4Hh3lTU8e2MR6JJcJp/Eotg8SSJcLAWxON3xeN2yFAyyLC/m0unyZ3rxuTTPl2uQKYdM/iqzYn9fRuFqmJ/D4668x6+hD9sKER0UjGiedyevy/lhwIv8ZclxZR3l/XLNP4Z0C0ukhjJsMamx9Bt0UDzp2fHSc2/rOUyXmuGE6L4o9T2M3Ii6qk6L+cYjGVOAp7HX/Rnu9oG/bWteusqPr+sDkQmjTD8uJjD/L5bhTTh+By7cEv7OA6Moy9msyoTN1lkk0fDcDFmTebGHr8Li0beUyMAtr4RJ91iLiSuNDXb7GpGg0L5lx9PoCDp8NBdHIiOwpx9gi8mkVrpyS//HSovepLiEyiuHdugbs4kTb+gP8UkwNPIpLJGMS/CspWAISPCY1uQUDdjtwsAz/slxqmCguT+OQl/1Y3svBbtB6tLIFFzE7nMaGP4hIvFwBKQpnacRlCXMvDpAVYaKQK6d3vUkXxswZHMytY78U4BQFnB3vIxzcRir/ER+LpcTWHCsPVnvhX1xHTGmYKGmFMxzHlrGRKMBqd5cW+yy05sGIHwG3CQlJlEVRoZYqE4XYn3RcxrJ/GQdwY3HRUU6v6FRea2XyQAqMIr0RLO3P9e4cI7YyB38ki+Hqr/Ra0Ym8VvcntT6HsHrhq1D2Zz8cFPuTE+XNoP3pNb10fPSepyX9MOUOIfmlUsNEcZmMQXoZx4V1CrM3XnaluV5oadu6l7brgxH4VwMYPRH5E65qmChEPsQjQUgJM3yLQdH0q9KJOFoqozZklG2IlRsmilIZEA2FjNmi3q27jRVu3yCORAwNRirHOA056LlqmPRcXULUJOOfOcnEsXLY4GZzMoLkxSN86RtRE1qQjWNNrv+dUVpew7vcI7j9BqxHk0l4nWZ8iNfekq1xFsHctLFdutoqmcRp3iIaexMYGx1UEysOsext/63h5PlnbslpzIORWSes2QQaFE9BVEC7KZgcM6LEVOmCvK5nLOCGNXOEjfp9VVAQ5f2drjfo1dGBvDZ5p/Aol8Kbm300VIbuT6/poeOj+zwtySO9vy2WuOEshfN8H2pfdqW9Xmht27qYlusDx9eYsogL7HDDTEA6coC02QlvdSZ0II6Wy2gCW/UOaCGO9aYKaFY0HhaxfUsX9F6rS4iaZXjjJJ9Lq630egpInecxZBlXp/XLn6dQr5NP2RmS2TzMFqc63Sk2mAdyyP7SOAfuncI+luc2kB59jtD3P6ljxMQQi+1gU/JhzLC7U4OYDKxDjsauxqEp/cRiiLru6A/cbhrzwGoWCdYn+Ll6P27+KP2RB8y13/h1LK+1cVqGUSxkbj2v0zmDXiXcgbx2WIaQz76/JX4YuD+9poeOj+7zVDPt9ULntq2zNF0fOIZgzmWRKE81EEf2YgDm6kzoQBy9q4wW0jnRfL1LEcUG7bSKXqtLiJrV22/r+vhR/UAtuTxCZNEPr6cyTowHnmffYjfnRGhzFTMt1442+MM/YMllxkU8ghd//EpdzzS++mYZG8ku6AOnMQ+KH3682ofGP3X6I7c9r++BTuU16dNDx4fb1qN6KI6yLqGHyPhnTsw2NG6Um2AfHsBF9kSd1m9g2I7GnbZG4LAYsx5tsijkzbB8+QC+llD6/IZfIJq1wef3qIk6efxwW9LYenajX62g9Mk+znXpnagGeXCUygLWccwYVQyMzGsdEtlz9Just57XNnObn9EwMK+T2QsMWMZuiR8d2J9ecw+Pj+HnaUPa64XObVtnabo+SF4gZ7bg9v4PLliG8sg17vl1zcA4elcZHbFX3iDaml6rS4iaZfydE+sUQo9v9nFUOQJwDH3AL9tVN0PV2581XXRVpjE7huvNUFhcWPLXb/oPPp6H03xjPR1xiN1kDo9ci3A1CiamMQTCMURXH6sJxlECv9GUN6zIDYfMbaLR0OD4DY6MXFdS5n7053LI1Pt3g48RcjbRrauZ9Sh0lDfNeRCLIpGzY3bRdUtF/KmW87pN3kcOkLG6sNigUJuU8m5VJ1rUibwuRONImZx43qCzvpH78zl1RTzo5PHRem7rPE+101EvdGzb6mtH2SnRcn2Q/BHvsla4g423xRZww5ZLIFr11qlO1FmF6Dt8MIsyWu+Amlyi7BrUFbnH6hKiZhn/zEkqjT7fJmTJg4mRyumkvCpQEieLHacRCbHqc+MogVPYMRNwiKVUgw7MBMPYXHKgT026KZ9KAe5VyKt+uNQHvpRXCftXZfwwbxEXVDfW0yHJ9XXsiWASCEvwTFwHs8HRCbGPYnt3vhMVVBLba4fqnO43PPWqnM+26gt9cUwDYfjsBST3Y2patQOkMv2we0U+OMrHR3lt5sRMANJmFD/9ZQneoVKyWDSFjAj0C6LMqIuW80uUgehP87D13/ZaEQ3rUegsb9ryIIn19V2c2xawI6/C7xq9Xpf4NDpWLqex2Cpm1NQKfXndZoUYpEgaVn8Yq34XKqe18mpXjyRjJ2BBNtv6MwAVbc/rwj5W5PewBjYRdF2vQ9kfpRzIATPSKeP2p9d07fHRfG7rP0+10l4vdG7bOknb9cEZ5OUITsfFvJrlr2OP5Mxhez38yYsJ2l5nVWKi+H+S57q8Ka8SXt0MwHqRbeKZk2b0WF1C1CTjxznRMTiiMpDR6rwb1srYRPlzfEjsYlsuYFZeKg+upQxklHTUDObU/HocCO28wtXYR43UDLT0W3z7Py/xb/9ammjsH3/Hq99/h/9TJ8uUh7tD8E1aMTxQ+RqmPNhWYncb8mHtgIJGUN5Nb9ggeFWUY2pPv0S8bxZu+yiGhpscOEthmkBAel51fMRf5bJInxxgd3sf6hs4Sz4ZzKr0/1N492YDsu0V3j4pH/fs3h8wJ1+UPl/RsB5F0+UtWB44S3ce1Bs8rFQOxLYl49h/U7ttLeV10/SX6zsHYTRg0MJO5bXizkH+2nA+dUrXxYMOHR+t53aJhm3zif1Xq6Cy6jqjarDBkpvr0VMv6Mi3VrWz7OgaPLleHtwyCGNLcVRHXdJ4EEZz7TgnjhB2XjnVATsb+KTMqDSWg87UJUTt057GCUf26bh2VShED9F9P596PR4w3rVP2xsnD+H6QB1kseEgjER0q95+WxcRERFRB5msJvSf3/UaZCJqhI2THlH8+BHF4n0Zdp6I2onxgPRi2WlF+fmZ8MwwUtEI7stYy0TdxphuXTf72qoyu9Oo132SiKjrNIhjrTxDQwbi8bmfevn6oN6+5TI4eL2MyDGf6SDSy9BnToiIiIiIiPRi44ToHgq/fYtPv4u8Xae+Ye7mbSMiIqLuxsYJERERERF1BT4QT0REREREXYGNEyIiIiIi6gpsnBARERERUVdg44SIiIiIiLoCGydERERERNQV2DghIiIiIqKucL8aJ8porG/fln6i0qSa2CwXpGj5b/X9j/8ojd/w859+p053l4nQDnZCE+oUET1k9zYefNYYTwrWJUT0ud2vxsl2sDRY215GndYkDsk7Xfp75WftJK+m94b+vj709fWrU0T0kLU3HvgRfitjcUydNBJj/Gf3cOuSNpZrItKE3bqa9t8Iigrvq//6mzpNRPRQmWAyqx+JegbLNVE3YOOEiIiIiIi6wm9GR0f/qX7GF198Ufr966+/ln43TeknPGstfcyfrMG/O4TF+VnYLQMo3xwuIpdNYu/1BmLvC6WUcv/gBYwPiI/5E6x5JRyVZ4hZEqIL41BmiZk4WfNCupoJ+MNv4cqtwbsBBEI+TD4aVpett576JqUoAojAW/2PP/HvePnXb/Dbf1EnhcL/ft/E3RMTxjwLmH/igMVcuT1eRP48g6PtU9iWHMh+68f6e3WWAZrbHy30H5+SwUn4F55iym5BOQuU/c8inUih3zWFwsYzrByXlrxim5Gw4B2HKDZXivlzZI62sRI5wqWaVuEI7eCVs/I1VwZ700HIYr3VZSKffQf5xTri1cVBx7YR3SfGxwNgyL+JH55Y1KkGcgm8fLaCpDpZZsKI6zGeur6E3VY555RzO4vU7musx97jZrTuXIzXHnd6neFlR9f1QRXTGDwL83jiuC47KOaQTe7h9UYMdYuBhhivv1yLTZsIQHo+iUfDauERZfpEKdMXs5CX1Doys4vp4HZptt46S1cZZT1H95gxjRNVqUIpnODCZocp9QZbW4c4PlPOsEE4xMV64KkV2cgcpOqzzi8ClytXe/F7ZVJcIAeASJ3GSWU96QNEt3YRP73E4KgLs8+9cNv7kdq4sZ4b9ATg3/3pZ8xh847GiQ2+dQmzlgscyBHsJdJQssA0YoPT7cWsSwkwDS7oW9COi5ESHcdHSQ/tLMFReIftH98gfnwmLj7EBcqEOD5PvfhS1FM3998m1iO5TDiNR7F9kEC6nGmwOd3wed2wFQ6wHJSRVpevMSkaS0tmHL2+gMNnQ0EE7Mie8j8sYvNXxUWOki/xysKat43ovmlbPChR+ua7kGv2PJkIYec/x1D8kMTBoYjV8VNcinN74vE85r+2Ibf3DYLymbpwWadifEtxp0e1q+zouj4wuRDa9MNyIuPPcrxUl5bTR+DyLcHvLCC6soz9mgOkN8ZrK9cml4TNgAWZN1vYOjwubdugw4OFwCyshUv0WYuIK40PdfkaGuosfWWU9Rzdb4Z36xqwixNt6w/wSzE18CgukYxJ8K+kYAlI8JjU5BYM2O3AwTL8y3Kp0lJcnsYhL/uxvJeD3aD1aGULLmJ2OI0NfxCReLlhoiicpRGXJcy9OEBWhIlCrpzekyZdGDNncDC3jv1SUFQUcHa8j3BwG6n8R3wslhLLRvwIuE1ISOLYiQqoFHwVhTOk4zKW/cs4gBuLi45yel1WuH2DOFqZQzBS+R9pyEFPVcNE0LptRNSa4xU8m/bCv7iOmNIwUdLEuX0cW8ZGogCr3V1a7Ka2x3hD4g5poe36YAT+1QBGT0S9Ga5qmCjEMYpHgpASZvgWg7CpySWdiPEmD6SADRllG2LlhoniMhmDJBoKGbNFvdN3mybqLL1llPUc3XPGP3OSiWPlsMGN8GQEyYtH+NI3oia0IBvHmlz/+6y0vIZ3uUdw+w1YjyaT8DrN+BC/0Y2o2lkEc9PGdunqOskkTvMWcfEwgbHRQTWx4hDL3trbySOzTlizCTQ4nIII2LspmBwzIocbyYpAvIjtO7p6aN02Imqf5Pkt39K0OcYbE3dIEy3XB46vMWURF9jhhgcI6cgB0mYnvNUHqAMx3uSdwqNcAlv1KvpCHOvvmnnd3N11lu4yynqO7jnDGyf5XFptpddTQOo8jyHLuDqtX/48hdqOANXOkMzmYbY41elOscE8kEP2lzsukHtdYR/LcxtIjz5H6Puf1DEHYojFdrAp+TB249tOq1kkWJ/g56rxCT75UfrvDphrvyGrUUSxQZ1XQ+O2EVGrBjEZWIccjdWe07EYoq7Gff3bHeONiTukhabrA8cQzLksEuWpBuLIXgzAXH2AOhDjHZYh5LPvG5bPQjqHu19kfXedpbuMsp6je66339b18aP6gTru8giRRT+8nsq4Ax54nn2L3ZwToc1VzNyo7Ysffrwan6DxT4P+u1pp3DYi0ssGf/gHLLnMuIhH8OKPX12dz199s4yNZIv9W1uM8R2NO9Q5PRTjdZdR1nN0jxn/zInZhsaNchPswwO4yJ6o0/oNDNvR+Ib+CBwWY9ajTRaFvBmWL/m1RF1KP+HwC0SzNvj8HjUROEplAes4Zj5ntjXYNiJqgccPtyWNrWc3+swLynN4x7nG36O3O8Z3Rdx5YDRdHyQvkDNbcPu9MRcsQ3nkGvf8umZgjE9mLzBgGWtYPkfslbfLtcbwMsp6ju4J4++cWKcQenyzj6PKEYBj6AN+2a66Gare/qy8IbCaacyO4XozFBYXlvz1m/6Dj+fhNN9YT0ccYjeZwyPXIlyNgolpDIFwDNHVx2qCcZTAbzgdx0d5K4vccJjdOhcjsSgSOTtmF123VFzG0LxtRPdUW+JBtQaxeXBk5Po8NvejP5dDpt6pNfgYIectr3Btd4zvYNy5b9pWdrRcHyR/xLusFe5g422xBdyw5RKIVr11quUY30S5LkTf4YPZief1KnqTC88n73g1cbN0llHWc3TfGf/MSSqNPt8mZMmDiZHK6aS8KlASJ4sdpxEJsepz4yiBU9gxE3CIpVSDDswEw9hccqBPTbopn0oB7lXIq3641Ae+lNdM+ldl/DBvwfub6+mQ5Po69kQwCYQleCaug9ng6ITYR7G9O9+JhksS22uH6pwup/P4DE+9Kh8bW9WFilIOAmH47AUk92NqmiKJ9fVdnNsWsCOvwu8avV6X+DQ6Vj6usdgqZtTUVmjbNiKqdYBUph92r4hxjvKZqrwqfWImAGkzip/+sgTvUClZLJpCRlzELYj6QF20HAtF/Ij+NA9bf+NXBrU/xnc27pDW64MzyMsRnI6LeTXLK+VtAh5JhuTMYXs9jJs3TvTFeA3luhCDFEnDKv6f5LmuG5VXCa9uBmC9yDbxzEkz9JdR1nN0nxk/zomOgbOUgYxW592wVsYmyp/jQ2IX23IBs/JSeSBAZSCjpKNmMKfm1+NAaOcVrsY+aqRmoKXf4tv/eYl/+9fSRGP/+Dte/f47/J86WaY8ABqCb9KK4YHK1zDlQRgTu9uQDz8ddKxVyrvpl8xxTAeN7x3d9PFRB5pSyoE9/RLxvlm47aMYGm5hsK1SvmWRTsax/2YfycoDhI4Qdl45ceshrdqmCt3bRnSPtDMelJgmEJCeV8VecQblxHl6coDd7arzVPhkoLrSuZbCuzcbkG2v8PZJOaZn9/6AuY+hDsZ4lZa48wC0q+zovT6oe3xuGYSxpRivoVwrbh+E0Vw7zonOOqtEYxllPUf3XXsaJxzZp+PafjFCRPcG4wHp1fbGyUO4PlAHWWw4CCMR3aq339ZFRERE1EEmqwn953e9BpmIGmHjpEcUP35EsdjLw84TUbMYD0gvlp1WlJ+fCc8MIxWNoJfHWiZqJ2O6dfnCV/2Eq2V2p1Gv+yQRERE9AL18fVBv33IZHLxeRuSYz3QQ6WXoMydERERERER6sVsXERERERF1BTZOiIiIiIioK7BxQkREREREXYGNEyIiIiIi6gpsnBARERERUVdg44SIiIiIiLoCGydERERERNQV2DghIiIiIqKucL8aJ8porG/fln6i0qSa2CwXpGj5b/X9j/9AWPzNz3/6nTrdXSZCO9gJTahT1F1aLDuOEHYq5TbsVxOJGmM8IL1Ydojoc7tfjZPtIKanp7GXUac1iUPyTpf+XvlZO8mr6b2hv68PfX396hT1lOQKnvVgmaX2YTwgvR5u2fEj/FbG4pg6SUSfDbt1Ne2/ERQXiF/919/UaaJmsewQEXU/E0xm9SMRfTZsnBARERERUVf4zejo6D/Vz/jiiy9Kv3/99dfS76Ypz4LMWksf8ydr8O8OYXF+FnbLAMo3h4vIZZPYe72B2PtCKaX8DMgCxgfEx/wJ1rwSjsozxCwJ0YVxKLPETJyseSFdzQT84bdw5dbg3QACIR8mHw2ry9ZbT32TUhQBROCt/sef+He8/Os3+O2/qJNC4X+/b+IbcBPGPAuYf+KAxVy5PV5E/jyDo+1T2JYcyH7rx/p7dZYBmtsfLfQfn5LBSfgXnmLKbkE5C5T9zyKdSKHfNYXCxjOsHJeWvGKbkbDgHYcoNleK+XNkjraxEjnCpZpW4Qjt4JWz8jVXBnvTQchivdVlIp99B/nFOuLVxUHHtmmnr+yYxjxYmH8Ch8V8fe5k3uFNJIyCN4olcxzTQbk0pyUdOD6K+vsTx9bLCLAg9qdUwFDqaknGMT4eVOm6srPRUqzSsm1D/k388MQiPin/aw5x+ys8d1tRjkLl7Xu9HMFx3epHe72gJ99aZXjZ0XV9UMU0Bs/CPJ44KuVNKOaQTe7h9UYMdat6DWX0+pjeIpfAy2crSKqTFaaJAKTnk3g0rB6gfBYnu6+xfjELeUktd5ldEbO3S7P11lm6ykFH6jmi9jCmcaIqNRoKJ7iw2WFKvcHW1iGOz5QzbBAOEZQDT63IRuYgVZ91fhG4XLnaCuXKpKh0AkCkTuOksp70AaJbu4ifXmJw1IXZ51647f1IbdxYzw16AvDv/vQz5rB5xwWmDb51CbOWCxzIEewl0lCywDRig9PtxaxLCTANLuhb0LaLER3HR0kP7SzBUXiH7R/fIH58hoKomEcmxPF56sWXop66uf82sR7JZcJpPIrtgwTS5UyDzemGz+uGrXCAZXFRnlaXrzEpLkCWzDh6fQGHz4aCCNiRPeV/WMTmr4qGrJIv8crCmrfNCM2UHZMrhE3/KLIiD15H42q5mcDjr7/GrKMP2QsTHhWNaJx05viU98eCE/nPkOPKOsr745p9Cu8UkE4PYdxkUGOLarSvcdLFZUdHrNIXd5RnE9wwnRfFnqexGxEX1UlR/zhEYyrwFPa6f6O9XmgpJragXWVH1/WByYXQph+WExl/lssxsZw+ApdvCX5nAdGVZezXZILeGK8cVxdyTcZ/k2j4bgYsyLzZwtbhcWnbymVgFtbCJfqsRcSVxoe6fA0NdZa+cvB56jkioxjerWvALk60rT/AL8XUwKO4RDImwb+SgiUgwWNSk1swYLcDB8vwL8ulhoni8jQOedmP5b0c7AatRytbcBGzw2ls+IOIxMsVkKJwlkZcljD34gBZESYKuXJ6T5p0YcycwcHcOvZLQVFRwNnxPsLBbaTyH/GxWEosG/Ej4DYhIYljJyqgUvBVFM6QjstY9i/jAG4sLjrK6XVZ4fYN4mhlDsFI5X+kIQc9VQ0TQeu2dYrJAykwivRGsJQH11lwjJjYJ38ki+Hqr81a0Ynjo+5Pan0OYfXiUqHsz344KPYnB6vdoP2hzumlstNS3OmHKXcIyS+VGiaKy2QM0ss4LqxTmL3xsivN9YIhMbH7aLs+GIF/NYDRE5E/4aqGiULkQzwShJQww7cYFE2/Kp2I8aUyakNG2YZYuWGiKJUB0VDImC3q3brbNFFn6S0H3VrPETXJ+GdOMnGsHDa42ZyMIHnxCF/6RtSEFmTjWJPrf2eUltfwLvcIbr8B69FkEl6nGR/iN7oRVTuLYG7a2C5dXSeZxGneIhqIExgbHVQTKw6x7K29nTwy64Q1m0CDwymIgL2bgskxI3K4kawIxIvYvqM7n9Zt65SxgBvWzBE26vcHQUGUqXe63lJXRweOj8k7hUe5FN7c7AehMnR/qHN6qOy0FnfySO9viyVuOEvhPN+H2pddaa8XjImJXUjL9YHja0xZxAV2uGEmIB05QNrshLc6EzoQ48tlNIGtege0EMd6UwX07jpLdzno0nqOqFmGN07yubTaSq+ngNR5HkOWcXVav/x5Cmfq50+dIZnNw2xxqtOdYoN5IIfsL41z4EEo7GN5bgPp0ecIff+TOq5MDLHYDjYlH8Zu3NGymkWC9Ql+rozlUe9H6b87YK79hqxGEcUGdV4NjdvWKU7LMIqFzK3nTjpn0KuEO3B8HJYh5LPvbzlHDdwf6pweKjvGxJ1maK8XOrdtnaXp+sAxBHMui0R5qoE4shcDMFdnQgdi/F1ltJDOiebrXe6us3SXgy6t54ia1dtv6/r4Uf1AHXd5hMiiH15PZWwZDzzPvsVuzonQ5ipmbtSoxQ8/qsvd9tOg/65WGretJ3Xz8aHu1kNlh9vWo3ooxusuB6zn6B4z/pkTsw2NG+Um2IcHcJE9Uaf1Gxi2o3GnrRE4LMasR5ssCnkzLF/ya4m6lH7C4ReIZm3w+T1qInCUygLWccx8zmxrsG2dksieo99kvfXcsZnb/IyGgccnmb3AgGXslnO0A/tDnXMPy07n4o72eqErYmIbaLo+SF4gZ7bg9v4PLliG8sg17vl1zcAYf1cZHbFX3iDaGsPLwWeu54iaZfydE+sUQo9v9nFUOQJwDH3AL9tVN0PV2581XXRVpjE7huvNUFhcWPLXb/oPPp6H03xjPR1xiN1kDo9ci3A1CiamMQTCMURXH6sJxlECv+F0HB/lrSxyw2F269zUj0WRyNkxu+i6peIyhuZt65D3kQNkrC4sNig4JqVMWdWJFnXi+BSicaRMTjxv0CHeyP2h+toRD7q67GiNVR2LOzrqhQ7GxHraUpcotFwfJH/Eu6wV7mDjbbEF3LDlEohWvXWq5Rjf4JpjcGTk6lgUou/wwSzKaL0DanKJsnvHq4mbpbMcdGs9R9Qs4585SaXR59uELHkwMVI5nZRXBUriZLHjNCIhVn1uHCVwCjtmAg6xlGrQgZlgGJtLDvSpSTflUynAvQp51Q+X+sCX8iph/6qMH+Yt4mLvxno6JLm+jj0RTAJhCZ6J62A2ODoh9lFs7853ooJKYnvtUJ3T5XQen+GpV+VjY7vOg1I5CIThsxeQ3I+paYok1td3cW5bwI68Cr9r9Hpd4tPoWPm4xmKrmFFTW6Ft2zqkEIMUScPqD2PV70Ll1FFen+qRZOwELMhmW+9nX9H241PYx4r8HtbAJoKu63Uo+6OUHTlgRjpl3P5Q53Rt2dEcqzoXd7TXC52NiZ2i7frgDPJyBKfjYl7N8tdxUXLmsL0e/uTFBPpi/AFSmX7YveIYOcq5rbzqeWImAGkzip/+sgTvUCn5Ol6L/yd5rsub8irh1c0ArBfZJp45aYb+ctCV9RxRk4wf50TH4IjKQEar825YK2MT5c/xIbGLbbmAWXmpPLiWMpBR0lEzmFPz63EgtPMKV2MfNVIz0NJv8e3/vMS//WtporF//B2vfv8d/k+dLBvEZCAE36QVwwOVr2HKg20ldrchH743/LsL5d30hg3Qd0PTxydYHmhKKQf29EvE+2bhto9iaLiFwbZK+ZZFOhnH/pt9qG/tFIc0hJ1XTnXwswaqtqlC97Zpor/s3DkIowGDFnbk+KjuHEivTWX2oWtXPOj2sqM1VpVo2Daf2H+1CiqrrjOqBhss+ST+6KgXdORbq9pZdnQNnlwvD24ZhLGlGG+aQEB6XrVtyqpEXp8cYHe7Thm9dRBGc+04JzrrrBKN5aAz9RxR+7SnccKRfTqunY0TonZgmW2fXs9blp32aXvj5CFcH6iDLDYchJGIbtXbb+siIiIi6iCT1YT+87teg0xEjbBx0iOKHz+iWOzlYeeJqFmMB6QXy04rys/PhGeGkYpG0MtjLRO1kzHdum72tVVldqdRr/skET1QDWJFK8/Q0APBsnM/9fL1Qb19y2Vw8HoZkWM+00Gkl6HPnBAREREREenFxglRA+G3b/Hp932369S3uN28bURERER6sXFCRERERERdgQ/EExERERFRV2DjhIiIiIiIugIbJ0RERERE1BXYOCEiIiIioq7AxgkREREREXUFNk6IiIiIiKgr6GicmOCSdvA27FOnPzXomEFACkOOvhXL+dXU5k2GxP9/K/42KmFSTaNP+cJvEVv3iCNCRERERHT/aW+cTC7CP96HVHxXTagyI2EnKuO7WRvOjzawm86rMzRwLMLnLOKXXzJqAjWyvXuC4qNZhGbYPCEiIiKi+09j42QEgafjGDhPYHu/oKZV2ZfwzOvH3PI6YvFT1FniDjYEA1PAuwjC2v/44TnawlF2APYZv8g5IiIiIqL7TVvjZPI5Ji1FfDiSkVaTjDTiD2CqXzR81pNqCt3uDJGDFIrDTvgeq0lERERERPeUpsbJjNuOgWIGie023NYwebDgHkJ6dwNHapKRHJXnWEo/YZSehBmcRGBdRlRNj24uwnWzh5RpDJ7QJnZilb8VP7EdbIY8GKtatvb/v8Wmf0idU8UXrlmmhtgWv1S9nhiichiS34/V6A5CE+pyN+0nkC4OwOby8dkTIiIiIrrXNDROZuC09QPZNA7VFOOYMBOahTWzi5V63cUMkFx5hunpaUyvnUB5Eqb/cQjy5nPYTqOQ/viVmPcC8aIT/kVX+Q8UJhdCmyF8md/Ft8/E3yp/r/w8+xa7uSkxbxUzan+q0v/fywC5BP4slpmTL8ozqm0Hxd9/hYOsstif1UTFJEL/bwnu4Qx21/6Ir0rreYYXW3Hk7C7YB/rQJ7K+vn2cZIrot46BN0+IiIiI6D5rvnEyYYdFXCDnLlI6niW5w+QCZm0XONiIGf+/67LC7RvE0cocgpE40mfKWtOQgx54pXh5EYzAvxrA6ImEuXAcpUUqCmeIR4KQEmb4FoPXz3scZHButmD81lsYjzE6VEQ2daxOC5MujJkzOJhbx/7xmZoHBZwd7yMc3EYq/xEfi6XEuhLZnGhtWWDnq82IiIiI6B5rvnFiGSx1G8qdV11UG8KBRZ8TxXcRyGdqUttlRUNgEdvvb2kKOb7GlEU0GMKNn65JRw6QNjvhrTQKzpLI5odgubr5MoKg/BZvd0JiL1UTjzDcf4FspQ2kSCZxmheNi8AExkYH1cSKQyx7n2Hllmw/Kyj7MQAzn4onIiIionus+caJuR8Nexa1wBYMYArvELmlEWC8IoqX6sdGHEMw57JIqJP1xZG9qG4UHCGVBYZsY+VJ0cAZHxa/xQJutXUy4hyF+TyDdzV3YvaxPLeB9OhzhL7/6eqZk5jybIvkq3m2hYiIiIioVzXfOMmJC3r1o5GGzOLKe3gKr6oeFC/9PLECA+NYEp9vGe+x6xyeXmDY4ix9drhtMH3Yxe4HE8ZmyrdXnBYzihdpvC9NVbk8QmTRD6+n8myLB57Ssy3OmmdbiIiIiIh6VfONk+xl6VkI83Cj10bpcyR51YvxGz/Kw+X5E6yJz8FtdeFOSl4gZ7ag3MxoxAXLUB65qps+hZMsckMWMecxZsdMyLwXjZP3GfTb3CJlEnZLP7KZ6j5dt1CebQm/QDRrg8/vURM/NWJSbq3UbgcRERER0X3TfOPkOIVsUTROhuxqQo9L/oh3WSvcwca3LGwBN2y5BKLV7z5W8qnfgjHPFEb7y69dLmwnkOkfxZTHAcvAObKJ2mdd/OG3kBfVrmCfuOW5GJVyNwbFLFLteAczEREREVGHNN84UV9ZC4sNjb/D7yVnkJcjOB2XIEseTIxcP/hhGpmAR5IhOXPYXg/fGJAyjkzWDOesDf3pI8RKaTEcpfthm3XCXLxA+pM+XUrPtleQV/1w2UaqxisZhCMQhs9eQHK//J8+NYNxaz+KmfdteMUzEREREVHn/GZ0dPSf6md88cUXpd+//vpr6fcnJiVEl+zI7j7DYr2BGJVBBmet6kR9ucRLPFtpPAK8L/wWN/9FZrfFrl2OEHZeiYaBOllXZhfT9VaiDMK4MI8nDovyToCyYg7Z5B5eb8RQ74VfY4syvpsyIfXai+VKi+HxKqLzdgxk9sR6ZDWxTLlzYk+/RLxvFm77KIaGB9SXDxSRyyax93oDsUZvFptZRez5KNLV6yIiIiIiuoe0NU4wgsDmX+DGAf44F0HH3vxLDajHo+8XvPDfvINDRERERHS/aOjWpThD5M0J8pZJzM/w/baf3eRzTFrySO3LbJgQERER0b2nsXEiHK1DPvkIu2tWTaDPxTc7jv4Pu1jZv/uheSIiIiKibqexWxcREREREVF7aL9zQkRERERE1AZsnBARERERUVdg44SIiIiIiLoCGydERERERNQV2DghIiIiIqKuwMYJERERERF1BTZOiIiIiIioK7BxQkREREREXYGNEyIiIiIi6gpsnBARERERUVdg44SIiIiIiLoA8P8BxmTGzk8bsz0AAAAASUVORK5CYII=;" vertex="1" parent="1">
          <mxGeometry x="78" y="1630" width="807" height="500" as="geometry" />
        </mxCell>
        <mxCell id="SI14YOLQEWjVCTlQ7veY-52" value="" style="rounded=0;whiteSpace=wrap;html=1;movable=1;resizable=1;rotatable=1;deletable=1;editable=1;locked=0;connectable=1;" vertex="1" parent="1">
          <mxGeometry x="50" y="2720" width="1010" height="480" as="geometry" />
        </mxCell>
        <mxCell id="SI14YOLQEWjVCTlQ7veY-53" value="&lt;b&gt;&lt;font style=&quot;font-size: 14px;&quot;&gt;Inventory&lt;/font&gt;&lt;/b&gt;" style="ellipse;whiteSpace=wrap;html=1;aspect=fixed;fillColor=#d5e8d4;strokeColor=#82b366;" vertex="1" parent="1">
          <mxGeometry x="580" y="2920" width="80" height="80" as="geometry" />
        </mxCell>
        <mxCell id="SI14YOLQEWjVCTlQ7veY-56" value="&lt;font style=&quot;font-size: 14px;&quot;&gt;&lt;b style=&quot;&quot;&gt;actions&lt;/b&gt;&lt;/font&gt;" style="ellipse;whiteSpace=wrap;html=1;aspect=fixed;fillColor=#d5e8d4;strokeColor=#82b366;" vertex="1" parent="1">
          <mxGeometry x="930" y="2760" width="80" height="80" as="geometry" />
        </mxCell>
        <mxCell id="SI14YOLQEWjVCTlQ7veY-57" value="&lt;b&gt;&lt;font style=&quot;font-size: 14px;&quot;&gt;users&lt;/font&gt;&lt;/b&gt;" style="ellipse;whiteSpace=wrap;html=1;aspect=fixed;fillColor=#d5e8d4;strokeColor=#82b366;" vertex="1" parent="1">
          <mxGeometry x="580" y="2746" width="80" height="80" as="geometry" />
        </mxCell>
        <mxCell id="SI14YOLQEWjVCTlQ7veY-58" value="&lt;b&gt;&lt;font style=&quot;font-size: 14px;&quot;&gt;repairs&lt;/font&gt;&lt;/b&gt;" style="ellipse;whiteSpace=wrap;html=1;aspect=fixed;fillColor=#d5e8d4;strokeColor=#82b366;" vertex="1" parent="1">
          <mxGeometry x="920" y="3006" width="80" height="80" as="geometry" />
        </mxCell>
        <mxCell id="SI14YOLQEWjVCTlQ7veY-59" value="&lt;b&gt;&lt;font style=&quot;font-size: 14px;&quot;&gt;statuses&lt;/font&gt;&lt;/b&gt;" style="ellipse;whiteSpace=wrap;html=1;aspect=fixed;fillColor=#d5e8d4;strokeColor=#82b366;" vertex="1" parent="1">
          <mxGeometry x="358" y="3094" width="80" height="80" as="geometry" />
        </mxCell>
        <mxCell id="SI14YOLQEWjVCTlQ7veY-60" value="&lt;b&gt;&lt;font style=&quot;font-size: 14px;&quot;&gt;locations&lt;/font&gt;&lt;/b&gt;" style="ellipse;whiteSpace=wrap;html=1;aspect=fixed;fillColor=#d5e8d4;strokeColor=#82b366;" vertex="1" parent="1">
          <mxGeometry x="170" y="3006" width="80" height="80" as="geometry" />
        </mxCell>
        <mxCell id="SI14YOLQEWjVCTlQ7veY-61" value="&lt;b&gt;&lt;font style=&quot;font-size: 14px;&quot;&gt;categories&lt;/font&gt;&lt;/b&gt;" style="ellipse;whiteSpace=wrap;html=1;aspect=fixed;fillColor=#d5e8d4;strokeColor=#82b366;" vertex="1" parent="1">
          <mxGeometry x="87" y="2826" width="80" height="80" as="geometry" />
        </mxCell>
        <mxCell id="SI14YOLQEWjVCTlQ7veY-66" value="" style="endArrow=classic;html=1;rounded=0;exitX=1;exitY=0;exitDx=0;exitDy=0;entryX=0;entryY=1;entryDx=0;entryDy=0;" edge="1" parent="1" source="SI14YOLQEWjVCTlQ7veY-53" target="SI14YOLQEWjVCTlQ7veY-56">
          <mxGeometry width="50" height="50" relative="1" as="geometry">
            <mxPoint x="830" y="2920" as="sourcePoint" />
            <mxPoint x="880" y="2870" as="targetPoint" />
          </mxGeometry>
        </mxCell>
        <mxCell id="SI14YOLQEWjVCTlQ7veY-69" value="" style="endArrow=classic;html=1;rounded=0;exitX=1;exitY=0.5;exitDx=0;exitDy=0;entryX=0;entryY=0.5;entryDx=0;entryDy=0;" edge="1" parent="1" source="SI14YOLQEWjVCTlQ7veY-57" target="SI14YOLQEWjVCTlQ7veY-56">
          <mxGeometry width="50" height="50" relative="1" as="geometry">
            <mxPoint x="820" y="2780" as="sourcePoint" />
            <mxPoint x="870" y="2730" as="targetPoint" />
          </mxGeometry>
        </mxCell>
        <mxCell id="SI14YOLQEWjVCTlQ7veY-70" value="" style="endArrow=classic;html=1;rounded=0;exitX=1;exitY=0.5;exitDx=0;exitDy=0;entryX=0;entryY=0.5;entryDx=0;entryDy=0;" edge="1" parent="1" source="SI14YOLQEWjVCTlQ7veY-53" target="SI14YOLQEWjVCTlQ7veY-58">
          <mxGeometry width="50" height="50" relative="1" as="geometry">
            <mxPoint x="640" y="3080" as="sourcePoint" />
            <mxPoint x="690" y="3030" as="targetPoint" />
          </mxGeometry>
        </mxCell>
        <mxCell id="SI14YOLQEWjVCTlQ7veY-71" value="" style="endArrow=classic;html=1;rounded=0;exitX=1;exitY=0;exitDx=0;exitDy=0;entryX=0;entryY=1;entryDx=0;entryDy=0;" edge="1" parent="1" source="SI14YOLQEWjVCTlQ7veY-59" target="SI14YOLQEWjVCTlQ7veY-53">
          <mxGeometry width="50" height="50" relative="1" as="geometry">
            <mxPoint x="470" y="3090" as="sourcePoint" />
            <mxPoint x="520" y="3040" as="targetPoint" />
          </mxGeometry>
        </mxCell>
        <mxCell id="SI14YOLQEWjVCTlQ7veY-72" value="" style="endArrow=classic;html=1;rounded=0;entryX=0;entryY=0.5;entryDx=0;entryDy=0;exitX=0.951;exitY=0.35;exitDx=0;exitDy=0;exitPerimeter=0;" edge="1" parent="1" source="SI14YOLQEWjVCTlQ7veY-60" target="SI14YOLQEWjVCTlQ7veY-53">
          <mxGeometry width="50" height="50" relative="1" as="geometry">
            <mxPoint x="260" y="3020" as="sourcePoint" />
            <mxPoint x="566.3796164772727" y="2900" as="targetPoint" />
          </mxGeometry>
        </mxCell>
        <mxCell id="SI14YOLQEWjVCTlQ7veY-74" value="" style="endArrow=classic;html=1;rounded=0;exitX=1;exitY=0.5;exitDx=0;exitDy=0;entryX=0;entryY=0;entryDx=0;entryDy=0;movable=1;resizable=1;rotatable=1;deletable=1;editable=1;locked=0;connectable=1;" edge="1" parent="1" source="SI14YOLQEWjVCTlQ7veY-61" target="SI14YOLQEWjVCTlQ7veY-53">
          <mxGeometry width="50" height="50" relative="1" as="geometry">
            <mxPoint x="230" y="2890" as="sourcePoint" />
            <mxPoint x="280" y="2840" as="targetPoint" />
          </mxGeometry>
        </mxCell>
        <mxCell id="SI14YOLQEWjVCTlQ7veY-79" style="edgeStyle=orthogonalEdgeStyle;rounded=0;orthogonalLoop=1;jettySize=auto;html=1;exitX=0.5;exitY=1;exitDx=0;exitDy=0;entryX=0.5;entryY=0;entryDx=0;entryDy=0;" edge="1" parent="1" source="SI14YOLQEWjVCTlQ7veY-77" target="SI14YOLQEWjVCTlQ7veY-52">
          <mxGeometry relative="1" as="geometry" />
        </mxCell>
        <mxCell id="SI14YOLQEWjVCTlQ7veY-81" style="edgeStyle=orthogonalEdgeStyle;rounded=0;orthogonalLoop=1;jettySize=auto;html=1;exitX=1;exitY=0.5;exitDx=0;exitDy=0;" edge="1" parent="1" source="SI14YOLQEWjVCTlQ7veY-77">
          <mxGeometry relative="1" as="geometry">
            <mxPoint x="1020" y="2530" as="targetPoint" />
          </mxGeometry>
        </mxCell>
        <mxCell id="SI14YOLQEWjVCTlQ7veY-77" value="&lt;div&gt;&lt;span style=&quot;background-color: initial;&quot;&gt;&lt;b style=&quot;&quot;&gt;&lt;font style=&quot;font-size: 13px;&quot;&gt;&amp;nbsp;Схема для системы управления инвентарем. Она отображает основные таблицы и их связи:&lt;/font&gt;&lt;/b&gt;&lt;/span&gt;&lt;/div&gt;&lt;ul style=&quot;padding-top: 0px; margin-top: 13px;&quot;&gt;&lt;li&gt;&lt;strong&gt;categories → inventory&lt;/strong&gt;: Каждый элемент инвентаря может быть связан с категорией.&lt;/li&gt;&lt;li&gt;&lt;strong&gt;locations → inventory&lt;/strong&gt;: Каждый элемент инвентаря может находиться в определенном месте.&lt;/li&gt;&lt;li&gt;&lt;strong&gt;statuses → inventory&lt;/strong&gt;: У каждого элемента инвентаря есть статус.&lt;/li&gt;&lt;li&gt;&lt;strong&gt;inventory → actions&lt;/strong&gt;: Действия связаны с определенным элементом инвентаря.&lt;/li&gt;&lt;li&gt;&lt;strong&gt;users → actions&lt;/strong&gt;: Пользователи выполняют действия.&lt;/li&gt;&lt;li&gt;&lt;strong&gt;inventory → repairs&lt;/strong&gt;: Учет ремонтов относится к элементу инвентаря.&lt;/li&gt;&lt;/ul&gt;" style="rounded=0;whiteSpace=wrap;html=1;align=left;" vertex="1" parent="1">
          <mxGeometry x="240" y="2420" width="630" height="220" as="geometry" />
        </mxCell>
        <mxCell id="SI14YOLQEWjVCTlQ7veY-80" style="edgeStyle=orthogonalEdgeStyle;rounded=0;orthogonalLoop=1;jettySize=auto;html=1;exitX=0.5;exitY=1;exitDx=0;exitDy=0;" edge="1" parent="1" source="SI14YOLQEWjVCTlQ7veY-77" target="SI14YOLQEWjVCTlQ7veY-77">
          <mxGeometry relative="1" as="geometry" />
        </mxCell>
        <mxCell id="SI14YOLQEWjVCTlQ7veY-82" value="&lt;ul style=&quot;text-align: left;&quot;&gt;&lt;li&gt;&lt;h3&gt;&lt;font face=&quot;Georgia&quot;&gt;Типы связей:&lt;/font&gt;&lt;/h3&gt;&lt;ol&gt;&lt;li&gt;&lt;p&gt;&lt;font face=&quot;Georgia&quot;&gt;&lt;strong&gt;One-to-Many&lt;/strong&gt;&amp;nbsp;(Один ко многим):&lt;/font&gt;&lt;/p&gt;&lt;ul&gt;&lt;li&gt;&lt;font face=&quot;Georgia&quot;&gt;Категория (&lt;code&gt;categories&lt;/code&gt;) → Инвентарь (&lt;code&gt;inventory&lt;/code&gt;).&lt;/font&gt;&lt;/li&gt;&lt;li&gt;&lt;font face=&quot;Georgia&quot;&gt;Локация (&lt;code&gt;locations&lt;/code&gt;) → Инвентарь (&lt;code&gt;inventory&lt;/code&gt;).&lt;/font&gt;&lt;/li&gt;&lt;li&gt;&lt;font face=&quot;Georgia&quot;&gt;Статус (&lt;code&gt;statuses&lt;/code&gt;) → Инвентарь (&lt;code&gt;inventory&lt;/code&gt;).&lt;/font&gt;&lt;/li&gt;&lt;li&gt;&lt;font face=&quot;Georgia&quot;&gt;Пользователь (&lt;code&gt;users&lt;/code&gt;) → Действия (&lt;code&gt;actions&lt;/code&gt;).&lt;/font&gt;&lt;/li&gt;&lt;/ul&gt;&lt;/li&gt;&lt;li&gt;&lt;p&gt;&lt;font face=&quot;Georgia&quot;&gt;&lt;strong&gt;Many-to-One&lt;/strong&gt;&amp;nbsp;(Многие к одному):&lt;/font&gt;&lt;/p&gt;&lt;ul&gt;&lt;li&gt;&lt;font face=&quot;Georgia&quot;&gt;Действие (&lt;code&gt;actions&lt;/code&gt;) → Инвентарь (&lt;code&gt;inventory&lt;/code&gt;).&lt;/font&gt;&lt;/li&gt;&lt;li&gt;&lt;font face=&quot;Georgia&quot;&gt;Действие (&lt;code&gt;actions&lt;/code&gt;) → Пользователь (&lt;code&gt;users&lt;/code&gt;).&lt;/font&gt;&lt;/li&gt;&lt;li&gt;&lt;font face=&quot;Georgia&quot;&gt;Ремонт (&lt;code&gt;repairs&lt;/code&gt;) → Инвентарь (&lt;code&gt;inventory&lt;/code&gt;).&lt;/font&gt;&lt;/li&gt;&lt;/ul&gt;&lt;/li&gt;&lt;/ol&gt;&lt;/li&gt;&lt;/ul&gt;" style="rounded=0;whiteSpace=wrap;html=1;" vertex="1" parent="1">
          <mxGeometry x="1030" y="2375" width="440" height="285" as="geometry" />
        </mxCell>
        <mxCell id="SI14YOLQEWjVCTlQ7veY-84" value="&lt;font style=&quot;font-size: 16px;&quot;&gt;&lt;b&gt;1) Repository&lt;/b&gt;&lt;/font&gt;&lt;div style=&quot;&quot;&gt;&lt;font style=&quot;font-size: 16px;&quot;&gt;&lt;b&gt;2) Service&lt;/b&gt;&lt;/font&gt;&lt;/div&gt;&lt;div&gt;&lt;font style=&quot;font-size: 16px;&quot;&gt;&lt;b&gt;3)Controller&lt;/b&gt;&lt;/font&gt;&lt;/div&gt;" style="rounded=0;whiteSpace=wrap;html=1;align=left;fillColor=#e1d5e7;strokeColor=#9673a6;" vertex="1" parent="1">
          <mxGeometry x="2330" y="300" width="160" height="110" as="geometry" />
        </mxCell>
        <mxCell id="SI14YOLQEWjVCTlQ7veY-85" style="edgeStyle=orthogonalEdgeStyle;rounded=0;orthogonalLoop=1;jettySize=auto;html=1;entryX=0;entryY=0.5;entryDx=0;entryDy=0;" edge="1" parent="1" source="SI14YOLQEWjVCTlQ7veY-16" target="SI14YOLQEWjVCTlQ7veY-84">
          <mxGeometry relative="1" as="geometry">
            <mxPoint x="2220" y="320" as="targetPoint" />
          </mxGeometry>
        </mxCell>
      </root>
    </mxGraphModel>
  </diagram>
</mxfile>
